<?xml version="1.0" encoding="utf-8"?>
<!-- Generator: Adobe Illustrator 17.1.0, SVG Export Plug-In . SVG Version: 6.00 Build 0)  -->
<!DOCTYPE svg PUBLIC "-//W3C//DTD SVG 1.1//EN" "http://www.w3.org/Graphics/SVG/1.1/DTD/svg11.dtd">
<svg version="1.1" id="Layer_1" xmlns="http://www.w3.org/2000/svg" xmlns:xlink="http://www.w3.org/1999/xlink" x="0px" y="0px"
	 viewBox="0 0 231 193.5" enable-background="new 0 0 231 193.5" xml:space="preserve">
<g>
	<linearGradient id="SVGID_1_" gradientUnits="userSpaceOnUse" x1="106.4053" y1="141.4588" x2="136.622" y2="141.4588">
		<stop  offset="0" style="stop-color:#288FEB"/>
		<stop  offset="1" style="stop-color:#288FEB;stop-opacity:0.1"/>
	</linearGradient>
	<path fill-rule="evenodd" clip-rule="evenodd" fill="url(#SVGID_1_)" d="M136.6,146c0,8.3-6.8,15.1-15.1,15.1s-15.1-6.8-15.1-15.1
		c0-9.9,15.1-24.1,15.1-24.1S136.6,136.5,136.6,146z"/>
</g>
<line fill="none" stroke="#83C7FF" stroke-miterlimit="10" x1="78.5" y1="52" x2="78.5" y2="18"/>
<line fill="none" stroke="#83C7FF" stroke-miterlimit="10" x1="36.2" y1="92" x2="66" y2="71.5"/>
<line fill="none" stroke="#83C7FF" stroke-miterlimit="10" x1="121.4" y1="91.9" x2="90" y2="72"/>
<g>
	<linearGradient id="SVGID_2_" gradientUnits="userSpaceOnUse" x1="66.5154" y1="67" x2="90.5119" y2="67">
		<stop  offset="0" style="stop-color:#288FEB"/>
		<stop  offset="1" style="stop-color:#288FEB;stop-opacity:0.1"/>
	</linearGradient>
	<path fill-rule="evenodd" clip-rule="evenodd" fill="url(#SVGID_2_)" d="M90.5,70.6c0,6.6-5.4,12-12,12s-12-5.4-12-12
		c0-7.9,12-19.2,12-19.2S90.5,63,90.5,70.6z"/>
</g>
<linearGradient id="SVGID_3_" gradientUnits="userSpaceOnUse" x1="46" y1="66.7035" x2="111" y2="66.7035">
	<stop  offset="0" style="stop-color:#FFFFFF"/>
	<stop  offset="1" style="stop-color:#FFFFFF;stop-opacity:0"/>
</linearGradient>
<polygon fill="url(#SVGID_3_)" points="111,47.9 78.5,29.1 46,47.9 46,85.5 78.5,104.3 111,85.5 "/>
<polygon fill="none" stroke="#288FEB" stroke-miterlimit="10" points="121.5,42.2 79,17.4 36.5,42.2 36.5,91.7 79,116.5 121.5,91.7 
	"/>
<g>
	<path fill="#288FEB" d="M79,114.1c-0.6,0-1-0.5-1-1l0,0c0-0.6,0.5-1,1-1l0,0c0.5,0,1,0.5,1,1l0,0C80,113.6,79.6,114.1,79,114.1
		L79,114.1C79,114.1,79,114.1,79,114.1z M79.1,110.2c-0.5,0-1-0.5-1-1l0,0c0-0.5,0.5-1,1-1l0,0c0.6,0,1,0.5,1,1l0,0
		C80.1,109.8,79.6,110.2,79.1,110.2L79.1,110.2C79.1,110.2,79.1,110.2,79.1,110.2z M79.1,106.4c-0.6,0-1-0.5-1-1l0,0
		c0-0.6,0.5-1,1-1l0,0c0.6,0,1,0.5,1,1l0,0C80.1,106,79.7,106.4,79.1,106.4L79.1,106.4C79.2,106.4,79.2,106.4,79.1,106.4z
		 M79.2,102.5c-0.6,0-1-0.5-1-1l0,0c0-0.6,0.5-1,1-1l0,0c0.6,0,1,0.5,1,1l0,0C80.2,102.1,79.8,102.5,79.2,102.5L79.2,102.5
		L79.2,102.5z M79.3,98.7c-0.5,0-1-0.5-1-1l0,0c0-0.6,0.5-1,1-1l0,0c0.5,0,1,0.5,1,1l0,0C80.3,98.3,79.8,98.7,79.3,98.7L79.3,98.7
		C79.3,98.7,79.3,98.7,79.3,98.7z M79.3,94.9c-0.5,0-1-0.5-1-1l0,0c0-0.5,0.5-1,1-1l0,0c0.6,0,1,0.5,1,1l0,0
		C80.3,94.4,79.9,94.9,79.3,94.9L79.3,94.9L79.3,94.9z M79.4,91c-0.6,0-1-0.5-1-1l0,0c0-0.5,0.5-1,1-1l0,0c0.6,0,1,0.5,1,1l0,0
		C80.4,90.6,79.9,91,79.4,91L79.4,91L79.4,91z M79.4,87.2c-0.5,0-1-0.5-1-1l0,0c0-0.6,0.5-1,1-1l0,0c0.5,0,1,0.5,1,1l0,0
		C80.4,86.8,80,87.2,79.4,87.2L79.4,87.2C79.4,87.2,79.4,87.2,79.4,87.2z M79.5,83.3c-0.5,0-1-0.5-1-1l0,0c0-0.5,0.5-1,1-1l0,0
		c0.5,0,1,0.5,1,1l0,0C80.5,82.9,80,83.3,79.5,83.3L79.5,83.3L79.5,83.3z M79.5,79.5c-0.6,0-1-0.5-1-1l0,0c0-0.5,0.5-1,1-1l0,0
		c0.6,0,1,0.5,1,1l0,0C80.5,79.1,80.1,79.5,79.5,79.5L79.5,79.5L79.5,79.5z M79.6,75.7c-0.5,0-1-0.5-1-1l0,0c0-0.6,0.5-1,1-1l0,0
		c0.5,0,1,0.5,1,1l0,0C80.6,75.2,80.2,75.7,79.6,75.7L79.6,75.7C79.6,75.7,79.6,75.7,79.6,75.7z M79.3,71.6
		c-0.3-0.4-0.2-1.1,0.2-1.4l0,0c0.5-0.3,1.1-0.2,1.4,0.2l0,0c0.3,0.4,0.2,1.1-0.2,1.4l0,0C80.5,72,80.3,72,80.1,72l0,0
		C79.8,72,79.5,71.9,79.3,71.6z M82.4,69.4c-0.3-0.5-0.2-1.1,0.2-1.4l0,0c0.5-0.3,1.1-0.2,1.4,0.2l0,0c0.3,0.5,0.2,1.1-0.2,1.4l0,0
		c-0.2,0.1-0.4,0.2-0.6,0.2l0,0C82.9,69.8,82.6,69.7,82.4,69.4z M85.5,67.2c-0.3-0.4-0.2-1.1,0.2-1.4l0,0c0.5-0.3,1.1-0.2,1.4,0.2
		l0,0c0.3,0.5,0.2,1.1-0.2,1.4l0,0c-0.2,0.1-0.4,0.2-0.6,0.2l0,0C86,67.6,85.7,67.5,85.5,67.2z M88.7,65c-0.3-0.5-0.2-1.1,0.2-1.4
		l0,0c0.4-0.3,1.1-0.2,1.4,0.2l0,0c0.3,0.4,0.2,1.1-0.2,1.4l0,0c-0.2,0.1-0.4,0.2-0.6,0.2l0,0C89.2,65.4,88.9,65.2,88.7,65z
		 M91.8,62.7c-0.3-0.4-0.2-1.1,0.2-1.4l0,0c0.5-0.3,1.1-0.2,1.4,0.2l0,0c0.3,0.5,0.2,1.1-0.2,1.4l0,0c-0.2,0.1-0.4,0.2-0.6,0.2l0,0
		C92.3,63.2,92,63,91.8,62.7z M94.9,60.5c-0.3-0.5-0.2-1.1,0.2-1.4l0,0c0.4-0.3,1.1-0.2,1.4,0.2l0,0c0.3,0.5,0.2,1.1-0.2,1.4l0,0
		c-0.2,0.1-0.4,0.2-0.6,0.2l0,0C95.4,60.9,95.1,60.8,94.9,60.5z M98.1,58.3c-0.3-0.5-0.2-1.1,0.2-1.4l0,0c0.5-0.3,1.1-0.2,1.4,0.2
		l0,0c0.3,0.4,0.2,1.1-0.2,1.4l0,0c-0.2,0.1-0.4,0.2-0.6,0.2l0,0C98.6,58.7,98.3,58.6,98.1,58.3z M101.2,56.1
		c-0.3-0.5-0.2-1.1,0.2-1.4l0,0c0.4-0.3,1.1-0.2,1.4,0.2l0,0c0.3,0.5,0.2,1.1-0.2,1.4l0,0c-0.2,0.1-0.4,0.2-0.6,0.2l0,0
		C101.7,56.5,101.4,56.4,101.2,56.1z M104.4,53.9c-0.3-0.4-0.2-1.1,0.2-1.4l0,0c0.5-0.3,1.1-0.2,1.4,0.2l0,0
		c0.3,0.5,0.2,1.1-0.2,1.4l0,0c-0.2,0.1-0.4,0.2-0.6,0.2l0,0C104.9,54.3,104.5,54.1,104.4,53.9z M107.5,51.7
		c-0.3-0.5-0.2-1.1,0.2-1.4l0,0c0.4-0.3,1.1-0.2,1.4,0.2l0,0c0.3,0.4,0.2,1.1-0.2,1.4l0,0c-0.2,0.1-0.4,0.2-0.6,0.2l0,0
		C108,52.1,107.7,51.9,107.5,51.7z M110.6,49.4c-0.3-0.5-0.2-1.1,0.2-1.4l0,0c0.5-0.3,1.1-0.2,1.4,0.2l0,0c0.3,0.5,0.2,1.1-0.2,1.4
		l0,0c-0.2,0.1-0.4,0.2-0.6,0.2l0,0C111.1,49.9,110.8,49.7,110.6,49.4z M113.8,47.2c-0.3-0.4-0.2-1.1,0.2-1.4l0,0
		c0.5-0.3,1.1-0.2,1.4,0.2l0,0c0.3,0.5,0.2,1.1-0.2,1.4l0,0c-0.2,0.1-0.4,0.2-0.6,0.2l0,0C114.3,47.6,114,47.5,113.8,47.2z
		 M116.9,45c-0.3-0.5-0.2-1.1,0.2-1.4l0,0c0.5-0.3,1.1-0.2,1.4,0.2l0,0c0.3,0.5,0.2,1.1-0.2,1.4l0,0c-0.2,0.1-0.4,0.2-0.6,0.2l0,0
		C117.4,45.4,117.1,45.3,116.9,45z M120,42.8c-0.3-0.5-0.2-1.1,0.2-1.4l0,0c0.4-0.3,1.1-0.2,1.4,0.2l0,0c0.3,0.4,0.2,1.1-0.2,1.4
		l0,0c-0.2,0.1-0.4,0.2-0.6,0.2l0,0C120.5,43.2,120.2,43.1,120,42.8z"/>
</g>
<g>
	<path fill="#288FEB" d="M77.9,71.3c-0.5-0.3-0.6-0.9-0.3-1.4l0,0c0.3-0.5,0.9-0.6,1.4-0.3l0,0c0.5,0.3,0.6,0.9,0.3,1.4l0,0
		c-0.2,0.3-0.5,0.5-0.8,0.5l0,0C78.3,71.5,78.1,71.5,77.9,71.3z M74.7,69.2c-0.4-0.3-0.6-0.9-0.3-1.4l0,0c0.3-0.5,0.9-0.6,1.4-0.3
		l0,0c0.5,0.3,0.6,0.9,0.3,1.4l0,0c-0.2,0.3-0.5,0.4-0.8,0.4l0,0C75.1,69.4,74.9,69.3,74.7,69.2z M71.5,67.1
		c-0.5-0.3-0.6-0.9-0.3-1.4l0,0c0.3-0.5,0.9-0.6,1.4-0.3l0,0c0.5,0.3,0.6,0.9,0.3,1.4l0,0c-0.2,0.3-0.5,0.4-0.8,0.4l0,0
		C71.9,67.2,71.7,67.2,71.5,67.1z M68.3,64.9c-0.5-0.3-0.6-0.9-0.3-1.4l0,0c0.3-0.5,0.9-0.6,1.4-0.3l0,0c0.5,0.3,0.6,0.9,0.3,1.4
		l0,0c-0.2,0.3-0.5,0.4-0.8,0.4l0,0C68.7,65.1,68.5,65,68.3,64.9z M65.1,62.8c-0.5-0.3-0.6-0.9-0.3-1.4l0,0c0.3-0.5,0.9-0.6,1.4-0.3
		l0,0c0.5,0.3,0.6,0.9,0.3,1.4l0,0c-0.2,0.3-0.5,0.4-0.8,0.4l0,0C65.5,62.9,65.3,62.9,65.1,62.8z M61.9,60.6
		c-0.5-0.3-0.6-0.9-0.3-1.4l0,0c0.3-0.5,0.9-0.6,1.4-0.3l0,0c0.5,0.3,0.6,0.9,0.3,1.4l0,0c-0.2,0.3-0.5,0.5-0.8,0.5l0,0
		C62.3,60.8,62.1,60.8,61.9,60.6z M58.8,58.5c-0.5-0.3-0.6-0.9-0.3-1.4l0,0c0.3-0.4,0.9-0.6,1.4-0.3l0,0c0.4,0.3,0.6,0.9,0.3,1.4
		l0,0c-0.2,0.3-0.5,0.4-0.8,0.4l0,0C59.1,58.7,58.9,58.6,58.8,58.5z M55.6,56.3C55.1,56,55,55.4,55.3,55l0,0
		c0.3-0.5,0.9-0.6,1.4-0.3l0,0c0.5,0.3,0.6,0.9,0.3,1.4l0,0c-0.2,0.3-0.5,0.4-0.8,0.4l0,0C55.9,56.5,55.7,56.5,55.6,56.3z
		 M52.4,54.2c-0.5-0.3-0.6-0.9-0.3-1.4l0,0c0.3-0.5,0.9-0.6,1.4-0.3l0,0c0.5,0.3,0.6,0.9,0.3,1.4l0,0c-0.2,0.3-0.5,0.4-0.8,0.4l0,0
		C52.8,54.4,52.6,54.3,52.4,54.2z M49.2,52.1c-0.5-0.3-0.6-0.9-0.3-1.4l0,0c0.3-0.5,0.9-0.6,1.4-0.3l0,0c0.5,0.3,0.6,0.9,0.3,1.4
		l0,0c-0.2,0.3-0.5,0.4-0.8,0.4l0,0C49.6,52.2,49.4,52.2,49.2,52.1z M46,49.9c-0.5-0.3-0.6-0.9-0.3-1.4l0,0c0.3-0.5,0.9-0.6,1.4-0.3
		l0,0c0.5,0.3,0.6,0.9,0.3,1.4l0,0c-0.2,0.3-0.5,0.4-0.8,0.4l0,0C46.4,50.1,46.2,50,46,49.9z M42.8,47.8c-0.5-0.3-0.6-0.9-0.3-1.4
		l0,0c0.3-0.5,0.9-0.6,1.4-0.3l0,0c0.5,0.3,0.6,0.9,0.3,1.4l0,0c-0.2,0.3-0.5,0.4-0.8,0.4l0,0C43.2,47.9,43,47.9,42.8,47.8z
		 M39.6,45.6c-0.5-0.3-0.6-0.9-0.3-1.4l0,0c0.3-0.5,0.9-0.6,1.4-0.3l0,0c0.4,0.3,0.6,0.9,0.3,1.4l0,0c-0.2,0.3-0.5,0.4-0.8,0.4l0,0
		C40,45.8,39.8,45.8,39.6,45.6z M36.4,43.5c-0.5-0.3-0.6-0.9-0.3-1.4l0,0c0.3-0.5,0.9-0.6,1.4-0.3l0,0c0.5,0.3,0.6,0.9,0.3,1.4l0,0
		c-0.2,0.3-0.5,0.5-0.8,0.5l0,0C36.8,43.7,36.6,43.6,36.4,43.5z"/>
</g>
<line fill="none" stroke="#83C7FF" stroke-miterlimit="10" x1="121.5" y1="123" x2="121.5" y2="92"/>
<line fill="none" stroke="#83C7FF" stroke-miterlimit="10" x1="79.2" y1="166" x2="106" y2="148"/>
<line fill="none" stroke="#83C7FF" stroke-miterlimit="10" x1="164.4" y1="165.9" x2="136.7" y2="148.3"/>
<linearGradient id="SVGID_4_" gradientUnits="userSpaceOnUse" x1="89" y1="140.6667" x2="154" y2="140.6667">
	<stop  offset="0" style="stop-color:#FFFFFF"/>
	<stop  offset="1" style="stop-color:#FFFFFF;stop-opacity:0"/>
</linearGradient>
<polygon fill="url(#SVGID_4_)" points="154,121.5 121.5,102.3 89,121.5 89,159.8 121.5,179 154,159.8 "/>
<polygon fill="none" stroke="#288FEB" stroke-miterlimit="10" points="164.5,116.2 122,91.4 79.5,116.2 79.5,165.7 122,190.5 
	164.5,165.7 "/>
<g>
	<path fill="#288FEB" d="M122,188.1c-0.6,0-1-0.5-1-1l0,0c0-0.6,0.5-1,1-1l0,0c0.6,0,1,0.5,1,1l0,0C123,187.6,122.6,188.1,122,188.1
		L122,188.1C122,188.1,122,188.1,122,188.1z M122.1,184.2c-0.5,0-1-0.5-1-1l0,0c0-0.5,0.5-1,1-1l0,0c0.5,0,1,0.5,1,1l0,0
		C123.1,183.8,122.6,184.2,122.1,184.2L122.1,184.2C122.1,184.2,122.1,184.2,122.1,184.2z M122.1,180.4c-0.5,0-1-0.5-1-1l0,0
		c0-0.6,0.5-1,1-1l0,0c0.5,0,1,0.5,1,1l0,0C123.1,180,122.7,180.4,122.1,180.4L122.1,180.4L122.1,180.4z M122.2,176.5
		c-0.6,0-1-0.5-1-1l0,0c0-0.6,0.5-1,1-1l0,0c0.5,0,1,0.5,1,1l0,0C123.2,176.1,122.8,176.5,122.2,176.5L122.2,176.5
		C122.2,176.5,122.2,176.5,122.2,176.5z M122.3,172.7c-0.5,0-1-0.5-1-1l0,0c0-0.5,0.5-1,1-1l0,0c0.5,0,1,0.5,1,1l0,0
		C123.3,172.3,122.8,172.7,122.3,172.7L122.3,172.7C122.3,172.7,122.3,172.7,122.3,172.7z M122.3,168.9c-0.5,0-1-0.5-1-1l0,0
		c0-0.5,0.5-1,1-1l0,0c0.5,0,1,0.5,1,1l0,0C123.3,168.4,122.9,168.9,122.3,168.9L122.3,168.9L122.3,168.9z M122.4,165
		c-0.6,0-1-0.5-1-1l0,0c0-0.5,0.5-1,1-1l0,0c0.6,0,1,0.5,1,1l0,0C123.4,164.6,122.9,165,122.4,165L122.4,165L122.4,165z
		 M122.4,161.2c-0.5,0-1-0.5-1-1l0,0c0-0.5,0.5-1,1-1l0,0c0.5,0,1,0.5,1,1l0,0C123.4,160.7,123,161.2,122.4,161.2L122.4,161.2
		C122.4,161.2,122.4,161.2,122.4,161.2z M122.5,157.3c-0.6,0-1-0.5-1-1l0,0c0-0.5,0.5-1,1-1l0,0c0.5,0,1,0.5,1,1l0,0
		C123.5,156.9,123,157.3,122.5,157.3L122.5,157.3L122.5,157.3z M122.5,153.5c-0.6,0-1-0.5-1-1l0,0c0-0.6,0.5-1,1-1l0,0
		c0.6,0,1,0.5,1,1l0,0C123.5,153.1,123.1,153.5,122.5,153.5L122.5,153.5L122.5,153.5z M122.6,149.7c-0.5,0-1-0.5-1-1l0,0
		c0-0.5,0.5-1,1-1l0,0c0.5,0,1,0.5,1,1l0,0C123.6,149.2,123.2,149.7,122.6,149.7L122.6,149.7C122.6,149.7,122.6,149.7,122.6,149.7z
		 M122.3,145.6c-0.3-0.5-0.2-1.1,0.2-1.4l0,0c0.5-0.3,1.1-0.2,1.4,0.2l0,0c0.3,0.5,0.2,1.1-0.2,1.4l0,0c-0.2,0.1-0.4,0.2-0.6,0.2
		l0,0C122.8,146,122.5,145.9,122.3,145.6z M125.4,143.4c-0.3-0.4-0.2-1.1,0.2-1.4l0,0c0.5-0.3,1.1-0.2,1.4,0.2l0,0
		c0.3,0.4,0.2,1.1-0.2,1.4l0,0c-0.2,0.1-0.4,0.2-0.6,0.2l0,0C125.9,143.8,125.6,143.7,125.4,143.4z M128.5,141.2
		c-0.3-0.5-0.2-1.1,0.2-1.4l0,0c0.4-0.3,1.1-0.2,1.4,0.2l0,0c0.3,0.5,0.2,1.1-0.2,1.4l0,0c-0.2,0.1-0.4,0.2-0.6,0.2l0,0
		C129,141.6,128.7,141.5,128.5,141.2z M131.7,139c-0.3-0.5-0.2-1.1,0.2-1.4l0,0c0.4-0.3,1.1-0.2,1.4,0.2l0,0
		c0.3,0.5,0.2,1.1-0.2,1.4l0,0c-0.2,0.1-0.4,0.2-0.6,0.2l0,0C132.2,139.4,131.9,139.2,131.7,139z M134.8,136.7
		c-0.3-0.5-0.2-1.1,0.2-1.4l0,0c0.5-0.3,1.1-0.2,1.4,0.2l0,0c0.3,0.5,0.2,1.1-0.2,1.4l0,0c-0.2,0.1-0.4,0.2-0.6,0.2l0,0
		C135.3,137.2,135,137,134.8,136.7z M138,134.5c-0.3-0.5-0.2-1.1,0.2-1.4l0,0c0.5-0.3,1.1-0.2,1.4,0.2l0,0c0.3,0.4,0.2,1.1-0.2,1.4
		l0,0c-0.2,0.1-0.4,0.2-0.6,0.2l0,0C138.5,135,138.1,134.8,138,134.5z M141.1,132.3c-0.3-0.5-0.2-1.1,0.2-1.4l0,0
		c0.5-0.3,1.1-0.2,1.4,0.2l0,0c0.3,0.5,0.2,1.1-0.2,1.4l0,0c-0.2,0.1-0.4,0.2-0.6,0.2l0,0C141.6,132.7,141.3,132.6,141.1,132.3z
		 M144.2,130.1c-0.3-0.5-0.2-1.1,0.2-1.4l0,0c0.5-0.3,1.1-0.2,1.4,0.2l0,0c0.3,0.5,0.2,1.1-0.2,1.4l0,0c-0.2,0.1-0.4,0.2-0.6,0.2
		l0,0C144.7,130.5,144.4,130.4,144.2,130.1z M147.4,127.9c-0.3-0.5-0.2-1.1,0.2-1.4l0,0c0.5-0.3,1.1-0.2,1.4,0.2l0,0
		c0.3,0.5,0.2,1.1-0.2,1.4l0,0c-0.2,0.1-0.4,0.2-0.6,0.2l0,0C147.9,128.3,147.5,128.1,147.4,127.9z M150.5,125.6
		c-0.3-0.4-0.2-1.1,0.2-1.4l0,0c0.5-0.3,1.1-0.2,1.4,0.2l0,0c0.3,0.5,0.2,1.1-0.2,1.4l0,0c-0.2,0.1-0.4,0.2-0.6,0.2l0,0
		C151,126.1,150.7,125.9,150.5,125.6z M153.6,123.4c-0.3-0.5-0.2-1.1,0.2-1.4l0,0c0.4-0.3,1.1-0.2,1.4,0.2l0,0
		c0.3,0.4,0.2,1.1-0.2,1.4l0,0c-0.2,0.1-0.4,0.2-0.6,0.2l0,0C154.1,123.9,153.8,123.7,153.6,123.4z M156.8,121.2
		c-0.3-0.5-0.2-1.1,0.2-1.4l0,0c0.5-0.3,1.1-0.2,1.4,0.2l0,0c0.3,0.5,0.2,1.1-0.2,1.4l0,0c-0.2,0.1-0.4,0.2-0.6,0.2l0,0
		C157.3,121.6,157,121.5,156.8,121.2z M159.9,119c-0.3-0.5-0.2-1.1,0.2-1.4l0,0c0.5-0.3,1.1-0.2,1.4,0.2l0,0
		c0.3,0.5,0.2,1.1-0.2,1.4l0,0c-0.2,0.1-0.4,0.2-0.6,0.2l0,0C160.4,119.4,160.1,119.3,159.9,119z M163,116.8
		c-0.3-0.5-0.2-1.1,0.2-1.4l0,0c0.4-0.3,1.1-0.2,1.4,0.2l0,0c0.3,0.5,0.2,1.1-0.2,1.4l0,0c-0.2,0.1-0.4,0.2-0.6,0.2l0,0
		C163.5,117.2,163.2,117.1,163,116.8z"/>
</g>
<g>
	<path fill="#288FEB" d="M120,144.8c-0.5-0.3-0.6-0.9-0.3-1.4l0,0c0.3-0.5,0.9-0.6,1.4-0.3l0,0c0.5,0.3,0.6,0.9,0.3,1.4l0,0
		c-0.2,0.3-0.5,0.5-0.8,0.5l0,0C120.3,144.9,120.1,144.9,120,144.8z M116.8,142.6c-0.5-0.3-0.6-0.9-0.3-1.4l0,0
		c0.3-0.5,0.9-0.6,1.4-0.3l0,0c0.5,0.3,0.6,0.9,0.3,1.4l0,0c-0.2,0.3-0.5,0.5-0.8,0.5l0,0C117.1,142.8,116.9,142.7,116.8,142.6z
		 M113.6,140.5c-0.5-0.3-0.6-0.9-0.3-1.4l0,0c0.3-0.5,0.9-0.6,1.4-0.3l0,0c0.5,0.3,0.6,0.9,0.3,1.4l0,0c-0.2,0.3-0.5,0.4-0.8,0.4
		l0,0C113.9,140.7,113.7,140.6,113.6,140.5z M110.3,138.4c-0.5-0.3-0.6-0.9-0.3-1.4l0,0c0.3-0.5,0.9-0.6,1.4-0.3l0,0
		c0.5,0.3,0.6,0.9,0.3,1.4l0,0c-0.2,0.3-0.5,0.5-0.8,0.5l0,0C110.7,138.6,110.5,138.5,110.3,138.4z M107.1,136.3
		c-0.5-0.3-0.6-0.9-0.3-1.4l0,0c0.3-0.5,0.9-0.6,1.4-0.3l0,0c0.5,0.3,0.6,0.9,0.3,1.4l0,0c-0.2,0.3-0.5,0.4-0.8,0.4l0,0
		C107.5,136.4,107.3,136.4,107.1,136.3z M103.9,134.1c-0.5-0.3-0.6-0.9-0.3-1.4l0,0c0.3-0.5,0.9-0.6,1.4-0.3l0,0
		c0.5,0.3,0.6,0.9,0.3,1.4l0,0c-0.2,0.3-0.5,0.4-0.8,0.4l0,0C104.3,134.3,104.1,134.3,103.9,134.1z M100.7,132
		c-0.5-0.3-0.6-0.9-0.3-1.4l0,0c0.3-0.5,0.9-0.6,1.4-0.3l0,0c0.5,0.3,0.6,0.9,0.3,1.4l0,0c-0.2,0.3-0.5,0.5-0.8,0.5l0,0
		C101.1,132.2,100.9,132.1,100.7,132z M97.5,129.9c-0.5-0.3-0.6-0.9-0.3-1.4l0,0c0.3-0.5,0.9-0.6,1.4-0.3l0,0
		c0.5,0.3,0.6,0.9,0.3,1.4l0,0c-0.2,0.3-0.5,0.5-0.8,0.5l0,0C97.9,130.1,97.7,130,97.5,129.9z M94.3,127.8c-0.5-0.3-0.6-0.9-0.3-1.4
		l0,0c0.3-0.5,0.9-0.6,1.4-0.3l0,0c0.4,0.3,0.6,0.9,0.3,1.4l0,0c-0.2,0.3-0.5,0.4-0.8,0.4l0,0C94.7,128,94.5,127.9,94.3,127.8z
		 M91.1,125.7c-0.5-0.3-0.6-0.9-0.3-1.4l0,0c0.3-0.5,0.9-0.6,1.4-0.3l0,0c0.5,0.3,0.6,0.9,0.3,1.4l0,0c-0.2,0.3-0.5,0.5-0.8,0.5l0,0
		C91.5,125.8,91.3,125.8,91.1,125.7z M87.9,123.6c-0.5-0.3-0.6-0.9-0.3-1.4l0,0c0.3-0.5,0.9-0.6,1.4-0.3l0,0
		c0.5,0.3,0.6,0.9,0.3,1.4l0,0c-0.2,0.3-0.5,0.4-0.8,0.4l0,0C88.3,123.7,88.1,123.7,87.9,123.6z M84.7,121.4
		c-0.5-0.3-0.6-0.9-0.3-1.4l0,0c0.3-0.5,0.9-0.6,1.4-0.3l0,0c0.5,0.3,0.6,0.9,0.3,1.4l0,0c-0.2,0.3-0.5,0.4-0.8,0.4l0,0
		C85.1,121.6,84.9,121.6,84.7,121.4z M81.5,119.3c-0.5-0.3-0.6-0.9-0.3-1.4l0,0c0.3-0.5,0.9-0.6,1.4-0.3l0,0
		c0.5,0.3,0.6,0.9,0.3,1.4l0,0c-0.2,0.3-0.5,0.5-0.8,0.5l0,0C81.9,119.5,81.7,119.4,81.5,119.3z M78.3,117.2
		c-0.5-0.3-0.6-0.9-0.3-1.4l0,0c0.3-0.5,0.9-0.6,1.4-0.3l0,0c0.5,0.3,0.6,0.9,0.3,1.4l0,0c-0.2,0.3-0.5,0.5-0.8,0.5l0,0
		C78.7,117.4,78.5,117.3,78.3,117.2z"/>
</g>
<line fill="none" stroke="#9EDDB9" stroke-miterlimit="10" x1="186.5" y1="39" x2="186.5" y2="3"/>
<line fill="none" stroke="#9EDDB9" stroke-miterlimit="10" x1="144.2" y1="77" x2="176.5" y2="55.5"/>
<line fill="none" stroke="#9EDDB9" stroke-miterlimit="10" x1="229.4" y1="76.9" x2="196" y2="55.8"/>
<g>
	<linearGradient id="SVGID_5_" gradientUnits="userSpaceOnUse" x1="176.3095" y1="52.25" x2="196.7178" y2="52.25">
		<stop  offset="0" style="stop-color:#28CB75"/>
		<stop  offset="1" style="stop-color:#28CB75;stop-opacity:0.1"/>
	</linearGradient>
	<path fill-rule="evenodd" clip-rule="evenodd" fill="url(#SVGID_5_)" d="M196.7,55.3c0,5.6-4.6,10.2-10.2,10.2s-10.2-4.6-10.2-10.2
		c0-6.7,10.2-16.3,10.2-16.3S196.7,48.9,196.7,55.3z"/>
</g>
<linearGradient id="SVGID_6_" gradientUnits="userSpaceOnUse" x1="154" y1="52.3701" x2="219" y2="52.3701">
	<stop  offset="0" style="stop-color:#FFFFFF"/>
	<stop  offset="1" style="stop-color:#FFFFFF;stop-opacity:0"/>
</linearGradient>
<polygon fill="url(#SVGID_6_)" points="219,33.4 186.5,14.4 154,33.4 154,71.4 186.5,90.3 219,71.4 "/>
<polygon fill="none" stroke="#28CB75" stroke-miterlimit="10" points="229.5,27.2 187,2.4 144.5,27.2 144.5,76.7 187,101.5 
	229.5,76.7 "/>
<g>
	<path fill="#28CB75" d="M187,99.1c-0.6,0-1-0.5-1-1l0,0c0-0.6,0.5-1,1-1l0,0c0.6,0,1,0.5,1,1l0,0C188,98.6,187.6,99.1,187,99.1
		L187,99.1C187,99.1,187,99.1,187,99.1z M187.1,95.2c-0.5,0-1-0.5-1-1l0,0c0-0.6,0.5-1,1-1l0,0c0.5,0,1,0.5,1,1l0,0
		C188.1,94.8,187.6,95.2,187.1,95.2L187.1,95.2C187.1,95.2,187.1,95.2,187.1,95.2z M187.1,91.4c-0.6,0-1-0.5-1-1l0,0
		c0-0.6,0.5-1,1-1l0,0c0.5,0,1,0.5,1,1l0,0C188.1,90.9,187.7,91.4,187.1,91.4L187.1,91.4L187.1,91.4z M187.2,87.5c-0.6,0-1-0.5-1-1
		l0,0c0-0.6,0.5-1,1-1l0,0c0.6,0,1,0.5,1,1l0,0C188.2,87.1,187.8,87.5,187.2,87.5L187.2,87.5L187.2,87.5z M187.3,83.7
		c-0.5,0-1-0.5-1-1l0,0c0-0.6,0.5-1,1-1l0,0c0.5,0,1,0.5,1,1l0,0C188.3,83.3,187.8,83.7,187.3,83.7L187.3,83.7
		C187.3,83.7,187.3,83.7,187.3,83.7z M187.3,79.9c-0.5,0-1-0.5-1-1l0,0c0-0.5,0.5-1,1-1l0,0c0.5,0,1,0.5,1,1l0,0
		C188.3,79.4,187.9,79.9,187.3,79.9L187.3,79.9L187.3,79.9z M187.4,76c-0.6,0-1-0.5-1-1l0,0c0-0.5,0.5-1,1-1l0,0c0.5,0,1,0.5,1,1
		l0,0C188.4,75.6,187.9,76,187.4,76L187.4,76C187.4,76,187.4,76,187.4,76z M187.4,72.2c-0.5,0-1-0.5-1-1l0,0c0-0.6,0.5-1,1-1l0,0
		c0.5,0,1,0.5,1,1l0,0C188.4,71.8,188,72.2,187.4,72.2L187.4,72.2C187.4,72.2,187.4,72.2,187.4,72.2z M187.5,68c-0.6,0-1-0.3-1-0.8
		l0,0c0-0.5,0.5-0.9,1-0.9l0,0c0.5,0,1,0.3,1,0.9l0,0C188.5,67.7,188,68,187.5,68L187.5,68L187.5,68z M187.5,64.5c-0.6,0-1-0.5-1-1
		l0,0c0-0.5,0.5-1,1-1l0,0c0.6,0,1,0.5,1,1l0,0C188.5,64.1,188.1,64.5,187.5,64.5L187.5,64.5L187.5,64.5z M187.6,60.7
		c-0.5,0-1-0.5-1-1l0,0c0-0.6,0.5-1,1-1l0,0c0.5,0,1,0.5,1,1l0,0C188.6,60.2,188.2,60.7,187.6,60.7L187.6,60.7
		C187.6,60.7,187.6,60.7,187.6,60.7z M187.3,56.6c-0.3-0.5-0.2-1.1,0.2-1.4l0,0c0.5-0.3,1.1-0.2,1.4,0.2l0,0
		c0.3,0.4,0.2,1.1-0.2,1.4l0,0c-0.2,0.1-0.4,0.2-0.6,0.2l0,0C187.8,57,187.5,56.9,187.3,56.6z M190.4,54.4c-0.3-0.5-0.2-1.1,0.2-1.4
		l0,0c0.5-0.3,1.1-0.2,1.4,0.2l0,0c0.3,0.5,0.2,1.1-0.2,1.4l0,0c-0.2,0.1-0.4,0.2-0.6,0.2l0,0C190.9,54.8,190.6,54.7,190.4,54.4z
		 M193.5,52.2c-0.3-0.4-0.2-1.1,0.2-1.4l0,0c0.4-0.3,1.1-0.2,1.4,0.2l0,0c0.3,0.5,0.2,1.1-0.2,1.4l0,0c-0.2,0.1-0.4,0.2-0.6,0.2l0,0
		C194,52.6,193.7,52.5,193.5,52.2z M196.7,50c-0.3-0.5-0.2-1.1,0.2-1.4l0,0c0.5-0.3,1.1-0.2,1.4,0.2l0,0c0.3,0.4,0.2,1.1-0.2,1.4
		l0,0c-0.2,0.1-0.4,0.2-0.6,0.2l0,0C197.2,50.4,196.9,50.2,196.7,50z M199.8,47.7c-0.3-0.4-0.2-1.1,0.2-1.4l0,0
		c0.5-0.3,1.1-0.2,1.4,0.2l0,0c0.3,0.5,0.2,1.1-0.2,1.4l0,0c-0.2,0.1-0.4,0.2-0.6,0.2l0,0C200.3,48.2,200,48,199.8,47.7z M203,45.5
		c-0.3-0.5-0.2-1.1,0.2-1.4l0,0c0.5-0.3,1.1-0.2,1.4,0.2l0,0c0.3,0.5,0.2,1.1-0.2,1.4l0,0c-0.2,0.1-0.4,0.2-0.6,0.2l0,0
		C203.5,45.9,203.1,45.8,203,45.5z M206.1,43.3c-0.3-0.5-0.2-1.1,0.2-1.4l0,0c0.5-0.3,1.1-0.2,1.4,0.2l0,0c0.3,0.4,0.2,1.1-0.2,1.4
		l0,0c-0.2,0.1-0.4,0.2-0.6,0.2l0,0C206.6,43.7,206.3,43.6,206.1,43.3z M209.2,41.1c-0.3-0.5-0.2-1.1,0.2-1.4l0,0
		c0.5-0.3,1.1-0.2,1.4,0.2l0,0c0.3,0.4,0.2,1.1-0.2,1.4l0,0c-0.2,0.1-0.4,0.2-0.6,0.2l0,0C209.7,41.5,209.4,41.4,209.2,41.1z
		 M212.4,38.9c-0.3-0.4-0.2-1.1,0.2-1.4l0,0c0.5-0.3,1.1-0.2,1.4,0.2l0,0c0.3,0.5,0.2,1.1-0.2,1.4l0,0c-0.2,0.1-0.4,0.2-0.6,0.2l0,0
		C212.9,39.3,212.5,39.1,212.4,38.9z M215.5,36.6c-0.3-0.5-0.2-1.1,0.2-1.4l0,0c0.5-0.3,1.1-0.2,1.4,0.2l0,0
		c0.3,0.4,0.2,1.1-0.2,1.4l0,0c-0.2,0.1-0.4,0.2-0.6,0.2l0,0C216,37.1,215.7,36.9,215.5,36.6z M218.6,34.4c-0.3-0.5-0.2-1.1,0.2-1.4
		l0,0c0.4-0.3,1.1-0.2,1.4,0.2l0,0c0.3,0.5,0.2,1.1-0.2,1.4l0,0c-0.2,0.1-0.4,0.2-0.6,0.2l0,0C219.1,34.9,218.8,34.7,218.6,34.4z
		 M221.8,32.2c-0.3-0.4-0.2-1.1,0.2-1.4l0,0c0.5-0.3,1.1-0.2,1.4,0.2l0,0c0.3,0.5,0.2,1.1-0.2,1.4l0,0c-0.2,0.1-0.4,0.2-0.6,0.2l0,0
		C222.3,32.6,222,32.5,221.8,32.2z M224.9,30c-0.3-0.5-0.2-1.1,0.2-1.4l0,0c0.5-0.3,1.1-0.2,1.4,0.2l0,0c0.3,0.5,0.2,1.1-0.2,1.4
		l0,0c-0.2,0.1-0.4,0.2-0.6,0.2l0,0C225.4,30.4,225.1,30.3,224.9,30z M228,27.8c-0.3-0.5-0.2-1.1,0.2-1.4l0,0
		c0.4-0.3,1.1-0.2,1.4,0.2l0,0c0.3,0.4,0.2,1.1-0.2,1.4l0,0c-0.2,0.1-0.4,0.2-0.6,0.2l0,0C228.5,28.2,228.2,28.1,228,27.8z"/>
</g>
<g>
	<path fill="#28CB75" d="M187.1,57.2c-0.5-0.3-0.6-0.9-0.3-1.4l0,0c0.3-0.5,0.9-0.6,1.4-0.3l0,0c0.5,0.3,0.6,0.9,0.3,1.4l0,0
		c-0.2,0.3-0.5,0.4-0.8,0.4l0,0C187.5,57.3,187.3,57.3,187.1,57.2z M183.9,55c-0.5-0.3-0.6-0.9-0.3-1.4l0,0c0.3-0.5,0.9-0.6,1.4-0.3
		l0,0c0.5,0.3,0.6,0.9,0.3,1.4l0,0c-0.2,0.3-0.5,0.4-0.8,0.4l0,0C184.3,55.2,184.1,55.2,183.9,55z M180.7,52.9
		c-0.5-0.3-0.6-0.9-0.3-1.4l0,0c0.3-0.5,0.9-0.6,1.4-0.3l0,0c0.5,0.3,0.6,0.9,0.3,1.4l0,0c-0.2,0.3-0.5,0.4-0.8,0.4l0,0
		C181.1,53.1,180.9,53,180.7,52.9z M177.5,50.8c-0.5-0.3-0.6-0.9-0.3-1.4l0,0c0.3-0.5,0.9-0.6,1.4-0.3l0,0c0.5,0.3,0.6,0.9,0.3,1.4
		l0,0c-0.2,0.3-0.5,0.5-0.8,0.5l0,0C177.9,51,177.7,50.9,177.5,50.8z M174.3,48.7c-0.5-0.3-0.6-0.9-0.3-1.4l0,0
		c0.3-0.5,0.9-0.6,1.4-0.3l0,0c0.5,0.3,0.6,0.9,0.3,1.4l0,0c-0.2,0.3-0.5,0.5-0.8,0.5l0,0C174.7,48.9,174.5,48.8,174.3,48.7z
		 M171.1,46.6c-0.5-0.3-0.6-0.9-0.3-1.4l0,0c0.3-0.5,0.9-0.6,1.4-0.3l0,0c0.5,0.3,0.6,0.9,0.3,1.4l0,0c-0.2,0.3-0.5,0.4-0.8,0.4l0,0
		C171.5,46.7,171.3,46.7,171.1,46.6z M167.9,44.5c-0.5-0.3-0.6-0.9-0.3-1.4l0,0c0.3-0.5,0.9-0.6,1.4-0.3l0,0
		c0.5,0.3,0.6,0.9,0.3,1.4l0,0c-0.2,0.3-0.5,0.4-0.8,0.4l0,0C168.2,44.6,168.1,44.6,167.9,44.5z M164.7,42.3
		c-0.5-0.3-0.6-0.9-0.3-1.4l0,0c0.3-0.5,0.9-0.6,1.4-0.3l0,0c0.5,0.3,0.6,0.9,0.3,1.4l0,0c-0.2,0.3-0.5,0.4-0.8,0.4l0,0
		C165,42.5,164.8,42.4,164.7,42.3z M161.5,40.2c-0.5-0.3-0.6-0.9-0.3-1.4l0,0c0.3-0.5,0.9-0.6,1.4-0.3l0,0c0.5,0.3,0.6,0.9,0.3,1.4
		l0,0c-0.2,0.3-0.5,0.4-0.8,0.4l0,0C161.8,40.4,161.6,40.3,161.5,40.2z M158.3,38.1c-0.5-0.3-0.6-0.9-0.3-1.4l0,0
		c0.3-0.5,0.9-0.6,1.4-0.3l0,0c0.5,0.3,0.6,0.9,0.3,1.4l0,0c-0.2,0.3-0.5,0.5-0.8,0.5l0,0C158.6,38.3,158.5,38.2,158.3,38.1z
		 M155.1,36c-0.5-0.3-0.6-0.9-0.3-1.4l0,0c0.3-0.5,0.9-0.6,1.4-0.3l0,0c0.5,0.3,0.6,0.9,0.3,1.4l0,0c-0.2,0.3-0.5,0.5-0.8,0.5l0,0
		C155.4,36.1,155.2,36.1,155.1,36z M151.9,33.9c-0.5-0.3-0.6-0.9-0.3-1.4l0,0c0.3-0.5,0.9-0.6,1.4-0.3l0,0c0.5,0.3,0.6,0.9,0.3,1.4
		l0,0c-0.2,0.3-0.5,0.5-0.8,0.5l0,0C152.2,34,152,34,151.9,33.9z M148.7,31.8c-0.5-0.3-0.6-0.9-0.3-1.4l0,0c0.3-0.5,0.9-0.6,1.4-0.3
		l0,0c0.5,0.3,0.6,0.9,0.3,1.4l0,0c-0.2,0.3-0.5,0.4-0.8,0.4l0,0C149,31.9,148.8,31.9,148.7,31.8z M145.5,29.6
		c-0.5-0.3-0.6-0.9-0.3-1.4l0,0c0.3-0.5,0.9-0.6,1.4-0.3l0,0c0.5,0.3,0.6,0.9,0.3,1.4l0,0c-0.2,0.3-0.5,0.5-0.8,0.5l0,0
		C145.8,29.8,145.6,29.7,145.5,29.6z"/>
</g>
<line fill="none" stroke="#9EDDB9" stroke-miterlimit="10" x1="31.5" y1="137" x2="31.5" y2="111"/>
<line fill="none" stroke="#9EDDB9" stroke-miterlimit="10" x1="1.4" y1="163.9" x2="24.5" y2="148.5"/>
<line fill="none" stroke="#9EDDB9" stroke-miterlimit="10" x1="62.4" y1="163.8" x2="38.5" y2="148.6"/>
<g>
	<linearGradient id="SVGID_7_" gradientUnits="userSpaceOnUse" x1="24.3806" y1="146.1274" x2="39.0063" y2="146.1274">
		<stop  offset="0" style="stop-color:#28CB75"/>
		<stop  offset="1" style="stop-color:#28CB75;stop-opacity:0.1"/>
	</linearGradient>
	<path fill-rule="evenodd" clip-rule="evenodd" fill="url(#SVGID_7_)" d="M39,148.3c0,4-3.3,7.3-7.3,7.3s-7.3-3.3-7.3-7.3
		c0-4.8,7.3-11.7,7.3-11.7S39,143.7,39,148.3z"/>
</g>
<linearGradient id="SVGID_8_" gradientUnits="userSpaceOnUse" x1="8" y1="146.6667" x2="55" y2="146.6667">
	<stop  offset="0" style="stop-color:#FFFFFF"/>
	<stop  offset="1" style="stop-color:#FFFFFF;stop-opacity:0"/>
</linearGradient>
<polygon fill="url(#SVGID_8_)" points="55,132.8 31.5,119 8,132.8 8,160.5 31.5,174.3 55,160.5 "/>
<polygon fill="none" stroke="#28CB75" stroke-miterlimit="10" points="62.5,128.2 32,110.4 1.5,128.2 1.5,163.7 32,181.4 
	62.5,163.7 "/>
<g>
	<path fill="#28CB75" d="M32.1,179.2c-0.5,0-1-0.5-1-1l0,0c0-0.5,0.5-1,1-1l0,0c0.6,0,1,0.5,1,1l0,0
		C33.1,178.8,32.6,179.2,32.1,179.2L32.1,179.2C32.1,179.2,32.1,179.2,32.1,179.2z M32.1,175.4c-0.6,0-1-0.5-1-1l0,0
		c0-0.5,0.5-1,1-1l0,0c0.6,0,1,0.5,1,1l0,0C33.1,174.9,32.7,175.4,32.1,175.4L32.1,175.4C32.1,175.4,32.1,175.4,32.1,175.4z
		 M32.2,171.5c-0.6,0-1-0.5-1-1l0,0c0-0.5,0.5-1,1-1l0,0c0.6,0,1,0.5,1,1l0,0C33.2,171.1,32.8,171.5,32.2,171.5L32.2,171.5
		L32.2,171.5z M32.2,167.7c-0.5,0-1-0.5-1-1l0,0c0-0.6,0.5-1,1-1l0,0c0.6,0,1,0.5,1,1l0,0C33.2,167.2,32.8,167.7,32.2,167.7
		L32.2,167.7C32.2,167.7,32.2,167.7,32.2,167.7z M32.3,163.8c-0.5,0-1-0.5-1-1l0,0c0-0.5,0.5-1,1-1l0,0c0.6,0,1,0.5,1,1l0,0
		C33.3,163.4,32.9,163.8,32.3,163.8L32.3,163.8C32.3,163.8,32.3,163.8,32.3,163.8z M32.4,160c-0.5,0-1-0.5-1-1l0,0c0-0.5,0.5-1,1-1
		l0,0c0.6,0,1,0.5,1,1l0,0C33.4,159.6,32.9,160,32.4,160L32.4,160L32.4,160z M32.4,156.1c-0.6,0-1-0.5-1-1l0,0c0-0.5,0.5-1,1-1l0,0
		c0.6,0,1,0.5,1,1l0,0C33.4,155.7,33,156.1,32.4,156.1L32.4,156.1L32.4,156.1z M32.5,152.3c-0.5,0-1-0.5-1-1l0,0c0-0.6,0.5-1,1-1
		l0,0c0.5,0,1,0.5,1,1l0,0C33.5,151.9,33,152.3,32.5,152.3L32.5,152.3C32.5,152.3,32.5,152.3,32.5,152.3z M33,148.7
		c-0.3-0.5-0.2-1.1,0.2-1.4l0,0c0.5-0.3,1.1-0.2,1.4,0.2l0,0c0.3,0.5,0.2,1.1-0.2,1.4l0,0c-0.2,0.1-0.4,0.2-0.6,0.2l0,0
		C33.5,149.1,33.2,149,33,148.7z M36.1,146.5c-0.3-0.5-0.2-1.1,0.2-1.4l0,0c0.5-0.3,1.1-0.2,1.4,0.2l0,0c0.3,0.5,0.2,1.1-0.2,1.4
		l0,0c-0.2,0.1-0.4,0.2-0.6,0.2l0,0C36.6,146.9,36.3,146.8,36.1,146.5z M39.3,144.3c-0.3-0.5-0.2-1.1,0.2-1.4l0,0
		c0.5-0.3,1.1-0.2,1.4,0.2l0,0c0.3,0.5,0.2,1.1-0.2,1.4l0,0c-0.2,0.1-0.4,0.2-0.6,0.2l0,0C39.8,144.7,39.5,144.6,39.3,144.3z
		 M42.4,142.1c-0.3-0.5-0.2-1.1,0.2-1.4l0,0c0.5-0.3,1.1-0.2,1.4,0.2l0,0c0.3,0.4,0.2,1.1-0.2,1.4l0,0c-0.2,0.1-0.4,0.2-0.6,0.2l0,0
		C42.9,142.5,42.6,142.3,42.4,142.1z M45.5,139.8c-0.3-0.5-0.2-1.1,0.2-1.4l0,0c0.5-0.3,1.1-0.2,1.4,0.2l0,0
		c0.3,0.5,0.2,1.1-0.2,1.4l0,0c-0.2,0.1-0.4,0.2-0.6,0.2l0,0C46,140.3,45.7,140.1,45.5,139.8z M48.7,137.6c-0.3-0.5-0.2-1.1,0.2-1.4
		l0,0c0.4-0.3,1.1-0.2,1.4,0.2l0,0c0.3,0.5,0.2,1.1-0.2,1.4l0,0c-0.2,0.1-0.4,0.2-0.6,0.2l0,0C49.2,138,48.9,137.9,48.7,137.6z
		 M51.8,135.4c-0.3-0.5-0.2-1.1,0.2-1.4l0,0c0.5-0.3,1.1-0.2,1.4,0.2l0,0c0.3,0.5,0.2,1.1-0.2,1.4l0,0c-0.2,0.1-0.4,0.2-0.6,0.2l0,0
		C52.3,135.8,52,135.7,51.8,135.4z M54.9,133.2c-0.3-0.4-0.2-1.1,0.2-1.4l0,0c0.4-0.3,1.1-0.2,1.4,0.2l0,0c0.3,0.5,0.2,1.1-0.2,1.4
		l0,0c-0.2,0.1-0.4,0.2-0.6,0.2l0,0C55.4,133.6,55.1,133.5,54.9,133.2z M58.1,131c-0.3-0.5-0.2-1.1,0.2-1.4l0,0
		c0.5-0.3,1.1-0.2,1.4,0.2l0,0c0.3,0.5,0.2,1.1-0.2,1.4l0,0c-0.2,0.1-0.4,0.2-0.6,0.2l0,0C58.6,131.4,58.3,131.2,58.1,131z
		 M61.2,128.8c-0.3-0.5-0.2-1.1,0.2-1.4l0,0c0.4-0.3,1.1-0.2,1.4,0.2l0,0c0.3,0.5,0.2,1.1-0.2,1.4l0,0c-0.2,0.1-0.4,0.2-0.6,0.2l0,0
		C61.7,129.2,61.4,129,61.2,128.8z"/>
</g>
<g>
	<path fill="#28CB75" d="M32,149.9c-0.5-0.3-0.6-0.9-0.3-1.4l0,0c0.3-0.5,0.9-0.6,1.4-0.3l0,0c0.5,0.3,0.6,0.9,0.3,1.4l0,0
		c-0.2,0.3-0.5,0.4-0.8,0.4l0,0C32.3,150,32.1,150,32,149.9z M28.8,147.8c-0.5-0.3-0.6-0.9-0.3-1.4l0,0c0.3-0.5,0.9-0.6,1.4-0.3l0,0
		c0.5,0.3,0.6,0.9,0.3,1.4l0,0c-0.2,0.3-0.5,0.5-0.8,0.5l0,0C29.1,147.9,28.9,147.9,28.8,147.8z M25.6,145.6
		c-0.5-0.3-0.6-0.9-0.3-1.4l0,0c0.3-0.5,0.9-0.6,1.4-0.3l0,0c0.5,0.3,0.6,0.9,0.3,1.4l0,0c-0.2,0.3-0.5,0.4-0.8,0.4l0,0
		C25.9,145.8,25.7,145.8,25.6,145.6z M22.3,143.5c-0.4-0.3-0.6-0.9-0.3-1.4l0,0c0.3-0.5,0.9-0.6,1.4-0.3l0,0
		c0.5,0.3,0.6,0.9,0.3,1.4l0,0c-0.2,0.3-0.5,0.5-0.8,0.5l0,0C22.7,143.7,22.5,143.6,22.3,143.5z M19.1,141.4
		c-0.5-0.3-0.6-0.9-0.3-1.4l0,0c0.3-0.5,0.9-0.6,1.4-0.3l0,0c0.5,0.3,0.6,0.9,0.3,1.4l0,0c-0.2,0.3-0.5,0.5-0.8,0.5l0,0
		C19.5,141.6,19.3,141.5,19.1,141.4z M15.9,139.3c-0.5-0.3-0.6-0.9-0.3-1.4l0,0c0.3-0.5,0.9-0.6,1.4-0.3l0,0
		c0.5,0.3,0.6,0.9,0.3,1.4l0,0c-0.2,0.3-0.5,0.5-0.8,0.5l0,0C16.3,139.5,16.1,139.4,15.9,139.3z M12.7,137.2
		c-0.5-0.3-0.6-0.9-0.3-1.4l0,0c0.3-0.5,0.9-0.6,1.4-0.3l0,0c0.5,0.3,0.6,0.9,0.3,1.4l0,0c-0.2,0.3-0.5,0.5-0.8,0.5l0,0
		C13.1,137.3,12.9,137.3,12.7,137.2z M9.5,135.1c-0.5-0.3-0.6-0.9-0.3-1.4l0,0c0.3-0.5,0.9-0.6,1.4-0.3l0,0c0.5,0.3,0.6,0.9,0.3,1.4
		l0,0c-0.2,0.3-0.5,0.5-0.8,0.5l0,0C9.9,135.2,9.7,135.2,9.5,135.1z M6.3,132.9c-0.5-0.3-0.6-0.9-0.3-1.4l0,0
		c0.3-0.5,0.9-0.6,1.4-0.3l0,0c0.5,0.3,0.6,0.9,0.3,1.4l0,0c-0.2,0.3-0.5,0.4-0.8,0.4l0,0C6.7,133.1,6.5,133,6.3,132.9z M3.1,130.8
		c-0.5-0.3-0.6-0.9-0.3-1.4l0,0c0.3-0.5,0.9-0.6,1.4-0.3l0,0c0.5,0.3,0.6,0.9,0.3,1.4l0,0C4.3,130.8,4,131,3.7,131l0,0
		C3.5,131,3.3,130.9,3.1,130.8z"/>
</g>
<g>
	<linearGradient id="SVGID_9_" gradientUnits="userSpaceOnUse" x1="126.8294" y1="88.0719" x2="141.8445" y2="79.4029">
		<stop  offset="0" style="stop-color:#288FEB"/>
		<stop  offset="0.1404" style="stop-color:#289CD2"/>
		<stop  offset="0.4031" style="stop-color:#28B0AA"/>
		<stop  offset="0.6429" style="stop-color:#28BF8D"/>
		<stop  offset="0.8498" style="stop-color:#28C87B"/>
		<stop  offset="1" style="stop-color:#28CB75"/>
	</linearGradient>
	<path fill="url(#SVGID_9_)" d="M127.1,88.5c-0.3-0.5-0.2-1.1,0.3-1.4l0,0c0.5-0.3,1.1-0.2,1.4,0.3l0,0c0.3,0.5,0.2,1.1-0.3,1.4l0,0
		c-0.2,0.1-0.4,0.2-0.5,0.2l0,0C127.6,89,127.3,88.8,127.1,88.5z M130.3,86.4c-0.3-0.5-0.2-1.1,0.3-1.4l0,0c0.5-0.3,1.1-0.2,1.4,0.3
		l0,0c0.3,0.5,0.2,1.1-0.3,1.4l0,0c-0.2,0.1-0.4,0.2-0.5,0.2l0,0C130.8,86.8,130.5,86.7,130.3,86.4z M133.5,84.3
		c-0.3-0.5-0.2-1.1,0.3-1.4l0,0c0.5-0.3,1.1-0.2,1.4,0.3l0,0c0.3,0.5,0.2,1.1-0.3,1.4l0,0c-0.2,0.1-0.4,0.2-0.5,0.2l0,0
		C134,84.7,133.7,84.6,133.5,84.3z M136.7,82.2c-0.3-0.5-0.2-1.1,0.3-1.4l0,0c0.5-0.3,1.1-0.2,1.4,0.3l0,0c0.3,0.5,0.2,1.1-0.3,1.4
		l0,0c-0.2,0.1-0.4,0.2-0.5,0.2l0,0C137.2,82.6,136.9,82.5,136.7,82.2z M139.9,80c-0.3-0.5-0.2-1.1,0.3-1.4l0,0
		c0.5-0.3,1.1-0.2,1.4,0.3l0,0c0.3,0.5,0.2,1.1-0.3,1.4l0,0c-0.2,0.1-0.4,0.2-0.5,0.2l0,0C140.4,80.5,140.1,80.3,139.9,80z"/>
</g>
<g>
	
		<linearGradient id="SVGID_10_" gradientUnits="userSpaceOnUse" x1="129.7714" y1="76.0695" x2="138.2509" y2="76.0695" gradientTransform="matrix(-1 0 0 -1 203.4894 198.9155)">
		<stop  offset="0" style="stop-color:#288FEB"/>
		<stop  offset="0.1404" style="stop-color:#289CD2"/>
		<stop  offset="0.4031" style="stop-color:#28B0AA"/>
		<stop  offset="0.6429" style="stop-color:#28BF8D"/>
		<stop  offset="0.8498" style="stop-color:#28C87B"/>
		<stop  offset="1" style="stop-color:#28CB75"/>
	</linearGradient>
	<path fill="url(#SVGID_10_)" d="M65.4,125.5c-0.3-0.5-0.1-1.1,0.3-1.4l0,0c0.5-0.3,1.1-0.2,1.4,0.3l0,0c0.3,0.5,0.2,1.1-0.3,1.4
		l0,0c-0.2,0.1-0.4,0.2-0.5,0.2l0,0C65.9,125.9,65.6,125.8,65.4,125.5z M68.6,123.4c-0.3-0.5-0.2-1.1,0.3-1.4l0,0
		c0.5-0.3,1.1-0.2,1.4,0.3l0,0c0.3,0.5,0.2,1.1-0.3,1.4l0,0c-0.2,0.1-0.4,0.2-0.5,0.2l0,0C69.1,123.8,68.8,123.7,68.6,123.4z
		 M71.9,121.3c-0.3-0.5-0.2-1.1,0.3-1.4l0,0c0.5-0.3,1.1-0.2,1.4,0.3l0,0c0.3,0.5,0.2,1.1-0.3,1.4l0,0c-0.2,0.1-0.4,0.2-0.5,0.2l0,0
		C72.4,121.8,72.1,121.6,71.9,121.3z"/>
</g>
<g>
	
		<linearGradient id="SVGID_11_" gradientUnits="userSpaceOnUse" x1="128.9288" y1="39.5809" x2="137.4875" y2="39.5809" gradientTransform="matrix(-1 0 0 -1 203.4894 198.9155)">
		<stop  offset="0" style="stop-color:#288FEB"/>
		<stop  offset="0.1404" style="stop-color:#289CD2"/>
		<stop  offset="0.4031" style="stop-color:#28B0AA"/>
		<stop  offset="0.6429" style="stop-color:#28BF8D"/>
		<stop  offset="0.8498" style="stop-color:#28C87B"/>
		<stop  offset="1" style="stop-color:#28CB75"/>
	</linearGradient>
	<path fill="url(#SVGID_11_)" d="M66.1,161.8c-0.3-0.5-0.1-1.1,0.3-1.4l0,0c0.5-0.3,1.1-0.1,1.4,0.3l0,0c0.3,0.5,0.1,1.1-0.3,1.4
		l0,0c-0.2,0.1-0.3,0.1-0.5,0.1l0,0C66.7,162.3,66.3,162.2,66.1,161.8z M69.4,159.8c-0.3-0.5-0.1-1.1,0.3-1.4l0,0
		c0.5-0.3,1.1-0.1,1.4,0.3l0,0c0.3,0.5,0.1,1.1-0.3,1.4l0,0c-0.2,0.1-0.3,0.1-0.5,0.1l0,0C69.9,160.3,69.6,160.2,69.4,159.8z
		 M72.7,157.9c-0.3-0.5-0.1-1.1,0.3-1.4l0,0c0.5-0.3,1.1-0.1,1.4,0.3l0,0c0.3,0.5,0.1,1.1-0.3,1.4l0,0c-0.2,0.1-0.3,0.2-0.5,0.2l0,0
		C73.2,158.3,72.9,158.2,72.7,157.9z"/>
</g>
<g>
	
		<linearGradient id="SVGID_12_" gradientUnits="userSpaceOnUse" x1="159.4004" y1="93.4148" x2="168.1584" y2="93.4148" gradientTransform="matrix(-1 0 0 -1 203.4894 198.9155)">
		<stop  offset="0" style="stop-color:#288FEB"/>
		<stop  offset="0.1404" style="stop-color:#289CD2"/>
		<stop  offset="0.4031" style="stop-color:#28B0AA"/>
		<stop  offset="0.6429" style="stop-color:#28BF8D"/>
		<stop  offset="0.8498" style="stop-color:#28C87B"/>
		<stop  offset="1" style="stop-color:#28CB75"/>
	</linearGradient>
	<path fill="url(#SVGID_12_)" d="M35.4,107.8c-0.3-0.5-0.1-1.1,0.4-1.4l0,0c0.5-0.3,1.1-0.1,1.4,0.4l0,0c0.3,0.5,0.1,1.1-0.4,1.4
		l0,0c-0.2,0.1-0.3,0.1-0.5,0.1l0,0C36,108.3,35.6,108.1,35.4,107.8z M38.8,106c-0.3-0.5-0.1-1.1,0.4-1.4l0,0
		c0.5-0.3,1.1-0.1,1.4,0.4l0,0c0.3,0.5,0.1,1.1-0.4,1.3l0,0c-0.1,0.1-0.3,0.1-0.5,0.1l0,0C39.4,106.5,39,106.3,38.8,106z
		 M42.2,104.1c-0.3-0.5-0.1-1.1,0.4-1.4l0,0c0.5-0.3,1.1-0.1,1.4,0.4l0,0c0.3,0.5,0.1,1.1-0.4,1.3l0,0c-0.2,0.1-0.3,0.1-0.5,0.1l0,0
		C42.7,104.7,42.4,104.5,42.2,104.1z"/>
</g>
<g>
	<linearGradient id="SVGID_13_" gradientUnits="userSpaceOnUse" x1="125.8294" y1="39.0719" x2="140.8445" y2="30.4029">
		<stop  offset="0" style="stop-color:#288FEB"/>
		<stop  offset="0.1404" style="stop-color:#289CD2"/>
		<stop  offset="0.4031" style="stop-color:#28B0AA"/>
		<stop  offset="0.6429" style="stop-color:#28BF8D"/>
		<stop  offset="0.8498" style="stop-color:#28C87B"/>
		<stop  offset="1" style="stop-color:#28CB75"/>
	</linearGradient>
	<path fill="url(#SVGID_13_)" d="M126.1,39.5c-0.3-0.5-0.2-1.1,0.3-1.4l0,0c0.5-0.3,1.1-0.2,1.4,0.3l0,0c0.3,0.5,0.2,1.1-0.3,1.4
		l0,0c-0.2,0.1-0.4,0.2-0.5,0.2l0,0C126.6,40,126.3,39.8,126.1,39.5z M129.3,37.4c-0.3-0.5-0.2-1.1,0.3-1.4l0,0
		c0.5-0.3,1.1-0.2,1.4,0.3l0,0c0.3,0.5,0.2,1.1-0.3,1.4l0,0c-0.2,0.1-0.4,0.2-0.5,0.2l0,0C129.8,37.8,129.5,37.7,129.3,37.4z
		 M132.5,35.3c-0.3-0.5-0.2-1.1,0.3-1.4l0,0c0.5-0.3,1.1-0.2,1.4,0.3l0,0c0.3,0.5,0.2,1.1-0.3,1.4l0,0c-0.2,0.1-0.4,0.2-0.5,0.2l0,0
		C133,35.7,132.7,35.6,132.5,35.3z M135.7,33.2c-0.3-0.5-0.2-1.1,0.3-1.4l0,0c0.5-0.3,1.1-0.2,1.4,0.3l0,0c0.3,0.5,0.2,1.1-0.3,1.4
		l0,0c-0.2,0.1-0.4,0.2-0.6,0.2l0,0C136.2,33.6,135.9,33.5,135.7,33.2z M138.9,31c-0.3-0.5-0.2-1.1,0.3-1.4l0,0
		c0.5-0.3,1.1-0.2,1.4,0.3l0,0c0.3,0.5,0.2,1.1-0.3,1.4l0,0c-0.2,0.1-0.4,0.2-0.5,0.2l0,0C139.4,31.5,139.1,31.3,138.9,31z"/>
</g>
<g>
	<linearGradient id="SVGID_14_" gradientUnits="userSpaceOnUse" x1="167.8271" y1="112.0675" x2="182.8418" y2="103.3987">
		<stop  offset="0" style="stop-color:#288FEB"/>
		<stop  offset="0.1404" style="stop-color:#289CD2"/>
		<stop  offset="0.4031" style="stop-color:#28B0AA"/>
		<stop  offset="0.6429" style="stop-color:#28BF8D"/>
		<stop  offset="0.8498" style="stop-color:#28C87B"/>
		<stop  offset="1" style="stop-color:#28CB75"/>
	</linearGradient>
	<path fill="url(#SVGID_14_)" d="M168.1,112.5c-0.3-0.5-0.2-1.1,0.3-1.4l0,0c0.5-0.3,1.1-0.2,1.4,0.3l0,0c0.3,0.5,0.2,1.1-0.3,1.4
		l0,0c-0.2,0.1-0.4,0.2-0.5,0.2l0,0C168.6,113,168.3,112.8,168.1,112.5z M171.3,110.4c-0.3-0.5-0.2-1.1,0.3-1.4l0,0
		c0.5-0.3,1.1-0.2,1.4,0.3l0,0c0.3,0.5,0.2,1.1-0.3,1.4l0,0c-0.2,0.1-0.4,0.2-0.6,0.2l0,0C171.8,110.8,171.5,110.7,171.3,110.4z
		 M174.5,108.3c-0.3-0.5-0.2-1.1,0.3-1.4l0,0c0.5-0.3,1.1-0.2,1.4,0.3l0,0c0.3,0.5,0.2,1.1-0.3,1.4l0,0c-0.2,0.1-0.4,0.2-0.5,0.2
		l0,0C175,108.7,174.7,108.6,174.5,108.3z M177.7,106.2c-0.3-0.5-0.2-1.1,0.3-1.4l0,0c0.5-0.3,1.1-0.2,1.4,0.3l0,0
		c0.3,0.5,0.2,1.1-0.3,1.4l0,0c-0.2,0.1-0.4,0.2-0.5,0.2l0,0C178.2,106.6,177.9,106.5,177.7,106.2z M180.9,104
		c-0.3-0.5-0.2-1.1,0.3-1.4l0,0c0.5-0.3,1.1-0.2,1.4,0.3l0,0c0.3,0.5,0.2,1.1-0.3,1.4l0,0c-0.2,0.1-0.4,0.2-0.5,0.2l0,0
		C181.4,104.5,181.1,104.3,180.9,104z"/>
</g>
</svg>
