<?xml version="1.0" encoding="utf-8"?>
<!-- Generator: Adobe Illustrator 17.1.0, SVG Export Plug-In . SVG Version: 6.00 Build 0)  -->
<!DOCTYPE svg PUBLIC "-//W3C//DTD SVG 1.1//EN" "http://www.w3.org/Graphics/SVG/1.1/DTD/svg11.dtd">
<svg version="1.1" id="Layer_1" xmlns="http://www.w3.org/2000/svg" xmlns:xlink="http://www.w3.org/1999/xlink" x="0px" y="0px"
	 viewBox="0 0 174 193.5" enable-background="new 0 0 174 193.5" xml:space="preserve">
<g>
	<path fill="#28CB75" d="M43,33L43,33L43,33c-0.2-0.4,0-0.8,0.4-1l0,0c0.4-0.2,0.8,0,1,0.4v0c0.2,0.4,0,0.8-0.4,1l0,0
		c-0.1,0-0.2,0.1-0.3,0.1l0,0C43.4,33.5,43.2,33.3,43,33z M44.2,29.8c-0.3-0.3-0.3-0.8,0-1.1l0,0c0.3-0.3,0.8-0.3,1.1,0l0,0
		c0.3,0.3,0.3,0.8,0,1.1l0,0c-0.1,0.1-0.3,0.2-0.5,0.2l0,0C44.6,30.1,44.4,30,44.2,29.8z M47.2,27.4c-0.2-0.4-0.1-0.8,0.3-1l0,0
		c0.4-0.2,0.8-0.1,1,0.3l0,0c0.2,0.4,0.1,0.8-0.3,1v0c-0.1,0.1-0.2,0.1-0.4,0.1l0,0C47.6,27.8,47.4,27.7,47.2,27.4z M50.7,25.7
		c-0.2-0.4,0-0.8,0.4-1l0,0c0.4-0.2,0.8,0,1,0.4l0,0c0.2,0.4,0,0.8-0.4,1l0,0c-0.1,0-0.2,0-0.3,0l0,0C51.1,26.2,50.8,26,50.7,25.7z
		 M54.2,24.3c-0.1-0.4,0.1-0.8,0.5-1l0,0c0.4-0.1,0.8,0.1,0.9,0.5l0,0c0.1,0.4-0.1,0.8-0.5,1l0,0c-0.1,0-0.2,0-0.2,0l0,0
		C54.6,24.8,54.3,24.6,54.2,24.3z M57.9,23.1c-0.1-0.4,0.1-0.8,0.5-0.9l0,0c0.4-0.1,0.8,0.1,0.9,0.5l0,0c0.1,0.4-0.1,0.8-0.5,0.9
		l0,0c-0.1,0-0.1,0-0.2,0l0,0C58.3,23.7,58,23.5,57.9,23.1z M61.6,22.1c-0.1-0.4,0.1-0.8,0.5-0.9l0,0c0.4-0.1,0.8,0.1,0.9,0.5l0,0
		c0.1,0.4-0.1,0.8-0.5,0.9l0,0c-0.1,0-0.1,0-0.2,0l0,0C62,22.7,61.7,22.4,61.6,22.1z M65.3,21.2c-0.1-0.4,0.2-0.8,0.6-0.9l0,0
		c0.4-0.1,0.8,0.2,0.9,0.6l0,0c0.1,0.4-0.2,0.8-0.6,0.9l0,0c-0.1,0-0.1,0-0.2,0l0,0C65.7,21.8,65.4,21.5,65.3,21.2z M69.1,20.4
		c-0.1-0.4,0.2-0.8,0.6-0.9l0,0c0.4-0.1,0.8,0.2,0.9,0.6l0,0c0.1,0.4-0.2,0.8-0.6,0.9l0,0c0,0-0.1,0-0.1,0l0,0
		C69.5,21,69.2,20.8,69.1,20.4z M72.9,19.7c-0.1-0.4,0.2-0.8,0.6-0.9l0,0l0,0l0,0c0.4-0.1,0.8,0.2,0.9,0.6l0,0
		c0.1,0.4-0.2,0.8-0.6,0.9l0,0c0,0-0.1,0-0.1,0l0,0C73.3,20.4,72.9,20.1,72.9,19.7z M76.7,19.1c-0.1-0.4,0.2-0.8,0.6-0.8l0,0
		c0.4-0.1,0.8,0.2,0.8,0.6l0,0c0.1,0.4-0.2,0.8-0.6,0.8l0,0c0,0-0.1,0-0.1,0l0,0C77.1,19.8,76.7,19.5,76.7,19.1z M80.5,18.7
		c0-0.4,0.3-0.8,0.7-0.8l0,0c0.4,0,0.8,0.3,0.8,0.7l0,0c0,0.4-0.3,0.8-0.7,0.8l0,0c0,0,0,0-0.1,0l0,0C80.9,19.4,80.5,19.1,80.5,18.7
		z M84.3,18.4c0-0.4,0.3-0.8,0.7-0.8l0,0c0.4,0,0.8,0.3,0.8,0.7l0,0c0,0.4-0.3,0.8-0.7,0.8l0,0c0,0,0,0,0,0l0,0
		C84.7,19.1,84.4,18.8,84.3,18.4z"/>
</g>
<g>
	<path fill="#28CB75" d="M18.4,63.9c-0.1-0.4,0.2-0.8,0.6-0.9l0,0c0.4-0.1,0.8,0.2,0.9,0.6l0,0c0.1,0.4-0.1,0.8-0.6,0.9l0,0
		c0,0-0.1,0-0.2,0l0,0C18.8,64.5,18.5,64.3,18.4,63.9z M19.8,60.8c-0.3-0.3-0.3-0.8-0.1-1.1l0,0c0.3-0.3,0.8-0.3,1.1-0.1l0,0
		c0.3,0.3,0.3,0.8,0.1,1.1l0,0c-0.1,0.2-0.4,0.3-0.6,0.3l0,0C20.2,61,20,61,19.8,60.8z M22.7,58.2c-0.2-0.3-0.1-0.8,0.2-1l0,0
		c0.4-0.2,0.8-0.1,1,0.2l0,0c0.2,0.4,0.1,0.8-0.2,1l0,0c-0.1,0.1-0.3,0.1-0.4,0.1l0,0C23,58.6,22.8,58.5,22.7,58.2z M26,56.3
		c-0.2-0.4,0-0.8,0.3-1l0,0c0.4-0.2,0.8,0,1,0.3l0,0c0.2,0.4,0,0.8-0.3,1l0,0c-0.1,0-0.2,0.1-0.3,0.1l0,0
		C26.4,56.7,26.1,56.5,26,56.3z M29.4,54.7c-0.2-0.4,0-0.8,0.4-1l0,0c0.4-0.1,0.8,0,1,0.4l0,0c0.1,0.4,0,0.8-0.4,1l0,0
		c-0.1,0-0.2,0.1-0.3,0.1l0,0C29.8,55.1,29.6,54.9,29.4,54.7z M33,53.3c-0.1-0.4,0.1-0.8,0.5-1l0,0l0,0l0,0c0.4-0.1,0.8,0.1,1,0.5
		l0,0c0.1,0.4-0.1,0.8-0.5,1l0,0c-0.1,0-0.2,0-0.3,0l0,0C33.4,53.8,33.1,53.6,33,53.3z M36.7,52c-0.1-0.4,0.1-0.8,0.5-0.9l0,0
		c0.4-0.1,0.8,0.1,0.9,0.5l0,0c0.1,0.4-0.1,0.8-0.5,0.9l0,0c-0.1,0-0.1,0-0.2,0l0,0C37.1,52.5,36.8,52.3,36.7,52z M40.3,50.9
		c-0.1-0.4,0.1-0.8,0.5-0.9l0,0l0,0l0,0c0.4-0.1,0.8,0.1,0.9,0.5l0,0c0.1,0.4-0.1,0.8-0.5,0.9l0,0c-0.1,0-0.1,0-0.2,0l0,0
		C40.7,51.4,40.4,51.2,40.3,50.9z M44,49.9c-0.1-0.4,0.1-0.8,0.5-0.9l0,0c0.4-0.1,0.8,0.1,0.9,0.5l0,0c0.1,0.4-0.1,0.8-0.5,0.9l0,0
		c-0.1,0-0.1,0-0.2,0l0,0C44.4,50.4,44.1,50.2,44,49.9z M47.8,48.9c-0.1-0.4,0.2-0.8,0.6-0.9l0,0c0.4-0.1,0.8,0.2,0.9,0.6l0,0
		c0.1,0.4-0.2,0.8-0.6,0.9l0,0c-0.1,0-0.1,0-0.2,0l0,0C48.2,49.5,47.9,49.3,47.8,48.9z M51.5,48.1c-0.1-0.4,0.2-0.8,0.6-0.9l0,0
		c0.4-0.1,0.8,0.2,0.9,0.6l0,0c0.1,0.4-0.2,0.8-0.6,0.9l0,0c-0.1,0-0.1,0-0.1,0l0,0C51.9,48.7,51.6,48.5,51.5,48.1z M55.3,47.4
		c-0.1-0.4,0.2-0.8,0.6-0.9l0,0c0,0,0,0,0,0l0,0c0.4-0.1,0.8,0.2,0.9,0.6l0,0c0.1,0.4-0.2,0.8-0.6,0.9l0,0c0,0-0.1,0-0.1,0l0,0
		C55.7,48,55.4,47.7,55.3,47.4z M59.1,46.7c-0.1-0.4,0.2-0.8,0.6-0.9l0,0c0.4-0.1,0.8,0.2,0.9,0.6l0,0c0.1,0.4-0.2,0.8-0.6,0.9v0
		c0,0-0.1,0-0.1,0l0,0C59.5,47.3,59.1,47,59.1,46.7z M62.9,46.1c-0.1-0.4,0.2-0.8,0.6-0.8l0,0c0,0,0,0,0,0l0,0
		c0.4,0,0.8,0.2,0.8,0.6l0,0c0.1,0.4-0.2,0.8-0.6,0.9l0,0c0,0-0.1,0-0.1,0l0,0C63.2,46.7,62.9,46.4,62.9,46.1z M66.7,45.5
		c-0.1-0.4,0.2-0.8,0.6-0.8l0,0c0.4-0.1,0.8,0.2,0.8,0.7l0,0c0.1,0.4-0.2,0.8-0.6,0.8l0,0c0,0-0.1,0-0.1,0l0,0
		C67.1,46.2,66.7,45.9,66.7,45.5z M70.5,45.1c0-0.4,0.3-0.8,0.7-0.8l0,0c0.4,0,0.8,0.3,0.8,0.7l0,0c0,0.4-0.3,0.8-0.7,0.8l0,0
		c0,0,0,0-0.1,0l0,0C70.9,45.8,70.5,45.5,70.5,45.1z"/>
</g>
<g>
	<path fill="#28CB75" d="M0.7,110.2c-0.1-0.4,0.1-0.8,0.5-1l0,0c0.4-0.1,0.8,0.1,1,0.5l0,0c0.1,0.4-0.1,0.8-0.5,0.9l0,0
		c-0.1,0-0.2,0-0.2,0l0,0C1.1,110.7,0.8,110.5,0.7,110.2z M1.3,107c-0.4-0.2-0.5-0.6-0.3-1l0,0c0,0,0,0,0,0l0,0
		c0.2-0.4,0.6-0.5,1-0.4l0,0c0.4,0.2,0.5,0.6,0.4,1l0,0c-0.1,0.3-0.4,0.4-0.7,0.4l0,0C1.6,107,1.4,107,1.3,107z M3.5,103.8
		c-0.3-0.3-0.3-0.8,0-1.1l0,0c0,0,0,0,0,0l0,0c0.3-0.3,0.8-0.3,1,0l0,0c0.3,0.3,0.3,0.8,0,1.1l0,0C4.4,104,4.2,104,4,104l0,0
		C3.8,104,3.6,103.9,3.5,103.8z M6.4,101.3c-0.2-0.3-0.1-0.8,0.2-1l0,0c0.4-0.2,0.8-0.1,1,0.2l0,0c0.2,0.3,0.1,0.8-0.2,1l0,0
		c-0.1,0.1-0.3,0.1-0.4,0.1l0,0C6.8,101.7,6.6,101.6,6.4,101.3z M9.7,99.3c-0.2-0.4,0-0.8,0.3-1l0,0c0.4-0.2,0.8,0,1,0.3l0,0
		c0.2,0.4,0,0.8-0.3,1l0,0c-0.1,0.1-0.2,0.1-0.4,0.1l0,0C10.1,99.7,9.8,99.6,9.7,99.3z M13.1,97.6c-0.2-0.4,0-0.8,0.4-1l0,0
		c0.4-0.2,0.8,0,1,0.4l0,0c0.2,0.4,0,0.8-0.4,1l0,0c-0.1,0-0.2,0.1-0.3,0.1l0,0C13.5,98.1,13.3,97.9,13.1,97.6z M16.7,96.1
		c-0.1-0.4,0.1-0.8,0.4-1l0,0c0.4-0.1,0.8,0,1,0.4l0,0c0.2,0.4,0,0.8-0.4,1l0,0c-0.1,0-0.2,0.1-0.3,0.1l0,0
		C17.1,96.6,16.8,96.4,16.7,96.1z M20.3,94.8c-0.1-0.4,0.1-0.8,0.5-1l0,0c0.4-0.1,0.8,0.1,1,0.5l0,0c0.1,0.4-0.1,0.8-0.5,1l0,0
		c-0.1,0-0.2,0-0.2,0l0,0C20.7,95.3,20.4,95.1,20.3,94.8z M23.9,93.6c-0.1-0.4,0.1-0.8,0.5-0.9l0,0c0,0,0,0,0,0l0,0
		c0.4-0.1,0.8,0.1,0.9,0.5l0,0c0.1,0.4-0.1,0.8-0.5,0.9l0,0c-0.1,0-0.1,0-0.2,0l0,0C24.3,94.1,24,93.9,23.9,93.6z M27.6,92.5
		c-0.1-0.4,0.1-0.8,0.5-0.9l0,0c0.4-0.1,0.8,0.1,0.9,0.5l0,0c0.1,0.4-0.1,0.8-0.5,0.9l0,0c-0.1,0-0.1,0-0.2,0l0,0
		C28,93.1,27.7,92.9,27.6,92.5z M31.3,91.6c-0.1-0.4,0.2-0.8,0.6-0.9l0,0l0,0l0,0c0.4-0.1,0.8,0.1,0.9,0.6l0,0
		c0.1,0.4-0.2,0.8-0.6,0.9l0,0c-0.1,0-0.1,0-0.2,0l0,0C31.7,92.1,31.4,91.9,31.3,91.6z M35.1,90.7c-0.1-0.4,0.2-0.8,0.6-0.9l0,0
		c0.4-0.1,0.8,0.2,0.9,0.6l0,0c0.1,0.4-0.2,0.8-0.6,0.9l0,0c-0.1,0-0.1,0-0.2,0l0,0C35.5,91.3,35.2,91,35.1,90.7z M38.8,89.9
		c-0.1-0.4,0.2-0.8,0.6-0.9l0,0c0.4-0.1,0.8,0.2,0.9,0.6l0,0c0.1,0.4-0.2,0.8-0.6,0.9l0,0c-0.1,0-0.1,0-0.2,0l0,0
		C39.2,90.5,38.9,90.2,38.8,89.9z M42.6,89.1c-0.1-0.4,0.2-0.8,0.6-0.9l0,0c0.4-0.1,0.8,0.2,0.9,0.6l0,0c0.1,0.4-0.2,0.8-0.6,0.9
		l0,0c0,0-0.1,0-0.1,0l0,0C43,89.8,42.7,89.5,42.6,89.1z M46.4,88.5c-0.1-0.4,0.2-0.8,0.6-0.9l0,0c0.4-0.1,0.8,0.2,0.9,0.6l0,0
		c0.1,0.4-0.2,0.8-0.6,0.9l0,0c0,0-0.1,0-0.1,0l0,0C46.8,89.1,46.5,88.9,46.4,88.5z M50.2,87.9c-0.1-0.4,0.2-0.8,0.6-0.8l0,0
		c0.4-0.1,0.8,0.2,0.9,0.6l0,0c0.1,0.4-0.2,0.8-0.6,0.8l0,0c0,0-0.1,0-0.1,0l0,0C50.6,88.6,50.3,88.3,50.2,87.9z M54,87.4
		c-0.1-0.4,0.2-0.8,0.6-0.8l0,0l0,0l0,0c0.4,0,0.8,0.2,0.8,0.6l0,0c0.1,0.4-0.2,0.8-0.7,0.8v0c0,0-0.1,0-0.1,0l0,0
		C54.4,88.1,54.1,87.8,54,87.4z M57.8,87c0-0.4,0.2-0.8,0.7-0.8l0,0c0.4,0,0.8,0.3,0.8,0.7l0,0c0,0.4-0.3,0.8-0.7,0.8v0
		c0,0,0,0-0.1,0l0,0C58.2,87.6,57.9,87.3,57.8,87z M61.7,86.6c0-0.4,0.3-0.8,0.7-0.8l0,0c0.4,0,0.8,0.3,0.8,0.7l0,0
		c0,0.4-0.3,0.8-0.7,0.8l0,0c0,0,0,0-0.1,0l0,0C62,87.3,61.7,87,61.7,86.6z M65.5,86.3c0-0.4,0.3-0.8,0.7-0.8l0,0
		c0.4,0,0.8,0.3,0.8,0.7l0,0c0,0.4-0.3,0.8-0.7,0.8l0,0c0,0,0,0-0.1,0l0,0C65.8,87,65.5,86.7,65.5,86.3z M69.3,86
		c0-0.4,0.3-0.8,0.7-0.8l0,0c0.4,0,0.8,0.3,0.8,0.7l0,0c0,0.4-0.3,0.8-0.7,0.8l0,0c0,0,0,0,0,0l0,0C69.7,86.7,69.3,86.4,69.3,86z
		 M73.2,85.8c0-0.4,0.3-0.8,0.7-0.8l0,0c0.4,0,0.8,0.3,0.8,0.7l0,0c0,0.4-0.3,0.8-0.7,0.8l0,0c0,0,0,0,0,0l0,0
		C73.5,86.6,73.2,86.2,73.2,85.8z"/>
</g>
<g>
	<path fill="#28CB75" d="M6.2,155.6C6.2,155.6,6.2,155.6,6.2,155.6L6.2,155.6c-0.1-0.4,0.1-0.8,0.4-1l0,0c0.4-0.1,0.8,0.1,1,0.4l0,0
		c0.1,0.4,0,0.8-0.4,1l0,0c-0.1,0-0.2,0-0.3,0l0,0C6.6,156.1,6.3,155.9,6.2,155.6z M6.4,152.3c-0.4-0.1-0.7-0.5-0.6-0.9l0,0
		c0.1-0.4,0.5-0.7,0.9-0.6l0,0c0.4,0.1,0.7,0.5,0.6,0.9l0,0c-0.1,0.4-0.4,0.6-0.7,0.6l0,0C6.5,152.3,6.5,152.3,6.4,152.3z
		 M7.6,148.7c-0.3-0.2-0.4-0.7-0.2-1l0,0c0.2-0.3,0.7-0.4,1-0.2l0,0c0.4,0.2,0.4,0.7,0.2,1l0,0c-0.1,0.2-0.4,0.3-0.6,0.3l0,0
		C7.9,148.8,7.7,148.8,7.6,148.7z M10,145.6c-0.3-0.3-0.3-0.8,0-1.1l0,0c0.3-0.3,0.8-0.3,1.1,0l0,0c0.3,0.3,0.3,0.8,0,1.1l0,0
		c-0.1,0.1-0.3,0.2-0.5,0.2l0,0C10.3,145.9,10.1,145.8,10,145.6z M12.9,143.2c-0.2-0.3-0.2-0.8,0.2-1l0,0c0.3-0.2,0.8-0.2,1,0.2l0,0
		c0.2,0.3,0.2,0.8-0.2,1l0,0c-0.1,0.1-0.3,0.1-0.4,0.1l0,0C13.3,143.5,13,143.4,12.9,143.2z M16.1,141.1c-0.2-0.4-0.1-0.8,0.3-1l0,0
		c0.4-0.2,0.8-0.1,1,0.3l0,0c0.2,0.4,0.1,0.8-0.3,1l0,0c-0.1,0.1-0.2,0.1-0.4,0.1l0,0C16.5,141.5,16.2,141.3,16.1,141.1z
		 M19.5,139.3c-0.2-0.4,0-0.8,0.4-1l0,0l0,0l0,0c0.4-0.2,0.8,0,1,0.4l0,0c0.2,0.4,0,0.8-0.4,1l0,0c-0.1,0.1-0.2,0.1-0.3,0.1l0,0
		C19.9,139.7,19.6,139.6,19.5,139.3z M23,137.7c-0.1-0.4,0-0.8,0.4-1l0,0c0.4-0.2,0.8,0,1,0.4l0,0c0.2,0.4,0,0.8-0.4,1l0,0
		c-0.1,0-0.2,0-0.3,0l0,0C23.4,138.2,23.1,138,23,137.7z M26.6,136.3c-0.1-0.4,0.1-0.8,0.5-1l0,0l0,0l0,0c0.4-0.1,0.8,0.1,1,0.5l0,0
		c0.1,0.4-0.1,0.8-0.5,1l0,0c-0.1,0-0.2,0-0.2,0l0,0C27,136.8,26.7,136.6,26.6,136.3z M30.2,135.1c-0.1-0.4,0.1-0.8,0.5-0.9l0,0l0,0
		l0,0c0.4-0.1,0.8,0.1,0.9,0.5l0,0c0.1,0.4-0.1,0.8-0.5,0.9l0,0c-0.1,0-0.1,0-0.2,0l0,0C30.6,135.7,30.3,135.5,30.2,135.1z
		 M33.9,134c-0.1-0.4,0.1-0.8,0.5-0.9l0,0c0.4-0.1,0.8,0.1,0.9,0.5l0,0c0.1,0.4-0.1,0.8-0.5,0.9l0,0c-0.1,0-0.1,0-0.2,0l0,0
		C34.3,134.6,34,134.4,33.9,134z M37.6,133.1c-0.1-0.4,0.2-0.8,0.6-0.9l0,0c0.4-0.1,0.8,0.2,0.9,0.6l0,0c0.1,0.4-0.2,0.8-0.6,0.9h0
		c0,0-0.1,0-0.2,0l0,0C38,133.7,37.7,133.4,37.6,133.1z M41.4,132.2c-0.1-0.4,0.2-0.8,0.6-0.9l0,0c0.4-0.1,0.8,0.2,0.9,0.6l0,0
		c0.1,0.4-0.2,0.8-0.6,0.9l0,0c-0.1,0-0.1,0-0.2,0l0,0C41.8,132.8,41.5,132.6,41.4,132.2z M45.2,131.5c-0.1-0.4,0.2-0.8,0.6-0.9l0,0
		c0.4-0.1,0.8,0.2,0.9,0.6l0,0c0.1,0.4-0.2,0.8-0.6,0.9l0,0c0,0-0.1,0-0.1,0l0,0C45.5,132.1,45.2,131.9,45.2,131.5z M49,130.9
		c-0.1-0.4,0.2-0.8,0.6-0.9l0,0c0.4-0.1,0.8,0.2,0.9,0.6l0,0c0.1,0.4-0.2,0.8-0.6,0.9l0,0c0,0-0.1,0-0.1,0l0,0
		C49.3,131.5,49,131.2,49,130.9z M52.8,130.3c0-0.4,0.2-0.8,0.6-0.8l0,0l0,0l0,0c0.4,0,0.8,0.2,0.8,0.7l0,0c0,0.4-0.2,0.8-0.7,0.8
		l0,0c0,0-0.1,0-0.1,0l0,0C53.1,131,52.8,130.7,52.8,130.3z M56.6,129.8c0-0.4,0.2-0.8,0.7-0.8l0,0c0.4,0,0.8,0.3,0.8,0.7l0,0
		c0,0.4-0.3,0.8-0.7,0.8l0,0c0,0-0.1,0-0.1,0l0,0C56.9,130.5,56.6,130.2,56.6,129.8z M60.4,129.5c0-0.4,0.3-0.8,0.7-0.8l0,0l0,0l0,0
		c0.4,0,0.8,0.3,0.8,0.7l0,0c0,0.4-0.3,0.8-0.7,0.8l0,0c0,0,0,0-0.1,0l0,0C60.8,130.1,60.4,129.8,60.4,129.5z M64.2,129.1
		c0-0.4,0.3-0.8,0.7-0.8l0,0c0.4,0,0.8,0.3,0.8,0.7l0,0c0,0.4-0.3,0.8-0.7,0.8l0,0c0,0,0,0,0,0l0,0
		C64.6,129.8,64.3,129.5,64.2,129.1z M68.1,128.9c0-0.4,0.3-0.8,0.7-0.8l0,0c0.4,0,0.8,0.3,0.8,0.7l0,0c0,0.4-0.3,0.8-0.7,0.8l0,0
		c0,0,0,0,0,0l0,0C68.4,129.6,68.1,129.3,68.1,128.9z M88,129.6c-0.4,0-0.7-0.4-0.7-0.8l0,0c0-0.4,0.4-0.7,0.8-0.7l0,0
		c0.4,0,0.7,0.4,0.7,0.8l0,0C88.8,129.3,88.4,129.6,88,129.6L88,129.6C88,129.6,88,129.6,88,129.6z M71.9,128.8
		c0-0.4,0.3-0.8,0.7-0.8l0,0l0,0l0,0c0.4,0,0.8,0.3,0.8,0.7l0,0c0,0.4-0.3,0.8-0.7,0.8h0c0,0,0,0,0,0l0,0
		C72.2,129.5,71.9,129.2,71.9,128.8z M84.2,129.5c-0.4,0-0.7-0.4-0.7-0.8l0,0c0-0.4,0.4-0.7,0.8-0.7l0,0c0.4,0,0.8,0.3,0.7,0.8l0,0
		C84.9,129.1,84.6,129.5,84.2,129.5L84.2,129.5C84.2,129.5,84.2,129.5,84.2,129.5z M75.7,128.7c0-0.4,0.3-0.8,0.8-0.8l0,0
		c0.4,0,0.8,0.3,0.8,0.8l0,0c0,0.4-0.3,0.8-0.7,0.8l0,0l0,0l0,0C76.1,129.4,75.8,129.1,75.7,128.7z M80.3,129.4
		c-0.4,0-0.8-0.3-0.7-0.8l0,0c0-0.4,0.3-0.8,0.8-0.7l0,0c0.4,0,0.8,0.3,0.8,0.8l0,0C81.1,129.1,80.8,129.4,80.3,129.4L80.3,129.4
		L80.3,129.4z"/>
</g>
<g>
	<path fill="#288FEB" d="M164.2,144.6c-0.3-0.3-0.2-0.8,0.1-1l0,0c0.3-0.3,0.8-0.2,1.1,0.1l0,0l0,0l0,0c0.3,0.3,0.2,0.8-0.1,1.1l0,0
		c-0.1,0.1-0.3,0.2-0.5,0.2l0,0C164.6,144.9,164.4,144.8,164.2,144.6z M161.5,142.4c-0.4-0.2-0.5-0.7-0.2-1l0,0
		c0.2-0.4,0.7-0.5,1-0.2l0,0c0.3,0.2,0.5,0.7,0.2,1l0,0c-0.2,0.2-0.4,0.3-0.6,0.3l0,0C161.7,142.5,161.6,142.4,161.5,142.4z
		 M158.1,140.7c-0.4-0.2-0.6-0.6-0.4-1l0,0c0.1-0.4,0.6-0.6,1-0.4l0,0c0.4,0.2,0.6,0.6,0.4,1l0,0c-0.1,0.3-0.4,0.5-0.7,0.5l0,0
		C158.3,140.7,158.2,140.7,158.1,140.7z M154.6,139.5L154.6,139.5c-0.4-0.1-0.6-0.5-0.5-0.9l0,0c0.1-0.4,0.5-0.6,0.9-0.5l0,0l0,0
		l0,0c0.4,0.1,0.6,0.5,0.5,0.9l0,0c-0.1,0.3-0.4,0.5-0.7,0.5l0,0C154.7,139.5,154.7,139.5,154.6,139.5z M150.9,138.5
		c-0.4-0.1-0.7-0.5-0.6-0.9l0,0c0.1-0.4,0.5-0.7,0.9-0.6l0,0l0,0l0,0c0.4,0.1,0.7,0.5,0.6,0.9l0,0c-0.1,0.3-0.4,0.6-0.7,0.6l0,0
		C151,138.6,151,138.5,150.9,138.5z M85.2,137.5c0-0.4,0.3-0.8,0.7-0.8l0,0c0.4,0,0.8,0.3,0.8,0.7l0,0c0,0.4-0.3,0.8-0.7,0.8v0
		c0,0,0,0-0.1,0l0,0C85.6,138.2,85.2,137.9,85.2,137.5z M89,137.2c0-0.4,0.3-0.8,0.7-0.8l0,0l0,0l0,0c0.4,0,0.8,0.3,0.8,0.7l0,0
		c0,0.4-0.3,0.8-0.7,0.8l0,0c0,0,0,0-0.1,0l0,0C89.4,137.9,89.1,137.6,89,137.2z M147.2,137.9L147.2,137.9c-0.4-0.1-0.7-0.4-0.6-0.9
		l0,0c0.1-0.4,0.4-0.7,0.9-0.6l0,0l0,0l0,0c0.4,0.1,0.7,0.4,0.6,0.8l0,0c-0.1,0.4-0.4,0.6-0.7,0.6l0,0
		C147.3,137.9,147.2,137.9,147.2,137.9z M92.9,136.9c0-0.4,0.3-0.8,0.7-0.8l0,0c0.4,0,0.8,0.3,0.8,0.7l0,0c0,0.4-0.3,0.8-0.7,0.8
		l0,0c0,0,0,0,0,0l0,0C93.2,137.6,92.9,137.3,92.9,136.9z M96.7,136.7c0-0.4,0.3-0.8,0.7-0.8l0,0c0.4,0,0.8,0.3,0.8,0.7l0,0
		c0,0.4-0.3,0.8-0.7,0.8l0,0c0,0,0,0,0,0l0,0C97.1,137.4,96.7,137.1,96.7,136.7z M143.4,137.3L143.4,137.3c-0.4,0-0.7-0.4-0.7-0.8
		l0,0c0-0.4,0.4-0.7,0.8-0.7l0,0c0.4,0,0.7,0.4,0.7,0.8l0,0C144.2,137.1,143.9,137.3,143.4,137.3L143.4,137.3
		C143.5,137.3,143.4,137.3,143.4,137.3z M100.5,136.4c0-0.4,0.3-0.8,0.7-0.8l0,0c0.4,0,0.8,0.3,0.8,0.7l0,0c0,0.4-0.3,0.8-0.7,0.8
		l0,0c0,0,0,0,0,0l0,0C100.9,137.1,100.6,136.8,100.5,136.4z M139.6,137c-0.4,0-0.7-0.4-0.7-0.8l0,0c0-0.4,0.4-0.7,0.8-0.7l0,0
		c0.4,0,0.7,0.4,0.7,0.8l0,0C140.4,136.7,140.1,137,139.6,137L139.6,137C139.7,137,139.6,137,139.6,137z M104.4,136.2
		c0-0.4,0.3-0.8,0.7-0.8l0,0c0.4,0,0.8,0.3,0.8,0.7l0,0c0,0.4-0.3,0.8-0.7,0.8l0,0c0,0,0,0,0,0l0,0
		C104.7,136.9,104.4,136.6,104.4,136.2z M108.2,136c0-0.4,0.3-0.8,0.7-0.8l0,0c0.4,0,0.8,0.3,0.8,0.7l0,0c0,0.4-0.3,0.8-0.7,0.8l0,0
		c0,0,0,0,0,0l0,0C108.6,136.7,108.2,136.4,108.2,136z M135.8,136.7c-0.4,0-0.7-0.4-0.7-0.8l0,0c0-0.4,0.4-0.7,0.8-0.7l0,0
		c0.4,0,0.7,0.4,0.7,0.8l0,0C136.6,136.4,136.2,136.7,135.8,136.7L135.8,136.7C135.8,136.7,135.8,136.7,135.8,136.7z M112.8,136.6
		c-0.4,0-0.8-0.3-0.8-0.7l0,0c0-0.4,0.3-0.8,0.7-0.8l0,0c0.4,0,0.8,0.3,0.8,0.7l0,0C113.6,136.2,113.2,136.6,112.8,136.6
		L112.8,136.6z M132,136.5L132,136.5c-0.4,0-0.7-0.4-0.7-0.8l0,0c0-0.4,0.4-0.7,0.8-0.7l0,0l0,0l0,0c0.4,0,0.7,0.4,0.7,0.8l0,0
		C132.7,136.2,132.4,136.5,132,136.5L132,136.5C132,136.5,132,136.5,132,136.5z M115.9,135.7c0-0.4,0.3-0.8,0.7-0.8l0,0c0,0,0,0,0,0
		l0,0c0.4,0,0.8,0.3,0.8,0.7l0,0c0,0.4-0.3,0.8-0.7,0.8l0,0c0,0,0,0,0,0l0,0C116.2,136.5,115.9,136.1,115.9,135.7z M128.1,136.4
		c-0.4,0-0.7-0.3-0.7-0.8l0,0c0-0.4,0.3-0.7,0.8-0.7l0,0c0.4,0,0.7,0.3,0.7,0.8l0,0C128.9,136.1,128.6,136.4,128.1,136.4
		L128.1,136.4C128.2,136.4,128.2,136.4,128.1,136.4z M119.7,135.7c0-0.4,0.3-0.8,0.7-0.8l0,0l0,0l0,0c0.4,0,0.8,0.3,0.8,0.7l0,0
		c0,0.4-0.3,0.8-0.7,0.8l0,0h0l0,0C120.1,136.4,119.7,136.1,119.7,135.7z M124.3,136.4c-0.4,0-0.8-0.3-0.8-0.8l0,0
		c0-0.4,0.3-0.8,0.8-0.8l0,0c0.4,0,0.8,0.3,0.8,0.8l0,0C125.1,136,124.7,136.4,124.3,136.4L124.3,136.4
		C124.3,136.4,124.3,136.4,124.3,136.4z"/>
</g>
<g>
	<path fill="#288FEB" d="M171.1,100.6L171.1,100.6c-0.2-0.4,0-0.8,0.4-1l0,0c0.4-0.1,0.8,0.1,1,0.4l0,0l0,0l0,0c0.2,0.4,0,0.8-0.4,1
		l0,0c-0.1,0-0.2,0-0.3,0l0,0C171.5,101.1,171.2,100.9,171.1,100.6z M169.2,97.6c-0.3-0.3-0.2-0.8,0.1-1.1l0,0
		c0.3-0.3,0.8-0.2,1.1,0.1l0,0c0,0,0,0,0,0l0,0c0.3,0.3,0.2,0.8-0.1,1.1l0,0c-0.1,0.1-0.3,0.2-0.5,0.2l0,0
		C169.6,97.8,169.4,97.8,169.2,97.6z M166.5,95.1c-0.3-0.2-0.4-0.7-0.2-1.1l0,0c0.2-0.3,0.7-0.4,1-0.2l0,0c0.3,0.2,0.4,0.7,0.2,1
		l0,0c-0.1,0.2-0.4,0.3-0.6,0.3l0,0C166.8,95.3,166.6,95.2,166.5,95.1z M163.3,93.1c-0.4-0.2-0.5-0.6-0.3-1l0,0
		c0.2-0.4,0.6-0.5,1-0.3l0,0c0.4,0.2,0.5,0.7,0.3,1l0,0c-0.1,0.3-0.4,0.4-0.7,0.4l0,0C163.6,93.2,163.5,93.2,163.3,93.1z
		 M159.9,91.6c-0.4-0.2-0.6-0.6-0.4-1l0,0c0.2-0.4,0.6-0.6,1-0.4l0,0c0.4,0.2,0.6,0.6,0.4,1l0,0c-0.1,0.3-0.4,0.5-0.7,0.5l0,0
		C160.1,91.6,160,91.6,159.9,91.6z M156.4,90.3c-0.4-0.1-0.6-0.5-0.5-0.9l0,0c0.1-0.4,0.6-0.6,1-0.5l0,0c0.4,0.1,0.6,0.5,0.5,0.9
		l0,0c-0.1,0.3-0.4,0.5-0.7,0.5l0,0C156.5,90.3,156.5,90.3,156.4,90.3z M79.7,89.5c-0.1-0.4,0.2-0.8,0.6-0.9l0,0
		c0.4-0.1,0.8,0.2,0.9,0.6l0,0c0.1,0.4-0.2,0.8-0.6,0.9l0,0c0,0-0.1,0-0.1,0l0,0C80.1,90.1,79.8,89.9,79.7,89.5z M83.5,88.8
		c-0.1-0.4,0.2-0.8,0.6-0.9l0,0c0.4-0.1,0.8,0.2,0.9,0.6l0,0c0.1,0.4-0.2,0.8-0.6,0.9l0,0c0,0-0.1,0-0.1,0l0,0
		C83.9,89.4,83.6,89.2,83.5,88.8z M152.7,89.2L152.7,89.2c-0.4-0.1-0.6-0.5-0.5-0.9l0,0c0.1-0.4,0.5-0.6,0.9-0.5l0,0l0,0l0,0
		c0.4,0.1,0.6,0.5,0.5,0.9l0,0c-0.1,0.3-0.4,0.6-0.7,0.6l0,0C152.9,89.2,152.8,89.2,152.7,89.2z M87.3,88.1
		c-0.1-0.4,0.2-0.8,0.6-0.9l0,0c0.4-0.1,0.8,0.2,0.9,0.6l0,0c0.1,0.4-0.2,0.8-0.6,0.9l0,0c0,0-0.1,0-0.1,0l0,0
		C87.7,88.8,87.4,88.5,87.3,88.1z M149,88.3c-0.4-0.1-0.7-0.5-0.6-0.9l0,0c0.1-0.4,0.5-0.7,0.9-0.6l0,0c0.4,0.1,0.7,0.5,0.6,0.9l0,0
		c-0.1,0.4-0.4,0.6-0.7,0.6l0,0C149.1,88.3,149.1,88.3,149,88.3z M91.1,87.6c-0.1-0.4,0.2-0.8,0.6-0.9l0,0c0.4-0.1,0.8,0.2,0.9,0.6
		l0,0c0.1,0.4-0.2,0.8-0.6,0.9l0,0c0,0-0.1,0-0.1,0l0,0C91.5,88.2,91.1,87.9,91.1,87.6z M94.9,87c-0.1-0.4,0.2-0.8,0.7-0.8l0,0
		c0.4-0.1,0.8,0.2,0.8,0.6l0,0c0.1,0.4-0.2,0.8-0.6,0.8l0,0c0,0-0.1,0-0.1,0l0,0C95.3,87.7,94.9,87.4,94.9,87z M145.3,87.6
		L145.3,87.6c-0.4-0.1-0.7-0.5-0.6-0.9l0,0c0.1-0.4,0.5-0.7,0.9-0.6l0,0c0.4,0.1,0.7,0.4,0.6,0.9l0,0c-0.1,0.4-0.4,0.6-0.7,0.6l0,0
		C145.4,87.6,145.3,87.6,145.3,87.6z M98.7,86.6c0-0.4,0.2-0.8,0.7-0.8l0,0c0.4-0.1,0.8,0.2,0.8,0.7l0,0c0,0.4-0.2,0.8-0.7,0.8l0,0
		c0,0-0.1,0-0.1,0l0,0C99.1,87.2,98.8,86.9,98.7,86.6z M141.5,87.1c-0.4-0.1-0.7-0.4-0.6-0.8l0,0c0-0.4,0.4-0.7,0.8-0.6l0,0l0,0l0,0
		c0.4,0.1,0.7,0.4,0.6,0.8l0,0C142.3,86.8,142,87.1,141.5,87.1L141.5,87.1C141.6,87.1,141.5,87.1,141.5,87.1z M102.5,86.1
		c0-0.4,0.3-0.8,0.7-0.8l0,0c0,0,0,0,0,0l0,0c0.4,0,0.8,0.3,0.8,0.7l0,0c0,0.4-0.3,0.8-0.7,0.8l0,0c0,0,0,0-0.1,0l0,0
		C102.9,86.8,102.6,86.5,102.5,86.1z M137.7,86.6c-0.4-0.1-0.7-0.4-0.7-0.8l0,0c0-0.4,0.4-0.7,0.8-0.7l0,0c0.4,0,0.7,0.4,0.7,0.8
		l0,0C138.5,86.3,138.2,86.6,137.7,86.6L137.7,86.6C137.8,86.6,137.8,86.6,137.7,86.6z M106.4,85.8c0-0.4,0.3-0.8,0.7-0.8l0,0
		c0,0,0,0,0,0l0,0c0.4,0,0.8,0.3,0.8,0.7l0,0c0,0.4-0.3,0.8-0.7,0.8l0,0c0,0,0,0-0.1,0l0,0C106.7,86.5,106.4,86.2,106.4,85.8z
		 M133.9,86.3c-0.4,0-0.7-0.4-0.7-0.8l0,0c0-0.4,0.4-0.7,0.8-0.7l0,0c0.4,0,0.7,0.4,0.7,0.8l0,0C134.7,86,134.4,86.3,133.9,86.3
		L133.9,86.3C134,86.3,133.9,86.3,133.9,86.3z M110.2,85.5c0-0.4,0.3-0.8,0.7-0.8l0,0c0.4,0,0.8,0.3,0.8,0.7l0,0
		c0,0.4-0.3,0.8-0.7,0.8l0,0c0,0,0,0,0,0l0,0C110.5,86.2,110.2,85.9,110.2,85.5z M129.4,85.3c0-0.4,0.4-0.7,0.8-0.7l0,0l0,0l0,0
		c0.4,0,0.7,0.4,0.7,0.8l0,0c0,0.4-0.4,0.7-0.8,0.7v0C129.7,86,129.4,85.7,129.4,85.3z M114,85.3c0-0.4,0.3-0.8,0.7-0.8l0,0
		c0.4,0,0.8,0.3,0.8,0.7l0,0c0,0.4-0.3,0.8-0.7,0.8l0,0c0,0,0,0,0,0l0,0C114.4,86,114,85.7,114,85.3z M126.3,85.9
		c-0.4,0-0.7-0.4-0.7-0.8l0,0c0-0.4,0.3-0.7,0.8-0.7l0,0c0.4,0,0.7,0.4,0.7,0.8l0,0C127,85.6,126.7,85.9,126.3,85.9L126.3,85.9
		L126.3,85.9z M117.9,85.2c0-0.4,0.3-0.8,0.7-0.8l0,0l0,0l0,0c0.4,0,0.8,0.3,0.8,0.7l0,0c0,0.4-0.3,0.8-0.7,0.8l0,0c0,0,0,0,0,0l0,0
		C118.2,85.9,117.9,85.6,117.9,85.2z M121.7,85.1c0-0.4,0.3-0.8,0.8-0.8l0,0c0.4,0,0.8,0.3,0.8,0.8l0,0c0,0.4-0.3,0.8-0.8,0.8l0,0
		C122,85.9,121.7,85.6,121.7,85.1z M122.5,84.4C122.5,84.4,122.5,84.4,122.5,84.4L122.5,84.4C122.5,84.4,122.5,84.4,122.5,84.4
		L122.5,84.4L122.5,84.4z"/>
</g>
<g>
	<path fill="#288FEB" d="M150,54.8c-0.2-0.3-0.1-0.8,0.2-1l0,0c0.3-0.2,0.8-0.1,1,0.2l0,0c0,0,0,0,0,0l0,0c0.2,0.3,0.1,0.8-0.2,1
		l0,0c-0.1,0.1-0.3,0.1-0.4,0.1l0,0C150.4,55.2,150.1,55.1,150,54.8z M147.6,52.1c-0.3-0.3-0.4-0.7-0.1-1.1l0,0
		c0.3-0.3,0.7-0.4,1-0.1l0,0c0.3,0.3,0.4,0.7,0.1,1.1l0,0c-0.1,0.2-0.4,0.3-0.6,0.3l0,0C147.9,52.3,147.7,52.3,147.6,52.1z
		 M144.5,50.1c-0.4-0.2-0.5-0.7-0.3-1l0,0c0.2-0.4,0.7-0.5,1-0.3l0,0c0.4,0.2,0.5,0.7,0.3,1l0,0c-0.1,0.2-0.4,0.4-0.7,0.4l0,0
		C144.8,50.2,144.6,50.2,144.5,50.1z M141.1,48.5c-0.4-0.2-0.6-0.6-0.4-1l0,0c0.1-0.4,0.6-0.6,1-0.4l0,0c0.4,0.2,0.6,0.6,0.4,1l0,0
		c-0.1,0.3-0.4,0.5-0.7,0.5l0,0C141.3,48.6,141.2,48.5,141.1,48.5z M76.1,47.2c-0.1-0.4,0.2-0.8,0.6-0.9l0,0c0,0,0,0,0,0l0,0
		c0.4-0.1,0.8,0.2,0.9,0.6l0,0c0.1,0.4-0.2,0.8-0.6,0.9l0,0c-0.1,0-0.1,0-0.1,0l0,0C76.4,47.8,76.1,47.6,76.1,47.2z M137.6,47.3
		c-0.4-0.1-0.6-0.5-0.5-0.9l0,0c0.1-0.4,0.5-0.6,0.9-0.5l0,0c0.4,0.1,0.6,0.5,0.5,0.9l0,0c-0.1,0.3-0.4,0.5-0.7,0.5l0,0
		C137.7,47.3,137.6,47.3,137.6,47.3z M79.8,46.5c-0.1-0.4,0.2-0.8,0.6-0.9l0,0l0,0l0,0c0.4-0.1,0.8,0.2,0.9,0.6l0,0
		c0.1,0.4-0.2,0.8-0.6,0.9l0,0c-0.1,0-0.1,0-0.1,0l0,0C80.2,47.1,79.9,46.9,79.8,46.5z M83.6,45.9c-0.1-0.4,0.2-0.8,0.6-0.9l0,0l0,0
		l0,0c0.4-0.1,0.8,0.2,0.9,0.6l0,0c0.1,0.4-0.2,0.8-0.6,0.9l0,0c0,0-0.1,0-0.1,0l0,0C84,46.5,83.7,46.2,83.6,45.9z M133.9,46.4
		c-0.4-0.1-0.7-0.5-0.6-0.9l0,0c0.1-0.4,0.5-0.7,0.9-0.6l0,0c0.4,0.1,0.7,0.5,0.6,0.9l0,0c-0.1,0.3-0.4,0.6-0.7,0.6l0,0
		C134,46.4,134,46.4,133.9,46.4z M87.4,45.3c0-0.4,0.2-0.8,0.6-0.8l0,0c0.4-0.1,0.8,0.2,0.9,0.6l0,0c0,0.4-0.2,0.8-0.6,0.8l0,0
		c0,0-0.1,0-0.1,0l0,0C87.8,46,87.5,45.7,87.4,45.3z M130.2,45.6c-0.4-0.1-0.7-0.5-0.6-0.9l0,0c0.1-0.4,0.5-0.7,0.9-0.6l0,0l0,0l0,0
		c0.4,0.1,0.7,0.5,0.6,0.9l0,0c-0.1,0.4-0.4,0.6-0.7,0.6l0,0C130.2,45.6,130.2,45.6,130.2,45.6z M91.2,44.8
		c-0.1-0.4,0.2-0.8,0.7-0.8l0,0c0.4-0.1,0.8,0.2,0.8,0.7l0,0c0.1,0.4-0.2,0.8-0.7,0.8l0,0c0,0-0.1,0-0.1,0l0,0
		C91.6,45.5,91.3,45.2,91.2,44.8z M126.4,45.1c-0.4-0.1-0.7-0.4-0.6-0.8l0,0c0-0.4,0.4-0.7,0.8-0.6l0,0c0.4,0,0.7,0.4,0.7,0.8l0,0
		C127.2,44.8,126.9,45.1,126.4,45.1L126.4,45.1C126.5,45.1,126.4,45.1,126.4,45.1z M95.1,44.4c0-0.4,0.3-0.8,0.7-0.8l0,0
		c0.4,0,0.8,0.3,0.8,0.7l0,0c0,0.4-0.3,0.8-0.7,0.8l0,0c0,0,0,0-0.1,0l0,0C95.4,45.1,95.1,44.8,95.1,44.4z M98.9,44.1
		c0-0.4,0.3-0.8,0.7-0.8l0,0c0.4,0,0.8,0.3,0.8,0.7l0,0c0,0.4-0.3,0.8-0.7,0.8l0,0c0,0,0,0-0.1,0l0,0C99.2,44.8,98.9,44.5,98.9,44.1
		z M122.6,44.7c-0.4,0-0.7-0.4-0.7-0.8l0,0c0-0.4,0.4-0.7,0.8-0.7l0,0l0,0l0,0c0.4,0,0.7,0.4,0.7,0.8l0,0
		C123.4,44.4,123,44.7,122.6,44.7L122.6,44.7C122.6,44.7,122.6,44.7,122.6,44.7z M102.7,43.8c0-0.4,0.3-0.8,0.7-0.8l0,0l0,0l0,0
		c0.4,0,0.8,0.3,0.8,0.7l0,0c0,0.4-0.3,0.8-0.7,0.8l0,0c0,0,0,0,0,0l0,0C103.1,44.5,102.7,44.2,102.7,43.8z M118.1,43.7
		c0-0.4,0.4-0.7,0.8-0.7l0,0c0.4,0,0.7,0.4,0.7,0.8l0,0c0,0.4-0.4,0.7-0.8,0.7l0,0C118.4,44.4,118,44.1,118.1,43.7z M106.6,43.6
		c0-0.4,0.3-0.8,0.7-0.8l0,0c0.4,0,0.8,0.3,0.8,0.7l0,0c0,0.4-0.3,0.8-0.7,0.8l0,0c0,0,0,0,0,0l0,0C106.9,44.3,106.6,44,106.6,43.6z
		 M114.2,43.5c0-0.4,0.3-0.7,0.8-0.7l0,0c0,0,0,0,0,0l0,0c0.4,0,0.7,0.4,0.7,0.8l0,0c0,0.4-0.4,0.8-0.8,0.7l0,0
		C114.6,44.3,114.2,44,114.2,43.5z M110.4,43.5c0-0.4,0.3-0.8,0.7-0.8l0,0c0.4,0,0.8,0.3,0.8,0.7l0,0c0,0.4-0.3,0.8-0.8,0.8l0,0l0,0
		l0,0C110.7,44.3,110.4,43.9,110.4,43.5z"/>
</g>
<g>
	<path fill="#288FEB" d="M125.1,25.1c-0.3-0.3-0.2-0.8,0.1-1.1l0,0c0.3-0.3,0.8-0.2,1.1,0.1l0,0c0.3,0.3,0.2,0.8-0.1,1.1l0,0
		c-0.1,0.1-0.3,0.2-0.5,0.2l0,0C125.4,25.4,125.2,25.3,125.1,25.1z M122.3,22.9c-0.4-0.2-0.5-0.7-0.3-1l0,0c0.2-0.4,0.7-0.5,1-0.3
		l0,0l0,0l0,0c0.3,0.2,0.5,0.7,0.3,1l0,0c-0.1,0.2-0.4,0.4-0.6,0.4l0,0C122.6,23,122.4,22.9,122.3,22.9z M119,21.3L119,21.3
		c-0.4-0.1-0.6-0.6-0.5-1l0,0c0.1-0.4,0.6-0.6,1-0.4l0,0l0,0l0,0c0.4,0.1,0.6,0.6,0.5,1l0,0c-0.1,0.3-0.4,0.5-0.7,0.5l0,0
		C119.1,21.4,119,21.4,119,21.3z M84.3,20c-0.1-0.4,0.2-0.8,0.6-0.9l0,0c0,0,0,0,0,0l0,0c0.4-0.1,0.8,0.2,0.9,0.6l0,0
		c0.1,0.4-0.2,0.8-0.6,0.9l0,0c0,0-0.1,0-0.1,0l0,0C84.6,20.6,84.3,20.4,84.3,20z M115.4,20.3c-0.4-0.1-0.7-0.5-0.6-0.9l0,0
		c0.1-0.4,0.5-0.7,0.9-0.6l0,0c0.4,0.1,0.6,0.5,0.6,0.9l0,0c-0.1,0.3-0.4,0.6-0.7,0.6l0,0C115.5,20.3,115.4,20.3,115.4,20.3z
		 M88,19.4c-0.1-0.4,0.2-0.8,0.6-0.8l0,0c0.4-0.1,0.8,0.2,0.9,0.6l0,0c0.1,0.4-0.2,0.8-0.6,0.9l0,0c0,0-0.1,0-0.1,0l0,0
		C88.4,20,88.1,19.7,88,19.4z M111.6,19.6c-0.4-0.1-0.7-0.4-0.6-0.9l0,0c0.1-0.4,0.4-0.7,0.9-0.6l0,0c0.4,0.1,0.7,0.4,0.6,0.9l0,0
		c0,0.4-0.4,0.6-0.7,0.6l0,0C111.7,19.6,111.7,19.6,111.6,19.6z M91.9,18.8c0-0.4,0.2-0.8,0.7-0.8l0,0c0.4,0,0.8,0.3,0.8,0.7l0,0
		c0,0.4-0.2,0.8-0.7,0.8l0,0c0,0,0,0-0.1,0l0,0C92.2,19.5,91.9,19.2,91.9,18.8z M95.7,18.5c0-0.4,0.3-0.8,0.7-0.8l0,0
		c0.4,0,0.8,0.3,0.8,0.7l0,0c0,0.4-0.3,0.8-0.7,0.8l0,0c0,0,0,0,0,0l0,0C96,19.2,95.7,18.9,95.7,18.5z M107.9,19.2
		c-0.4,0-0.7-0.4-0.7-0.8l0,0c0-0.4,0.4-0.7,0.8-0.7l0,0l0,0l0,0c0.4,0,0.7,0.4,0.7,0.8l0,0C108.7,18.9,108.3,19.2,107.9,19.2
		L107.9,19.2C107.9,19.2,107.9,19.2,107.9,19.2z M100.3,19c-0.4,0-0.8-0.3-0.8-0.7l0,0c0-0.4,0.3-0.8,0.7-0.8l0,0c0,0,0,0,0,0l0,0
		c0.4,0,0.8,0.3,0.8,0.7l0,0C101,18.6,100.7,19,100.3,19L100.3,19z M104.1,19c-0.4,0-0.7-0.4-0.7-0.8l0,0c0-0.4,0.4-0.7,0.8-0.7l0,0
		c0.4,0,0.8,0.4,0.7,0.8l0,0C104.8,18.7,104.5,19,104.1,19L104.1,19C104.1,19,104.1,19,104.1,19z"/>
</g>
<path fill="none" stroke="#28CB75" stroke-miterlimit="10" d="M43.7,27.4C40.8,21,68.1,13.7,86.9,12.9"/>
<path fill="none" stroke="#28CB75" stroke-miterlimit="10" d="M19.2,55.3C17.4,47.7,46.8,38.8,73,36.4"/>
<path fill="none" stroke="#28CB75" stroke-miterlimit="10" d="M1.4,101.5c-3.7-10.7,34-23.3,75-24.2"/>
<path fill="none" stroke="#28CB75" stroke-miterlimit="10" d="M6.9,146.8c-5-13.7,32-28.8,82.2-26.4"/>
<path fill="none" stroke="#288FEB" stroke-miterlimit="10" d="M86,129c39.2-3.2,75-3.3,80.4,9.1"/>
<path fill="none" stroke="#288FEB" stroke-miterlimit="10" d="M80.5,80.9c47.3-9.1,86.5-2.6,91.4,11.2"/>
<path fill="none" stroke="#288FEB" stroke-miterlimit="10" d="M76.8,38.6c38.5-7.4,72.1-2.9,74.9,10.1"/>
<path fill="none" stroke="#288FEB" stroke-miterlimit="10" d="M85,11.4c21.4-4,40.2-0.6,42,7.5"/>
<linearGradient id="SVGID_1_" gradientUnits="userSpaceOnUse" x1="108.0169" y1="163.4145" x2="167.6152" y2="163.4145">
	<stop  offset="0" style="stop-color:#28CB75"/>
	<stop  offset="1" style="stop-color:#288FEB"/>
</linearGradient>
<path fill="none" stroke="url(#SVGID_1_)" stroke-miterlimit="10" d="M166.4,138.1c5.5,12.5-20.6,35-58.2,50.3"/>
<path fill="#28CB75" d="M102.6,189.1c0.2-1.6,1.7-2.7,3.4-2.5c1.6,0.2,2.8,1.7,2.6,3.2s-1.7,2.7-3.4,2.5
	C103.5,192.1,102.4,190.7,102.6,189.1z"/>
<path fill="#F3F5F7" d="M23.1,111.5C23.1,62.9,88,0,88,0S153,64.6,153,111.5c0,35.9-29.1,64.9-64.9,64.9S23.1,147.4,23.1,111.5z"/>
<linearGradient id="SVGID_2_" gradientUnits="userSpaceOnUse" x1="23.1101" y1="88.2257" x2="152.9705" y2="88.2257">
	<stop  offset="0" style="stop-color:#FFFFFF"/>
	<stop  offset="1" style="stop-color:#FFFFFF;stop-opacity:0"/>
</linearGradient>
<path fill="url(#SVGID_2_)" d="M23.1,111.5C23.1,62.9,88,0,88,0S153,64.6,153,111.5c0,35.9-29.1,64.9-64.9,64.9
	S23.1,147.4,23.1,111.5z"/>
<linearGradient id="SVGID_3_" gradientUnits="userSpaceOnUse" x1="18.6665" y1="39.2809" x2="127.5439" y2="39.2809">
	<stop  offset="0" style="stop-color:#28CB75"/>
	<stop  offset="1" style="stop-color:#288FEB"/>
</linearGradient>
<path fill="none" stroke="url(#SVGID_3_)" stroke-miterlimit="10" d="M126.7,18.6c3.2,7.8-18.2,22.3-47.9,32.4s-58,11.2-59.6,4.3"/>
<g>
	<g>
		<linearGradient id="SVGID_4_" gradientUnits="userSpaceOnUse" x1="43.2676" y1="23.3774" x2="92.1547" y2="23.3774">
			<stop  offset="0" style="stop-color:#28CB75"/>
			<stop  offset="1" style="stop-color:#288FEB"/>
		</linearGradient>
		<path fill="none" stroke="url(#SVGID_4_)" stroke-miterlimit="10" d="M91.1,17C87.5,19,83.4,21,79,22.9
			c-17.3,7.3-33.5,8.6-35.3,4.5"/>
		<g>
			<linearGradient id="SVGID_5_" gradientUnits="userSpaceOnUse" x1="43.2676" y1="19.3748" x2="92.1547" y2="19.3748">
				<stop  offset="0" style="stop-color:#28CB75"/>
				<stop  offset="1" style="stop-color:#288FEB"/>
			</linearGradient>
			<path fill="url(#SVGID_5_)" d="M84.4,16.2c0,0.2,0.2,0.4,0.4,0.4l6.1,0.4l-3,5.4c-0.1,0.2,0,0.4,0.2,0.5c0.2,0.1,0.4,0,0.5-0.2
				l3.3-5.9c0.1-0.1,0.1-0.3,0-0.4c-0.1-0.1-0.2-0.2-0.3-0.2l-6.7-0.5c-0.1,0-0.2,0-0.2,0C84.5,15.9,84.4,16,84.4,16.2z"/>
		</g>
	</g>
</g>
<linearGradient id="SVGID_6_" gradientUnits="userSpaceOnUse" x1="19.217" y1="169.4154" x2="167.7237" y2="83.675">
	<stop  offset="0" style="stop-color:#28CB75"/>
	<stop  offset="1" style="stop-color:#288FEB"/>
</linearGradient>
<path fill="none" stroke="url(#SVGID_6_)" stroke-miterlimit="10" d="M171.9,91.8c5.8,15.1-26.8,39.6-72.2,54.8
	c-45.4,15.2-87.7,13.8-92.7,0.3"/>
<linearGradient id="SVGID_7_" gradientUnits="userSpaceOnUse" x1="11.4185" y1="120.1226" x2="148.1951" y2="41.1546">
	<stop  offset="0" style="stop-color:#28CB75"/>
	<stop  offset="1" style="stop-color:#288FEB"/>
</linearGradient>
<path fill="none" stroke="url(#SVGID_7_)" stroke-miterlimit="10" d="M151.3,47.5c5.2,12.3-24.1,34.2-65.5,49.1s-80.6,16.1-84.4,4.8
	"/>
<g>
	<linearGradient id="SVGID_8_" gradientUnits="userSpaceOnUse" x1="125.6152" y1="167.5498" x2="167.8596" y2="167.5498">
		<stop  offset="0" style="stop-color:#28CB75"/>
		<stop  offset="1" style="stop-color:#288FEB"/>
	</linearGradient>
	<path fill="url(#SVGID_8_)" d="M125.7,188.9c-0.2-0.4-0.1-0.8,0.3-1l0,0c0.4-0.2,0.8,0,1,0.3l0,0c0.2,0.4,0,0.8-0.3,1l0,0l0,0l0,0
		c-0.1,0.1-0.2,0.1-0.3,0.1l0,0C126.1,189.3,125.8,189.1,125.7,188.9z M129.1,187.1c-0.2-0.4-0.1-0.8,0.3-1l0,0
		c0.4-0.2,0.8-0.1,1,0.3l0,0c0.2,0.4,0.1,0.8-0.3,1l0,0c0,0,0,0,0,0l0,0c-0.1,0.1-0.2,0.1-0.4,0.1l0,0
		C129.5,187.5,129.2,187.3,129.1,187.1z M132.5,185.2c-0.2-0.4-0.1-0.8,0.3-1v0c0.4-0.2,0.8-0.1,1,0.3l0,0c0.2,0.4,0.1,0.8-0.3,1
		l0,0c-0.1,0.1-0.2,0.1-0.4,0.1l0,0C132.8,185.6,132.6,185.4,132.5,185.2z M135.8,183.2c-0.2-0.4-0.1-0.8,0.2-1l0,0
		c0.4-0.2,0.8-0.1,1,0.2l0,0c0.2,0.3,0.1,0.8-0.3,1l0,0l0,0l0,0c-0.1,0.1-0.2,0.1-0.4,0.1l0,0C136.2,183.6,135.9,183.5,135.8,183.2z
		 M139,181.2c-0.2-0.3-0.1-0.8,0.2-1v0c0.4-0.2,0.8-0.1,1,0.2l0,0c0.2,0.3,0.1,0.8-0.2,1l0,0l0,0l0,0c-0.1,0.1-0.3,0.1-0.4,0.1l0,0
		C139.4,181.6,139.2,181.5,139,181.2z M142.3,179.1c-0.2-0.3-0.1-0.8,0.2-1l0,0c0.3-0.2,0.8-0.1,1,0.2l0,0c0.2,0.3,0.1,0.8-0.2,1
		l0,0c-0.1,0.1-0.3,0.1-0.4,0.1l0,0C142.6,179.5,142.4,179.3,142.3,179.1z M145.4,177c-0.2-0.3-0.2-0.8,0.2-1.1l0,0
		c0.3-0.2,0.8-0.2,1,0.2l0,0c0.2,0.3,0.2,0.8-0.2,1.1l0,0l0,0l0,0c-0.1,0.1-0.3,0.1-0.4,0.1l0,0C145.8,177.3,145.6,177.1,145.4,177z
		 M148.5,174.7c-0.3-0.3-0.2-0.8,0.1-1l0,0c0.3-0.2,0.8-0.2,1.1,0.1l0,0c0.3,0.3,0.2,0.8-0.1,1l0,0c-0.1,0.1-0.3,0.2-0.5,0.2l0,0
		C148.9,175,148.7,174.9,148.5,174.7z M151.5,172.3c-0.3-0.3-0.2-0.8,0.1-1l0,0c0.3-0.3,0.8-0.2,1.1,0.1l0,0
		c0.3,0.3,0.2,0.8-0.1,1.1l0,0l0,0l0,0c-0.1,0.1-0.3,0.2-0.5,0.2l0,0C151.9,172.6,151.7,172.5,151.5,172.3z M154.5,169.8
		c-0.3-0.3-0.2-0.8,0-1.1l0,0c0.3-0.3,0.8-0.3,1.1,0l0,0c0.3,0.3,0.3,0.8,0,1.1l0,0l0,0l0,0c-0.1,0.1-0.3,0.2-0.5,0.2l0,0
		C154.8,170,154.6,170,154.5,169.8z M157.3,167.2c-0.3-0.3-0.3-0.8,0-1.1l0,0c0.3-0.3,0.8-0.3,1.1,0l0,0c0.3,0.3,0.3,0.8,0,1.1l0,0
		l0,0l0,0c-0.1,0.1-0.3,0.2-0.5,0.2l0,0C157.6,167.4,157.4,167.3,157.3,167.2z M159.9,164.4c-0.3-0.3-0.4-0.7-0.1-1.1l0,0
		c0.3-0.3,0.8-0.3,1.1-0.1l0,0c0.3,0.3,0.4,0.7,0.1,1.1l0,0c-0.2,0.2-0.4,0.3-0.6,0.3l0,0C160.2,164.6,160,164.5,159.9,164.4z
		 M162.4,161.4c-0.3-0.2-0.4-0.7-0.2-1l0,0c0.2-0.3,0.7-0.4,1.1-0.2l0,0c0.3,0.2,0.4,0.7,0.2,1l0,0c-0.1,0.2-0.4,0.3-0.6,0.3l0,0
		C162.6,161.6,162.5,161.5,162.4,161.4z M164.5,158.2c-0.4-0.2-0.5-0.7-0.3-1l0,0c0.2-0.4,0.7-0.5,1-0.3l0,0c0.4,0.2,0.5,0.7,0.3,1
		l0,0c-0.1,0.2-0.4,0.4-0.6,0.4l0,0C164.8,158.3,164.6,158.3,164.5,158.2z M166.2,154.8c-0.4-0.1-0.6-0.5-0.5-0.9l0,0
		c0.1-0.4,0.5-0.6,0.9-0.5l0,0c0.4,0.1,0.6,0.5,0.5,1l0,0c-0.1,0.3-0.4,0.5-0.7,0.5l0,0C166.3,154.8,166.3,154.8,166.2,154.8z
		 M167.1,151.1c-0.4,0-0.8-0.4-0.7-0.8l0,0c0-0.4,0.4-0.7,0.8-0.7l0,0c0.4,0,0.7,0.3,0.7,0.8l0,0
		C167.8,150.8,167.5,151.1,167.1,151.1L167.1,151.1L167.1,151.1z M165.7,146.9c-0.2-0.4,0-0.8,0.4-1l0,0c0.4-0.2,0.8,0,1,0.4l0,0
		c0.2,0.4,0,0.8-0.4,1l0,0c-0.1,0-0.2,0.1-0.3,0.1l0,0C166.1,147.3,165.8,147.2,165.7,146.9z"/>
</g>
<g>
	<linearGradient id="SVGID_9_" gradientUnits="userSpaceOnUse" x1="20.812" y1="47.5956" x2="127.4682" y2="47.5956">
		<stop  offset="0" style="stop-color:#28CB75"/>
		<stop  offset="1" style="stop-color:#288FEB"/>
	</linearGradient>
	<path fill="url(#SVGID_9_)" d="M32.8,68.9c-0.4,0-0.7-0.3-0.7-0.8l0,0c0-0.4,0.3-0.8,0.8-0.7l0,0c0.4,0,0.7,0.3,0.7,0.8l0,0
		C33.6,68.5,33.3,68.9,32.8,68.9L32.8,68.9C32.8,68.9,32.8,68.9,32.8,68.9z M35.9,68.1c0-0.4,0.3-0.8,0.7-0.8l0,0
		c0.4,0,0.8,0.3,0.8,0.7l0,0c0,0.4-0.3,0.8-0.7,0.8l0,0c0,0,0,0,0,0l0,0C36.3,68.8,36,68.5,35.9,68.1z M28.9,68.7
		c-0.4,0-0.7-0.4-0.7-0.8l0,0c0-0.4,0.4-0.7,0.8-0.7l0,0c0.4,0,0.7,0.4,0.7,0.8l0,0C29.7,68.4,29.4,68.7,28.9,68.7L28.9,68.7
		C29,68.7,29,68.7,28.9,68.7z M39.8,67.9c0-0.4,0.3-0.8,0.7-0.8h0c0.4,0,0.8,0.3,0.8,0.7l0,0c0,0.4-0.3,0.8-0.7,0.8l0,0
		c0,0,0,0-0.1,0l0,0C40.1,68.6,39.8,68.3,39.8,67.9z M25.1,68.2c-0.4-0.1-0.7-0.5-0.6-0.9l0,0c0.1-0.4,0.5-0.7,0.9-0.6l0,0
		c0.4,0.1,0.7,0.5,0.6,0.9l0,0c-0.1,0.4-0.4,0.6-0.7,0.6l0,0C25.2,68.2,25.1,68.2,25.1,68.2z M43.6,67.5c0-0.4,0.2-0.8,0.7-0.8l0,0
		c0.4,0,0.8,0.2,0.8,0.7l0,0c0,0.4-0.2,0.8-0.7,0.8l0,0l0,0l0,0c0,0-0.1,0-0.1,0l0,0C44,68.2,43.6,67.9,43.6,67.5z M47.4,67.1
		c-0.1-0.4,0.2-0.8,0.6-0.9l0,0c0.4-0.1,0.8,0.2,0.9,0.6l0,0c0.1,0.4-0.2,0.8-0.6,0.9l0,0c0,0-0.1,0-0.1,0l0,0
		C47.8,67.7,47.5,67.4,47.4,67.1z M51.2,66.5c-0.1-0.4,0.2-0.8,0.6-0.9l0,0c0.4-0.1,0.8,0.2,0.9,0.6l0,0c0.1,0.4-0.2,0.8-0.6,0.9
		l0,0l0,0l0,0c0,0-0.1,0-0.1,0l0,0C51.6,67.1,51.3,66.8,51.2,66.5z M21.2,67c-0.4-0.2-0.5-0.6-0.3-1l0,0c0.2-0.4,0.6-0.5,1-0.3l0,0
		c0.4,0.2,0.5,0.6,0.3,1l0,0c-0.1,0.3-0.4,0.4-0.7,0.4l0,0C21.4,67,21.3,67,21.2,67z M55,65.8c-0.1-0.4,0.2-0.8,0.6-0.9h0
		c0.4-0.1,0.8,0.2,0.9,0.6l0,0c0.1,0.4-0.2,0.8-0.6,0.9l0,0c-0.1,0-0.1,0-0.1,0l0,0C55.4,66.4,55.1,66.1,55,65.8z M58.8,65
		c-0.1-0.4,0.2-0.8,0.6-0.9l0,0c0.4-0.1,0.8,0.2,0.9,0.6l0,0c0.1,0.4-0.2,0.8-0.6,0.9l0,0c-0.1,0-0.1,0-0.2,0l0,0
		C59.1,65.6,58.8,65.4,58.8,65z M62.5,64.2c-0.1-0.4,0.1-0.8,0.5-0.9l0,0c0.4-0.1,0.8,0.1,0.9,0.6l0,0c0.1,0.4-0.1,0.8-0.6,0.9l0,0
		c-0.1,0-0.1,0-0.2,0l0,0C62.9,64.7,62.6,64.5,62.5,64.2z M66.2,63.2c-0.1-0.4,0.1-0.8,0.5-0.9l0,0c0.4-0.1,0.8,0.1,0.9,0.5l0,0
		c0.1,0.4-0.1,0.8-0.5,0.9l0,0c-0.1,0-0.1,0-0.2,0l0,0C66.6,63.8,66.3,63.6,66.2,63.2z M69.9,62.2c-0.1-0.4,0.1-0.8,0.5-0.9l0,0
		c0.4-0.1,0.8,0.1,0.9,0.5l0,0c0.1,0.4-0.1,0.8-0.5,0.9l0,0c-0.1,0-0.1,0-0.2,0l0,0C70.3,62.8,70,62.5,69.9,62.2z M73.6,61.1
		c-0.1-0.4,0.1-0.8,0.5-0.9l0,0c0.4-0.1,0.8,0.1,0.9,0.5l0,0c0.1,0.4-0.1,0.8-0.5,0.9l0,0l0,0l0,0c-0.1,0-0.2,0-0.2,0l0,0
		C74,61.6,73.7,61.4,73.6,61.1z M77.3,59.9c-0.1-0.4,0.1-0.8,0.5-0.9l0,0c0.4-0.1,0.8,0.1,0.9,0.5l0,0c0.1,0.4-0.1,0.8-0.5,0.9l0,0
		c-0.1,0-0.2,0-0.2,0l0,0C77.7,60.5,77.4,60.3,77.3,59.9z M80.9,58.7c-0.1-0.4,0.1-0.8,0.5-1l0,0c0.4-0.1,0.8,0.1,1,0.4l0,0
		c0.1,0.4-0.1,0.8-0.5,1l0,0c-0.1,0-0.2,0.1-0.2,0.1l0,0C81.3,59.2,81,59,80.9,58.7z M84.5,57.4c-0.1-0.4,0-0.8,0.4-1l0,0
		c0.4-0.1,0.8,0.1,1,0.4l0,0c0.1,0.4,0,0.8-0.4,1l0,0c-0.1,0-0.2,0.1-0.3,0.1l0,0C84.9,57.9,84.6,57.7,84.5,57.4z M88.1,56
		c-0.1-0.4,0-0.8,0.4-1l0,0c0.4-0.2,0.8,0,1,0.4l0,0c0.2,0.4,0,0.8-0.4,1l0,0c-0.1,0-0.2,0-0.3,0l0,0C88.5,56.5,88.2,56.3,88.1,56z
		 M91.7,54.6c-0.2-0.4,0-0.8,0.4-1l0,0c0.4-0.2,0.8,0,1,0.4l0,0c0.2,0.4,0,0.8-0.4,1l0,0c-0.1,0-0.2,0.1-0.3,0.1l0,0
		C92.1,55,91.8,54.9,91.7,54.6z M95.2,53.1c-0.2-0.4,0-0.8,0.4-1l0,0c0.4-0.2,0.8,0,1,0.4l0,0c0.2,0.4,0,0.8-0.4,1l0,0
		c-0.1,0-0.2,0.1-0.3,0.1l0,0C95.6,53.5,95.3,53.3,95.2,53.1z M98.7,51.5c-0.2-0.4,0-0.8,0.4-1l0,0c0.4-0.2,0.8,0,1,0.4l0,0
		c0.2,0.4,0,0.8-0.4,1l0,0l0,0l0,0c-0.1,0-0.2,0.1-0.3,0.1l0,0C99.1,51.9,98.8,51.7,98.7,51.5z M102.2,49.8c-0.2-0.4,0-0.8,0.3-1
		l0,0c0.4-0.2,0.8,0,1,0.3l0,0c0.2,0.4,0,0.8-0.3,1l0,0c-0.1,0-0.2,0.1-0.3,0.1l0,0C102.5,50.2,102.3,50.1,102.2,49.8z M105.6,48
		c-0.2-0.4-0.1-0.8,0.3-1l0,0c0.4-0.2,0.8-0.1,1,0.3l0,0c0.2,0.4,0.1,0.8-0.3,1l0,0c-0.1,0.1-0.2,0.1-0.3,0.1l0,0
		C106,48.4,105.7,48.3,105.6,48z M108.9,46.2c-0.2-0.4-0.1-0.8,0.3-1l0,0c0.4-0.2,0.8-0.1,1,0.3l0,0c0.2,0.4,0.1,0.8-0.3,1l0,0
		c-0.1,0.1-0.2,0.1-0.4,0.1l0,0C109.3,46.5,109.1,46.4,108.9,46.2z M112.2,44.2c-0.2-0.4-0.1-0.8,0.2-1l0,0c0.4-0.2,0.8-0.1,1,0.2
		l0,0c0.2,0.4,0.1,0.8-0.2,1l0,0c-0.1,0.1-0.3,0.1-0.4,0.1l0,0C112.6,44.6,112.4,44.4,112.2,44.2z M115.5,42.1
		c-0.2-0.3-0.2-0.8,0.2-1l0,0c0.3-0.2,0.8-0.1,1,0.2l0,0c0.2,0.3,0.2,0.8-0.2,1.1l0,0l0,0l0,0c-0.1,0.1-0.3,0.1-0.4,0.1l0,0
		C115.8,42.4,115.6,42.3,115.5,42.1z M118.6,39.9c-0.3-0.3-0.2-0.8,0.1-1.1l0,0c0.3-0.3,0.8-0.2,1,0.1l0,0c0.3,0.3,0.2,0.8-0.1,1.1
		l0,0c-0.1,0.1-0.3,0.2-0.5,0.2l0,0C118.9,40.1,118.7,40,118.6,39.9z M121.5,37.4c-0.3-0.3-0.3-0.8,0-1.1l0,0c0.3-0.3,0.8-0.3,1.1,0
		l0,0c0.3,0.3,0.3,0.8,0,1.1l0,0l0,0l0,0c-0.2,0.1-0.3,0.2-0.5,0.2l0,0C121.9,37.6,121.7,37.6,121.5,37.4z M124.2,34.7
		c-0.3-0.3-0.4-0.7-0.1-1.1l0,0c0.3-0.3,0.7-0.4,1.1-0.1l0,0c0.3,0.3,0.4,0.7,0.1,1.1l0,0c-0.1,0.2-0.4,0.3-0.6,0.3l0,0
		C124.5,34.8,124.4,34.8,124.2,34.7z M126.4,31.5c-0.4-0.1-0.6-0.6-0.4-1l0,0c0.1-0.4,0.6-0.6,1-0.4l0,0c0.4,0.1,0.6,0.6,0.4,1l0,0
		l0,0l0,0c-0.1,0.3-0.4,0.5-0.7,0.5l0,0C126.5,31.5,126.5,31.5,126.4,31.5z M126,27.3L126,27.3c-0.2-0.4,0-0.8,0.4-1l0,0
		c0.4-0.2,0.8,0,1,0.4l0,0l0,0l0,0c0.2,0.4,0,0.8-0.4,1l0,0c-0.1,0-0.2,0-0.3,0l0,0C126.4,27.8,126.1,27.6,126,27.3z"/>
</g>
<g>
	<linearGradient id="SVGID_10_" gradientUnits="userSpaceOnUse" x1="45.7867" y1="32.7982" x2="73.5995" y2="32.7982">
		<stop  offset="0" style="stop-color:#28CB75"/>
		<stop  offset="1" style="stop-color:#288FEB"/>
	</linearGradient>
	<path fill="url(#SVGID_10_)" d="M50.3,35.8c-0.4,0-0.7-0.4-0.7-0.8l0,0c0-0.4,0.4-0.7,0.8-0.7l0,0c0.4,0,0.7,0.3,0.7,0.8l0,0
		C51.1,35.4,50.8,35.8,50.3,35.8L50.3,35.8C50.3,35.8,50.3,35.8,50.3,35.8z M53.4,34.9c0-0.4,0.3-0.8,0.7-0.8l0,0
		c0.4,0,0.8,0.3,0.8,0.7l0,0c0,0.4-0.3,0.8-0.7,0.8l0,0l0,0l0,0c0,0,0,0-0.1,0l0,0C53.8,35.6,53.5,35.3,53.4,34.9z M46.3,35.3
		c-0.4-0.1-0.6-0.5-0.5-0.9l0,0c0.1-0.4,0.5-0.6,0.9-0.5l0,0c0.4,0.1,0.6,0.5,0.5,0.9l0,0c-0.1,0.3-0.4,0.6-0.7,0.6l0,0
		C46.5,35.3,46.4,35.3,46.3,35.3z M57.2,34.5c-0.1-0.4,0.2-0.8,0.6-0.9l0,0c0.4-0.1,0.8,0.2,0.9,0.6l0,0c0.1,0.4-0.2,0.8-0.6,0.9
		l0,0c0,0-0.1,0-0.1,0l0,0C57.6,35.2,57.3,34.9,57.2,34.5z M61,33.9c-0.1-0.4,0.2-0.8,0.6-0.9l0,0c0.4-0.1,0.8,0.2,0.9,0.6l0,0
		c0.1,0.4-0.2,0.8-0.6,0.9l0,0c-0.1,0-0.1,0-0.1,0l0,0C61.4,34.5,61.1,34.2,61,33.9z M64.8,33c-0.1-0.4,0.1-0.8,0.5-0.9h0
		c0.4-0.1,0.8,0.1,0.9,0.5l0,0c0.1,0.4-0.1,0.8-0.5,0.9l0,0c-0.1,0-0.1,0-0.2,0l0,0C65.2,33.6,64.9,33.3,64.8,33z M68.5,32
		c-0.1-0.4,0.1-0.8,0.5-0.9l0,0c0.4-0.1,0.8,0.1,0.9,0.5l0,0c0.1,0.4-0.1,0.8-0.5,0.9l0,0c-0.1,0-0.1,0-0.2,0l0,0
		C68.9,32.5,68.6,32.3,68.5,32z M72.1,30.8c-0.1-0.4,0.1-0.8,0.5-1l0,0c0.4-0.1,0.8,0.1,1,0.5l0,0c0.1,0.4-0.1,0.8-0.5,1l0,0
		c-0.1,0-0.2,0-0.2,0l0,0C72.5,31.3,72.2,31.1,72.1,30.8z"/>
</g>
<g>
	<linearGradient id="SVGID_11_" gradientUnits="userSpaceOnUse" x1="19.2349" y1="178.4137" x2="168.1781" y2="92.4213">
		<stop  offset="0" style="stop-color:#28CB75"/>
		<stop  offset="1" style="stop-color:#288FEB"/>
	</linearGradient>
	<path fill="url(#SVGID_11_)" d="M38.7,166c0-0.4,0.3-0.8,0.7-0.8l0,0c0.4,0,0.8,0.3,0.8,0.7l0,0c0,0.4-0.3,0.8-0.8,0.8l0,0l0,0l0,0
		h0l0,0C39.1,166.7,38.7,166.4,38.7,166z M35.6,166.7c-0.4,0-0.7-0.4-0.7-0.8l0,0c0-0.4,0.4-0.7,0.8-0.7l0,0c0.4,0,0.7,0.4,0.7,0.8
		l0,0C36.4,166.3,36,166.7,35.6,166.7L35.6,166.7C35.6,166.7,35.6,166.7,35.6,166.7z M43.3,166.6c-0.4,0-0.8-0.3-0.8-0.7l0,0
		c0-0.4,0.3-0.8,0.7-0.8v0c0.4,0,0.8,0.3,0.8,0.7l0,0C44.1,166.3,43.8,166.6,43.3,166.6L43.3,166.6
		C43.3,166.7,43.3,166.7,43.3,166.6z M31.8,166.5c-0.4,0-0.7-0.4-0.7-0.8l0,0c0-0.4,0.4-0.7,0.8-0.7v0c0.4,0,0.7,0.4,0.7,0.8l0,0
		C32.5,166.2,32.2,166.5,31.8,166.5L31.8,166.5C31.8,166.5,31.8,166.5,31.8,166.5z M46.4,165.8c0-0.4,0.3-0.8,0.7-0.8l0,0
		c0.4,0,0.8,0.3,0.8,0.7l0,0c0,0.4-0.3,0.8-0.7,0.8l0,0c0,0,0,0,0,0l0,0C46.8,166.5,46.4,166.2,46.4,165.8z M50.2,165.5
		c0-0.4,0.3-0.8,0.7-0.8l0,0c0.4,0,0.8,0.3,0.8,0.7l0,0c0,0.4-0.3,0.8-0.7,0.8l0,0c0,0,0,0-0.1,0l0,0
		C50.6,166.2,50.3,165.9,50.2,165.5z M27.9,166.1c-0.4,0-0.7-0.4-0.7-0.8l0,0c0-0.4,0.4-0.7,0.8-0.7l0,0c0.4,0,0.7,0.4,0.7,0.8l0,0
		C28.7,165.8,28.3,166.1,27.9,166.1L27.9,166.1C27.9,166.1,27.9,166.1,27.9,166.1z M54.1,165.2c0-0.4,0.3-0.8,0.7-0.8l0,0
		c0.4,0,0.8,0.3,0.8,0.7l0,0c0,0.4-0.3,0.8-0.7,0.8l0,0l0,0l0,0c0,0,0,0-0.1,0l0,0C54.4,165.8,54.1,165.5,54.1,165.2z M24,165.6
		L24,165.6L24,165.6c-0.4-0.1-0.7-0.5-0.6-0.9l0,0c0.1-0.4,0.5-0.7,0.9-0.6l0,0c0.4,0.1,0.7,0.5,0.6,0.9l0,0
		c-0.1,0.4-0.4,0.6-0.7,0.6l0,0C24.1,165.6,24.1,165.6,24,165.6z M57.9,164.7c-0.1-0.4,0.2-0.8,0.6-0.8l0,0c0.4,0,0.8,0.2,0.8,0.7
		l0,0c0.1,0.4-0.2,0.8-0.6,0.8l0,0l0,0l0,0c0,0-0.1,0-0.1,0l0,0C58.2,165.4,57.9,165.1,57.9,164.7z M61.7,164.2
		c-0.1-0.4,0.2-0.8,0.6-0.9l0,0c0.4-0.1,0.8,0.2,0.9,0.6l0,0c0.1,0.4-0.2,0.8-0.6,0.9l0,0c0,0-0.1,0-0.1,0l0,0
		C62.1,164.8,61.7,164.6,61.7,164.2z M20.2,164.8c-0.4-0.1-0.7-0.5-0.6-0.9l0,0c0.1-0.4,0.5-0.6,0.9-0.5l0,0
		c0.4,0.1,0.6,0.5,0.5,0.9l0,0c-0.1,0.3-0.4,0.6-0.7,0.6l0,0C20.3,164.8,20.3,164.8,20.2,164.8z M65.5,163.6
		c-0.1-0.4,0.2-0.8,0.6-0.9l0,0c0.4-0.1,0.8,0.2,0.9,0.6l0,0c0.1,0.4-0.2,0.8-0.6,0.9l0,0c0,0-0.1,0-0.1,0l0,0
		C65.9,164.2,65.5,164,65.5,163.6z M16.5,163.7c-0.4-0.1-0.6-0.6-0.5-1l0,0c0.1-0.4,0.6-0.6,1-0.5l0,0c0.4,0.1,0.6,0.6,0.5,1l0,0
		c-0.1,0.3-0.4,0.5-0.7,0.5l0,0C16.6,163.7,16.6,163.7,16.5,163.7z M69.3,163c-0.1-0.4,0.2-0.8,0.6-0.9l0,0c0.4-0.1,0.8,0.2,0.9,0.6
		l0,0c0.1,0.4-0.2,0.8-0.6,0.9l0,0l0,0l0,0c0,0-0.1,0-0.1,0l0,0C69.6,163.6,69.3,163.3,69.3,163z M73,162.2
		c-0.1-0.4,0.2-0.8,0.6-0.9l0,0c0.4-0.1,0.8,0.2,0.9,0.6l0,0c0.1,0.4-0.2,0.8-0.6,0.9l0,0l0,0l0,0c-0.1,0-0.1,0-0.2,0l0,0
		C73.4,162.8,73.1,162.6,73,162.2z M12.8,162.2c-0.4-0.2-0.5-0.6-0.3-1l0,0c0.2-0.4,0.6-0.5,1-0.3l0,0c0.4,0.2,0.5,0.6,0.3,1l0,0
		c-0.1,0.2-0.4,0.4-0.7,0.4l0,0C13.1,162.2,12.9,162.2,12.8,162.2z M76.8,161.4c-0.1-0.4,0.2-0.8,0.6-0.9l0,0
		c0.4-0.1,0.8,0.2,0.9,0.6l0,0c0.1,0.4-0.2,0.8-0.6,0.9l0,0c-0.1,0-0.1,0-0.2,0l0,0C77.2,162,76.9,161.8,76.8,161.4z M80.5,160.5
		c-0.1-0.4,0.1-0.8,0.5-0.9l0,0c0.4-0.1,0.8,0.2,0.9,0.6l0,0c0.1,0.4-0.1,0.8-0.5,0.9l0,0c-0.1,0-0.1,0-0.2,0l0,0
		C80.9,161.1,80.6,160.9,80.5,160.5z M84.3,159.6c-0.1-0.4,0.1-0.8,0.5-0.9l0,0c0.4-0.1,0.8,0.1,0.9,0.5l0,0
		c0.1,0.4-0.1,0.8-0.5,0.9l0,0l0,0l0,0c-0.1,0-0.1,0-0.2,0l0,0C84.7,160.2,84.3,160,84.3,159.6z M9.5,160C9.5,160,9.5,160,9.5,160
		L9.5,160c-0.3-0.3-0.4-0.7-0.1-1.1l0,0c0.3-0.3,0.7-0.4,1.1-0.1l0,0c0.3,0.3,0.4,0.7,0.1,1.1l0,0c-0.1,0.2-0.4,0.3-0.6,0.3l0,0
		C9.8,160.2,9.6,160.1,9.5,160z M88,158.6c-0.1-0.4,0.1-0.8,0.5-0.9l0,0c0.4-0.1,0.8,0.1,0.9,0.5l0,0c0.1,0.4-0.1,0.8-0.5,0.9l0,0
		l0,0l0,0c-0.1,0-0.1,0-0.2,0l0,0C88.4,159.2,88.1,159,88,158.6z M91.7,157.6c-0.1-0.4,0.1-0.8,0.5-0.9l0,0c0.4-0.1,0.8,0.1,0.9,0.5
		l0,0c0.1,0.4-0.1,0.8-0.5,0.9l0,0c-0.1,0-0.1,0-0.2,0l0,0C92.1,158.1,91.8,157.9,91.7,157.6z M6.8,156.9L6.8,156.9L6.8,156.9
		c-0.2-0.4-0.1-0.8,0.3-1l0,0c0.4-0.2,0.8-0.1,1,0.3l0,0c0.2,0.4,0.1,0.8-0.3,1l0,0c-0.1,0.1-0.2,0.1-0.4,0.1l0,0
		C7.2,157.3,7,157.1,6.8,156.9z M95.3,156.5c-0.1-0.4,0.1-0.8,0.5-0.9l0,0c0.4-0.1,0.8,0.1,0.9,0.5l0,0c0.1,0.4-0.1,0.8-0.5,0.9l0,0
		c-0.1,0-0.2,0-0.2,0l0,0C95.7,157,95.4,156.8,95.3,156.5z M99,155.3c-0.1-0.4,0.1-0.8,0.5-1l0,0c0.4-0.1,0.8,0.1,1,0.5l0,0
		c0.1,0.4-0.1,0.8-0.5,1l0,0c-0.1,0-0.2,0-0.2,0l0,0C99.4,155.8,99.1,155.6,99,155.3z M102.6,154c-0.1-0.4,0.1-0.8,0.5-1h0
		c0.4-0.1,0.8,0.1,1,0.5l0,0c0.1,0.4-0.1,0.8-0.5,1l0,0l0,0l0,0c-0.1,0-0.2,0-0.2,0l0,0C103,154.5,102.7,154.3,102.6,154z
		 M106.2,152.7c-0.1-0.4,0.1-0.8,0.5-1l0,0c0.4-0.1,0.8,0,1,0.4l0,0c0.1,0.4-0.1,0.8-0.4,1l0,0l0,0l0,0c-0.1,0-0.2,0-0.3,0l0,0
		C106.6,153.2,106.4,153,106.2,152.7z M109.8,151.4c-0.1-0.4,0-0.8,0.4-1l0,0c0.4-0.1,0.8,0,1,0.4l0,0c0.1,0.4,0,0.8-0.4,1l0,0
		c-0.1,0-0.2,0-0.3,0l0,0C110.3,151.9,110,151.7,109.8,151.4z M113.4,150c-0.2-0.4,0-0.8,0.4-1l0,0c0.4-0.2,0.8,0,1,0.4l0,0
		c0.1,0.4,0,0.8-0.4,1l0,0l0,0l0,0c-0.1,0-0.2,0-0.3,0l0,0C113.8,150.5,113.5,150.3,113.4,150z M117,148.5c-0.2-0.4,0-0.8,0.4-1l0,0
		c0.4-0.2,0.8,0,1,0.4l0,0c0.2,0.4,0,0.8-0.4,1l0,0c-0.1,0-0.2,0.1-0.3,0.1l0,0C117.4,149,117.1,148.8,117,148.5z M120.5,147
		c-0.2-0.4,0-0.8,0.4-1l0,0c0.4-0.2,0.8,0,1,0.4l0,0c0.2,0.4,0,0.8-0.4,1l0,0c0,0,0,0,0,0l0,0c-0.1,0-0.2,0.1-0.3,0.1l0,0
		C120.9,147.5,120.6,147.3,120.5,147z M124,145.5c-0.2-0.4,0-0.8,0.4-1l0,0c0.4-0.2,0.8,0,1,0.4l0,0c0.2,0.4,0,0.8-0.4,1l0,0
		c0,0,0,0,0,0l0,0c-0.1,0-0.2,0.1-0.3,0.1l0,0C124.4,145.9,124.2,145.8,124,145.5z M127.5,143.8c-0.2-0.4,0-0.8,0.4-1h0
		c0.4-0.2,0.8,0,1,0.4l0,0c0.2,0.4,0,0.8-0.4,1l0,0c-0.1,0-0.2,0.1-0.3,0.1l0,0C127.9,144.3,127.6,144.1,127.5,143.8z M131,142.2
		c-0.2-0.4,0-0.8,0.3-1l0,0c0.4-0.2,0.8,0,1,0.3l0,0c0.2,0.4,0,0.8-0.3,1l0,0c-0.1,0-0.2,0.1-0.3,0.1l0,0
		C131.4,142.6,131.1,142.4,131,142.2z M134.4,140.4c-0.2-0.4-0.1-0.8,0.3-1l0,0c0.4-0.2,0.8,0,1,0.3l0,0c0.2,0.4,0.1,0.8-0.3,1l0,0
		c-0.1,0.1-0.2,0.1-0.3,0.1l0,0C134.8,140.8,134.5,140.7,134.4,140.4z M137.8,138.6c-0.2-0.4-0.1-0.8,0.3-1l0,0
		c0.4-0.2,0.8-0.1,1,0.3l0,0c0.2,0.4,0.1,0.8-0.3,1l0,0c-0.1,0.1-0.2,0.1-0.4,0.1l0,0C138.2,139,137.9,138.8,137.8,138.6z
		 M141.1,136.7c-0.2-0.4-0.1-0.8,0.3-1l0,0c0.4-0.2,0.8-0.1,1,0.3l0,0c0.2,0.4,0.1,0.8-0.3,1l0,0c-0.1,0.1-0.2,0.1-0.4,0.1l0,0
		C141.5,137.1,141.3,137,141.1,136.7z M144.4,134.7c-0.2-0.4-0.1-0.8,0.2-1l0,0c0.3-0.2,0.8-0.1,1,0.2l0,0c0.2,0.4,0.1,0.8-0.2,1
		l0,0c-0.1,0.1-0.3,0.1-0.4,0.1l0,0C144.8,135.1,144.6,135,144.4,134.7z M147.7,132.7c-0.2-0.4-0.1-0.8,0.2-1l0,0
		c0.4-0.2,0.8-0.1,1,0.2l0,0c0.2,0.3,0.1,0.8-0.2,1l0,0c-0.1,0.1-0.3,0.1-0.4,0.1l0,0C148.1,133,147.8,132.9,147.7,132.7z
		 M150.9,130.6c-0.2-0.3-0.2-0.8,0.2-1l0,0c0.3-0.2,0.8-0.2,1,0.2l0,0c0.2,0.3,0.2,0.8-0.2,1l0,0l0,0l0,0c-0.1,0.1-0.3,0.1-0.4,0.1
		l0,0C151.2,130.9,151,130.8,150.9,130.6z M154,128.3c-0.2-0.3-0.2-0.8,0.1-1l0,0c0.3-0.2,0.8-0.2,1.1,0.1l0,0
		c0.2,0.3,0.2,0.8-0.2,1l0,0c-0.1,0.1-0.3,0.2-0.5,0.2l0,0C154.4,128.6,154.1,128.5,154,128.3z M157,126c-0.3-0.3-0.2-0.8,0.1-1.1
		l0,0c0.3-0.3,0.8-0.2,1.1,0.1l0,0c0.3,0.3,0.2,0.8-0.1,1.1l0,0c-0.1,0.1-0.3,0.2-0.5,0.2l0,0C157.4,126.3,157.2,126.2,157,126z
		 M160,123.5c-0.3-0.3-0.2-0.8,0.1-1.1h0c0.3-0.3,0.8-0.2,1.1,0.1l0,0c0.3,0.3,0.2,0.8-0.1,1.1l0,0l0,0l0,0
		c-0.1,0.1-0.3,0.2-0.5,0.2l0,0C160.3,123.8,160.1,123.7,160,123.5z M162.8,120.9c-0.3-0.3-0.3-0.8,0-1.1l0,0c0.3-0.3,0.8-0.3,1.1,0
		l0,0c0.3,0.3,0.3,0.8,0,1.1l0,0c0,0,0,0,0,0l0,0c-0.2,0.1-0.3,0.2-0.5,0.2l0,0C163.2,121.1,163,121.1,162.8,120.9z M165.5,118.2
		c-0.3-0.3-0.3-0.8-0.1-1.1l0,0c0.3-0.3,0.7-0.3,1.1-0.1l0,0c0.3,0.3,0.3,0.8,0.1,1.1l0,0c-0.2,0.2-0.4,0.3-0.6,0.3l0,0
		C165.8,118.3,165.6,118.3,165.5,118.2z M167.9,115.2c-0.3-0.2-0.4-0.7-0.2-1l0,0c0.2-0.3,0.7-0.4,1-0.2l0,0c0.3,0.2,0.4,0.7,0.2,1
		l0,0c-0.1,0.2-0.4,0.3-0.6,0.3l0,0C168.2,115.3,168.1,115.3,167.9,115.2z M170,112c-0.4-0.2-0.5-0.7-0.3-1l0,0
		c0.2-0.4,0.6-0.5,1-0.3l0,0c0.4,0.2,0.5,0.6,0.3,1l0,0c-0.1,0.2-0.4,0.4-0.7,0.4l0,0C170.3,112.1,170.2,112.1,170,112z
		 M171.7,108.5c-0.4-0.1-0.6-0.5-0.5-0.9l0,0c0.1-0.4,0.5-0.6,0.9-0.5l0,0c0.4,0.1,0.6,0.5,0.5,0.9l0,0c-0.1,0.3-0.4,0.5-0.7,0.5
		l0,0C171.8,108.6,171.8,108.5,171.7,108.5z M172.5,104.8c-0.4,0-0.8-0.3-0.8-0.8l0,0c0-0.4,0.3-0.7,0.8-0.7l0,0
		c0.4,0,0.8,0.3,0.7,0.8l0,0C173.3,104.5,172.9,104.8,172.5,104.8L172.5,104.8L172.5,104.8z M171.1,100.5L171.1,100.5
		c-0.1-0.4,0.1-0.8,0.4-1l0,0c0.4-0.2,0.8,0,1,0.4l0,0c0,0,0,0,0,0l0,0c0.2,0.4,0,0.8-0.4,1l0,0c-0.1,0-0.2,0.1-0.3,0.1l0,0
		C171.5,101,171.3,100.8,171.1,100.5z"/>
</g>
<g>
	<linearGradient id="SVGID_12_" gradientUnits="userSpaceOnUse" x1="11.6021" y1="129.3295" x2="148.7796" y2="50.1301">
		<stop  offset="0" style="stop-color:#28CB75"/>
		<stop  offset="1" style="stop-color:#288FEB"/>
	</linearGradient>
	<path fill="url(#SVGID_12_)" d="M23.9,118.3c-0.4,0-0.8-0.3-0.8-0.8l0,0c0-0.4,0.3-0.8,0.8-0.7l0,0c0.4,0,0.8,0.3,0.7,0.8l0,0
		C24.6,118,24.3,118.3,23.9,118.3L23.9,118.3L23.9,118.3z M27,117.5c0-0.4,0.3-0.8,0.7-0.8l0,0c0.4,0,0.8,0.3,0.8,0.7l0,0
		c0,0.4-0.3,0.8-0.7,0.8l0,0c0,0,0,0,0,0l0,0C27.3,118.2,27,117.9,27,117.5z M20,118.2c-0.4,0-0.7-0.4-0.7-0.8l0,0
		c0-0.4,0.4-0.7,0.8-0.7l0,0c0.4,0,0.7,0.4,0.7,0.8l0,0C20.8,117.9,20.4,118.2,20,118.2L20,118.2C20,118.2,20,118.2,20,118.2z
		 M30.8,117.3c0-0.4,0.3-0.8,0.7-0.8l0,0c0.4,0,0.8,0.3,0.8,0.7l0,0c0,0.4-0.3,0.8-0.7,0.8l0,0c0,0,0,0,0,0l0,0
		C31.2,118,30.8,117.7,30.8,117.3z M16.1,117.9C16.1,117.9,16.1,117.9,16.1,117.9L16.1,117.9c-0.4-0.1-0.7-0.4-0.7-0.8l0,0
		c0-0.4,0.4-0.7,0.8-0.7l0,0c0.4,0,0.7,0.4,0.7,0.8l0,0C16.9,117.6,16.6,117.9,16.1,117.9L16.1,117.9
		C16.2,117.9,16.1,117.9,16.1,117.9z M34.6,117.1c0-0.4,0.3-0.8,0.7-0.8l0,0c0.4,0,0.8,0.3,0.8,0.7l0,0c0,0.4-0.3,0.8-0.7,0.8l0,0
		c0,0,0,0,0,0l0,0c0,0,0,0-0.1,0l0,0C35,117.7,34.7,117.5,34.6,117.1z M38.5,116.7c-0.1-0.4,0.2-0.8,0.6-0.8v0
		c0.4,0,0.8,0.2,0.8,0.7l0,0c0,0.4-0.2,0.8-0.6,0.8l0,0c0,0-0.1,0-0.1,0l0,0C38.8,117.3,38.5,117,38.5,116.7z M12.3,117.3
		c-0.4-0.1-0.7-0.5-0.6-0.9l0,0c0.1-0.4,0.5-0.7,0.9-0.6l0,0c0.4,0.1,0.7,0.5,0.6,0.9l0,0c-0.1,0.4-0.4,0.6-0.7,0.6l0,0
		C12.4,117.3,12.3,117.3,12.3,117.3z M42.3,116.2c-0.1-0.4,0.2-0.8,0.6-0.8l0,0c0.4-0.1,0.8,0.2,0.9,0.6l0,0
		c0.1,0.4-0.2,0.8-0.6,0.8l0,0l0,0l0,0c0,0-0.1,0-0.1,0l0,0C42.6,116.8,42.3,116.6,42.3,116.2z M8.4,116.3c-0.4-0.1-0.6-0.5-0.5-0.9
		l0,0c0.1-0.4,0.6-0.6,1-0.5l0,0c0.4,0.1,0.6,0.5,0.5,1l0,0c-0.1,0.3-0.4,0.5-0.7,0.5l0,0C8.6,116.4,8.5,116.3,8.4,116.3z
		 M46.1,115.6c-0.1-0.4,0.2-0.8,0.6-0.9l0,0c0.4-0.1,0.8,0.2,0.9,0.6l0,0c0.1,0.4-0.2,0.8-0.6,0.9l0,0c0,0-0.1,0-0.1,0l0,0
		C46.4,116.2,46.1,116,46.1,115.6z M49.8,115c-0.1-0.4,0.2-0.8,0.6-0.9l0,0c0.4-0.1,0.8,0.2,0.9,0.6l0,0c0.1,0.4-0.2,0.8-0.6,0.9
		l0,0c-0.1,0-0.1,0-0.1,0l0,0C50.2,115.6,49.9,115.3,49.8,115z M4.8,114.7c-0.4-0.2-0.5-0.7-0.3-1l0,0c0.2-0.4,0.7-0.5,1-0.3l0,0
		c0.4,0.2,0.5,0.7,0.3,1l0,0c-0.1,0.2-0.4,0.4-0.7,0.4l0,0C5,114.8,4.9,114.8,4.8,114.7z M53.6,114.2c-0.1-0.4,0.2-0.8,0.6-0.9l0,0
		c0.4-0.1,0.8,0.2,0.9,0.6l0,0c0.1,0.4-0.2,0.8-0.6,0.9l0,0c0,0-0.1,0-0.1,0l0,0C54,114.8,53.7,114.6,53.6,114.2z M57.4,113.4
		c-0.1-0.4,0.2-0.8,0.6-0.9l0,0c0.4-0.1,0.8,0.2,0.9,0.6l0,0c0.1,0.4-0.2,0.8-0.6,0.9l0,0c-0.1,0-0.1,0-0.2,0l0,0
		C57.8,114,57.5,113.8,57.4,113.4z M61.1,112.6c-0.1-0.4,0.1-0.8,0.5-0.9l0,0c0.4-0.1,0.8,0.1,0.9,0.5l0,0c0.1,0.4-0.1,0.8-0.5,0.9
		l0,0c-0.1,0-0.1,0-0.2,0l0,0C61.5,113.1,61.2,112.9,61.1,112.6z M1.6,112.1L1.6,112.1L1.6,112.1c-0.2-0.3-0.2-0.8,0.2-1l0,0
		c0.3-0.2,0.8-0.2,1,0.2l0,0c0.2,0.3,0.2,0.8-0.2,1l0,0c-0.1,0.1-0.3,0.2-0.4,0.2l0,0C2,112.4,1.8,112.3,1.6,112.1z M64.8,111.6
		c-0.1-0.4,0.1-0.8,0.5-0.9l0,0c0.4-0.1,0.8,0.1,0.9,0.5l0,0c0.1,0.4-0.1,0.8-0.5,0.9l0,0c-0.1,0-0.1,0-0.2,0l0,0
		C65.2,112.2,64.9,112,64.8,111.6z M68.6,110.6c-0.1-0.4,0.1-0.8,0.5-0.9l0,0c0.4-0.1,0.8,0.1,0.9,0.5l0,0c0.1,0.4-0.1,0.8-0.5,0.9
		l0,0c0,0,0,0,0,0l0,0c-0.1,0-0.1,0-0.2,0l0,0C69,111.2,68.7,111,68.6,110.6z M72.3,109.6c-0.1-0.4,0.1-0.8,0.5-0.9l0,0
		c0.4-0.1,0.8,0.1,0.9,0.5l0,0c0.1,0.4-0.1,0.8-0.5,0.9l0,0c-0.1,0-0.1,0-0.2,0l0,0C72.6,110.1,72.4,109.9,72.3,109.6z M75.9,108.5
		c-0.1-0.4,0.1-0.8,0.5-0.9l0,0c0.4-0.1,0.8,0.1,0.9,0.5l0,0c0.1,0.4-0.1,0.8-0.5,0.9l0,0c-0.1,0-0.1,0-0.2,0l0,0
		C76.3,109,76,108.8,75.9,108.5z M79.6,107.3c-0.1-0.4,0.1-0.8,0.5-1l0,0c0.4-0.1,0.8,0.1,0.9,0.5l0,0c0.1,0.4-0.1,0.8-0.5,1l0,0
		l0,0l0,0c-0.1,0-0.2,0-0.2,0l0,0C80,107.8,79.7,107.6,79.6,107.3z M83.2,106.1c-0.1-0.4,0.1-0.8,0.5-1v0c0.4-0.1,0.8,0.1,0.9,0.5
		l0,0c0.1,0.4-0.1,0.8-0.4,1l0,0l0,0l0,0c-0.1,0-0.2,0-0.2,0l0,0C83.6,106.6,83.3,106.4,83.2,106.1z M86.8,104.8
		c-0.1-0.4,0.1-0.8,0.4-1l0,0c0.4-0.1,0.8,0.1,1,0.5l0,0c0.1,0.4-0.1,0.8-0.4,1l0,0c-0.1,0-0.2,0-0.3,0l0,0
		C87.2,105.3,87,105.1,86.8,104.8z M90.4,103.4c-0.1-0.4,0.1-0.8,0.4-1l0,0c0.4-0.2,0.8,0,1,0.4l0,0c0.1,0.4,0,0.8-0.4,1l0,0l0,0
		l0,0c-0.1,0-0.2,0-0.3,0l0,0C90.8,103.9,90.6,103.7,90.4,103.4z M94,102c-0.1-0.4,0-0.8,0.4-1l0,0c0.4-0.2,0.8,0,1,0.4l0,0
		c0.2,0.4,0,0.8-0.4,1l0,0l0,0l0,0c-0.1,0-0.2,0.1-0.3,0.1l0,0C94.4,102.5,94.1,102.3,94,102z M97.6,100.6c-0.2-0.4,0-0.8,0.4-1l0,0
		c0.4-0.2,0.8,0,1,0.4l0,0c0.2,0.4,0,0.8-0.4,1l0,0c0,0,0,0,0,0l0,0c-0.1,0-0.2,0.1-0.3,0.1l0,0C98,101,97.7,100.9,97.6,100.6z
		 M101.1,99.1c-0.2-0.4,0-0.8,0.4-1l0,0c0.4-0.2,0.8,0,1,0.4l0,0c0.2,0.4,0,0.8-0.4,1l0,0l0,0l0,0c-0.1,0-0.2,0.1-0.3,0.1l0,0
		C101.5,99.5,101.2,99.3,101.1,99.1z M104.6,97.5c-0.2-0.4,0-0.8,0.4-1l0,0c0.4-0.2,0.8,0,1,0.4l0,0c0.2,0.4,0,0.8-0.4,1l0,0
		c0,0,0,0,0,0l0,0c-0.1,0-0.2,0.1-0.3,0.1l0,0C105,97.9,104.8,97.8,104.6,97.5z M108.1,95.9c-0.2-0.4,0-0.8,0.3-1l0,0
		c0.4-0.2,0.8,0,1,0.4l0,0c0.2,0.4,0,0.8-0.3,1l0,0c-0.1,0-0.2,0.1-0.3,0.1l0,0C108.5,96.3,108.2,96.2,108.1,95.9z M111.6,94.2
		c-0.2-0.4,0-0.8,0.3-1l0,0c0.4-0.2,0.8,0,1,0.3l0,0c0.2,0.4,0,0.8-0.3,1l0,0c-0.1,0.1-0.2,0.1-0.3,0.1l0,0
		C112,94.6,111.7,94.5,111.6,94.2z M115,92.5c-0.2-0.4-0.1-0.8,0.3-1l0,0c0.4-0.2,0.8-0.1,1,0.3l0,0c0.2,0.4,0,0.8-0.3,1l0,0l0,0
		l0,0c-0.1,0.1-0.2,0.1-0.3,0.1l0,0C115.4,92.9,115.1,92.8,115,92.5z M118.4,90.7c-0.2-0.4-0.1-0.8,0.3-1l0,0c0.4-0.2,0.8-0.1,1,0.3
		l0,0c0.2,0.4,0.1,0.8-0.3,1l0,0c-0.1,0.1-0.2,0.1-0.4,0.1l0,0C118.8,91.1,118.5,90.9,118.4,90.7z M121.8,88.8
		c-0.2-0.4-0.1-0.8,0.3-1l0,0c0.3-0.2,0.8-0.1,1,0.3l0,0c0.2,0.4,0.1,0.8-0.3,1l0,0l0,0l0,0c-0.1,0.1-0.2,0.1-0.4,0.1l0,0
		C122.1,89.2,121.9,89.1,121.8,88.8z M125.1,86.9c-0.2-0.4-0.1-0.8,0.3-1l0,0c0.3-0.2,0.8-0.1,1,0.2l0,0c0.2,0.4,0.1,0.8-0.2,1l0,0
		c-0.1,0.1-0.3,0.1-0.4,0.1l0,0C125.5,87.2,125.2,87.1,125.1,86.9z M128.3,84.9c-0.2-0.3-0.1-0.8,0.2-1l0,0c0.4-0.2,0.8-0.1,1,0.2
		l0,0c0.2,0.4,0.1,0.8-0.2,1l0,0l0,0l0,0c-0.1,0.1-0.3,0.1-0.4,0.1l0,0C128.7,85.2,128.5,85.1,128.3,84.9z M131.6,82.8
		c-0.2-0.3-0.1-0.8,0.2-1l0,0c0.3-0.2,0.8-0.1,1,0.2l0,0c0.2,0.3,0.1,0.8-0.2,1.1l0,0c-0.1,0.1-0.3,0.1-0.4,0.1l0,0
		C131.9,83.1,131.7,83,131.6,82.8z M134.7,80.6c-0.2-0.3-0.2-0.8,0.2-1.1h0c0.3-0.2,0.8-0.2,1.1,0.2l0,0c0.2,0.3,0.2,0.8-0.2,1l0,0
		c-0.1,0.1-0.3,0.1-0.5,0.1l0,0C135.1,80.9,134.8,80.8,134.7,80.6z M137.8,78.2c-0.3-0.3-0.2-0.8,0.1-1l0,0c0.3-0.3,0.8-0.2,1.1,0.1
		l0,0c0.3,0.3,0.2,0.8-0.1,1l0,0c-0.1,0.1-0.3,0.2-0.5,0.2l0,0C138.1,78.5,137.9,78.4,137.8,78.2z M140.7,75.8
		c-0.3-0.3-0.2-0.8,0.1-1l0,0c0.3-0.3,0.8-0.2,1.1,0.1l0,0c0.3,0.3,0.2,0.8-0.1,1.1l0,0l0,0l0,0c-0.1,0.1-0.3,0.2-0.5,0.2l0,0
		C141.1,76.1,140.9,76,140.7,75.8z M143.6,73.2c-0.3-0.3-0.3-0.8,0-1.1l0,0c0.3-0.3,0.8-0.3,1.1,0l0,0c0.3,0.3,0.3,0.8,0,1.1l0,0
		c-0.1,0.1-0.3,0.2-0.5,0.2l0,0C143.9,73.4,143.7,73.4,143.6,73.2z M146.2,70.4c-0.3-0.3-0.4-0.7-0.1-1.1l0,0
		c0.3-0.3,0.8-0.4,1.1-0.1l0,0c0.3,0.3,0.3,0.7,0.1,1.1l0,0c-0.2,0.2-0.4,0.3-0.6,0.3l0,0C146.5,70.6,146.4,70.6,146.2,70.4z
		 M148.6,67.4c-0.3-0.2-0.4-0.7-0.2-1h0c0.2-0.4,0.7-0.4,1-0.2l0,0c0.3,0.2,0.4,0.7,0.2,1l0,0l0,0l0,0c-0.1,0.2-0.4,0.3-0.6,0.3l0,0
		C148.9,67.6,148.8,67.5,148.6,67.4z M150.6,64.1c-0.4-0.2-0.6-0.6-0.4-1l0,0c0.2-0.4,0.6-0.6,1-0.4l0,0c0.4,0.2,0.6,0.6,0.4,1l0,0
		c-0.1,0.3-0.4,0.5-0.7,0.5l0,0C150.8,64.2,150.7,64.2,150.6,64.1z M151.8,60.5c-0.4,0-0.7-0.4-0.7-0.8v0c0-0.4,0.4-0.7,0.8-0.7l0,0
		c0.4,0,0.7,0.4,0.7,0.8l0,0l0,0l0,0C152.6,60.2,152.2,60.5,151.8,60.5L151.8,60.5C151.8,60.5,151.8,60.5,151.8,60.5z M150.6,56.3
		c-0.2-0.4,0-0.8,0.4-1l0,0c0.4-0.2,0.8,0,1,0.4l0,0l0,0l0,0c0.2,0.4,0,0.8-0.4,1l0,0c-0.1,0-0.2,0.1-0.3,0.1l0,0
		C151,56.8,150.7,56.6,150.6,56.3z"/>
</g>
</svg>
