<?xml version="1.0" encoding="utf-8"?>
<!-- Generator: Adobe Illustrator 18.1.1, SVG Export Plug-In . SVG Version: 6.00 Build 0)  -->
<svg version="1.1" xmlns="http://www.w3.org/2000/svg" xmlns:xlink="http://www.w3.org/1999/xlink" x="0px" y="0px"
	 viewBox="0 0 187.1 196.8" enable-background="new 0 0 187.1 196.8" xml:space="preserve">
<g id="Layer_1">
</g>
<g id="Layer_2">
	<g>
		<path fill="#FFFFFF" stroke="#288FEB" stroke-width="1.5" stroke-miterlimit="10" d="M78.8,95.3c0-8.9,32.3-8.9,32.3,0
			s-7.2,16.1-16.1,16.1S78.8,104.2,78.8,95.3z"/>
		<g>
			<path fill="#FFFFFF" d="M69.9,116.2c-1,0-1.8-0.7-1.9-1.7c-0.5-3.7,1.8-9.3,5-10.3l19.7-6.1c0.5-0.2,1-0.2,1.6-0.2
				c2.3,0,4.4,1.5,5.1,3.7c0.9,2.8-0.7,5.8-3.5,6.6l-25,7.8C70.6,116.2,70.2,116.2,69.9,116.2z"/>
			<g>
				<path fill="#288FEB" d="M94.2,98.6c1.9,0,3.7,1.2,4.3,3.2c0.7,2.4-0.6,5-3,5.7l-25,7.8c-0.3,0.1-0.5,0.2-0.8,0.2
					c-0.7,0-1.1-0.5-1.2-1c-0.5-3.4,1.7-8.6,4.5-9.5l19.7-6.1C93.3,98.7,93.8,98.6,94.2,98.6 M94.2,97.1L94.2,97.1
					c-0.6,0-1.2,0.1-1.8,0.3l-19.7,6.1c-3.6,1.2-6.1,7.1-5.5,11.1c0.2,1.4,1.3,2.3,2.7,2.3c0.4,0,0.8-0.1,1.3-0.3L96,109
					c1.5-0.5,2.8-1.5,3.6-3c0.8-1.4,0.9-3.1,0.4-4.6C99.2,98.8,96.9,97.1,94.2,97.1L94.2,97.1z"/>
			</g>
		</g>
		<circle fill="#288FEB" cx="94" cy="102.9" r="2.2"/>
		
			<ellipse transform="matrix(-0.9346 -0.3557 0.3557 -0.9346 99.8562 239.1355)" fill="#288FEB" cx="71.9" cy="110.4" rx="1.3" ry="4.1"/>
		<path fill="none" stroke="#28CB75" stroke-linecap="round" stroke-linejoin="round" stroke-miterlimit="10" d="M94.4,123.6
			c-0.7,0.3-1.4,0.4-2.1,0.5c-5.2,0.7-10-2.9-10.8-8.2"/>
		<path fill="none" stroke="#28CB75" stroke-linecap="round" stroke-linejoin="round" stroke-miterlimit="10" d="M100.2,117.2
			c-0.4,1.5-1.1,2.8-2.1,3.9"/>
		<path fill="none" stroke="#28CB75" stroke-linecap="round" stroke-linejoin="round" stroke-miterlimit="10" d="M85.9,127.3
			c-3.3-1.3-6-3.9-7.4-7.2"/>
		<path fill="none" stroke="#28CB75" stroke-linecap="round" stroke-linejoin="round" stroke-miterlimit="10" d="M104.4,112.8
			c1,7.1-3.7,13.6-10.5,15.1"/>
		<path fill="#FFFFFF" stroke="#288FEB" stroke-width="1.4994" stroke-linejoin="round" stroke-miterlimit="10" d="M107.9,92.9
			c-9.1,3.1-17.9,3.5-26.5,0L2.9,35.1h183.5L107.9,92.9z"/>
		<ellipse fill="#FFFFFF" stroke="#288FEB" stroke-width="1.5" stroke-miterlimit="10" cx="94.6" cy="34.6" rx="91.7" ry="6.2"/>
		<ellipse fill="#DFEFFD" cx="28.2" cy="193.6" rx="28.2" ry="3.2"/>
		<ellipse fill="#DFEFFD" cx="148" cy="190.3" rx="14.4" ry="2.4"/>
		<path fill="#FFFFFF" d="M1.6,152.1c0,14.2,12.5,25.8,27.9,25.8s27.9-11.5,27.9-25.8c0-10.5-2.8-13.9-11.1-22.6
			c0,0-5.8,0.2-17.3,0.2c-8.6,0-18.6,0-18.6,0C4.2,139.4,1.6,145.6,1.6,152.1z"/>
		<ellipse fill="#288FEB" cx="94.6" cy="93.2" rx="9.5" ry="2.2"/>
		<g>
			<g>
				<g>
					<g>
						<g>
							<path fill="#DFEFFD" d="M148,134.6c0,0,21.1,21.2,21.1,32.4s-9.5,21.2-20.9,21.2c0,0,10.4-3.9,11.5-17.6
								C161.7,147.5,148,134.6,148,134.6z"/>
							
								<path fill="none" stroke="#288FEB" stroke-width="2" stroke-linecap="round" stroke-linejoin="round" stroke-miterlimit="10" d="
								M142.6,140.6l5.4-6c0,0,21.1,21.7,21.1,33.4c0,11.7-9.5,20.3-21.1,20.3c-11.7,0-21.1-9.7-21.1-20.3c0-6.3,3.4-11.6,8.6-18.1"
								/>
						</g>
					</g>
				</g>
			</g>
		</g>
		<g>
			<circle fill="#FFFFFF" stroke="#28CB75" stroke-miterlimit="10" cx="50.8" cy="112.8" r="3"/>
			<circle fill="#FFFFFF" stroke="#28CB75" stroke-miterlimit="10" cx="40.6" cy="113.4" r="1.5"/>
			<circle fill="#FFFFFF" stroke="#28CB75" stroke-miterlimit="10" cx="36.4" cy="120.1" r="1.8"/>
			<circle fill="#FFFFFF" stroke="#28CB75" stroke-miterlimit="10" cx="59.7" cy="108.3" r="1.8"/>
			<circle fill="#FFFFFF" stroke="#28CB75" stroke-miterlimit="10" cx="27.8" cy="123.9" r="2.2"/>
			<circle fill="#FFFFFF" stroke="#28CB75" stroke-miterlimit="10" cx="68.2" cy="109.9" r="3.4"/>
			<circle fill="#FFFFFF" stroke="#28CB75" stroke-miterlimit="10" cx="36.4" cy="139.2" r="2.6"/>
			<circle fill="#FFFFFF" stroke="#28CB75" stroke-miterlimit="10" cx="50.9" cy="150.2" r="2.6"/>
			<circle fill="#FFFFFF" stroke="#28CB75" stroke-miterlimit="10" cx="33.9" cy="171.5" r="2.6"/>
			<circle fill="#FFFFFF" stroke="#28CB75" stroke-miterlimit="10" cx="46.9" cy="139.5" r="1.7"/>
			<circle fill="#FFFFFF" stroke="#28CB75" stroke-miterlimit="10" cx="29.1" cy="132.1" r="1.7"/>
			<circle fill="#FFFFFF" stroke="#28CB75" stroke-miterlimit="10" cx="34.1" cy="152.9" r="1.7"/>
			<circle fill="#FFFFFF" stroke="#28CB75" stroke-miterlimit="10" cx="42.8" cy="167.4" r="1.7"/>
			<circle fill="#FFFFFF" stroke="#28CB75" stroke-miterlimit="10" cx="41.1" cy="146.4" r="1.1"/>
			<circle fill="#FFFFFF" stroke="#28CB75" stroke-miterlimit="10" cx="38.4" cy="130.1" r="1.1"/>
			<circle fill="#FFFFFF" stroke="#28CB75" stroke-miterlimit="10" cx="29.4" cy="146.3" r="1.1"/>
			<circle fill="#FFFFFF" stroke="#28CB75" stroke-miterlimit="10" cx="49.9" cy="160.4" r="1.1"/>
			<circle fill="#FFFFFF" stroke="#28CB75" stroke-miterlimit="10" cx="41.9" cy="156.9" r="1.1"/>
			<circle fill="#FFFFFF" stroke="#28CB75" stroke-miterlimit="10" cx="33.9" cy="161.9" r="1.5"/>
			<circle fill="#FFFFFF" stroke="#28CB75" stroke-miterlimit="10" cx="24.5" cy="170.7" r="1.1"/>
			<circle fill="#FFFFFF" stroke="#28CB75" stroke-miterlimit="10" cx="21" cy="139.2" r="2.6"/>
			<circle fill="#FFFFFF" stroke="#28CB75" stroke-miterlimit="10" cx="17.8" cy="130.6" r="1.8"/>
			<circle fill="#FFFFFF" stroke="#28CB75" stroke-miterlimit="10" cx="8.3" cy="150.6" r="2.6"/>
			<circle fill="#FFFFFF" stroke="#28CB75" stroke-miterlimit="10" cx="23.7" cy="163.2" r="2.6"/>
			<circle fill="#FFFFFF" stroke="#28CB75" stroke-miterlimit="10" cx="10.5" cy="139.5" r="1.7"/>
			<circle fill="#FFFFFF" stroke="#28CB75" stroke-miterlimit="10" cx="23.2" cy="152.9" r="1.7"/>
			<circle fill="#FFFFFF" stroke="#28CB75" stroke-miterlimit="10" cx="15.3" cy="166.4" r="1.7"/>
			<circle fill="#FFFFFF" stroke="#28CB75" stroke-miterlimit="10" cx="16.2" cy="146.4" r="1.1"/>
			<circle fill="#FFFFFF" stroke="#28CB75" stroke-miterlimit="10" cx="8.8" cy="160.1" r="1.1"/>
			<circle fill="#FFFFFF" stroke="#28CB75" stroke-miterlimit="10" cx="15.5" cy="156.9" r="1.1"/>
		</g>
		<path fill="none" stroke="#288FEB" stroke-width="2" stroke-linecap="round" stroke-linejoin="round" stroke-miterlimit="10" d="
			M42.5,124.4c8.1,9.2,15,16.7,15,25.5c0,15.4-12.5,27.9-27.9,27.9S1.6,165.3,1.6,149.9s27.9-42.1,27.9-42.1l3.9,3.6"/>
		<g>
			<circle opacity="0.2" fill="#28CB75" cx="59.2" cy="52.7" r="2.7"/>
			<circle opacity="0.2" fill="#28CB75" cx="78.3" cy="45.6" r="2.7"/>
			<circle opacity="0.2" fill="#28CB75" cx="75.4" cy="59.2" r="2.7"/>
			<circle opacity="0.2" fill="#28CB75" cx="129" cy="69.7" r="2.7"/>
			<circle opacity="0.2" fill="#28CB75" cx="152" cy="49.3" r="2.7"/>
			<circle opacity="0.2" fill="#28CB75" cx="104.5" cy="81.9" r="2.7"/>
			<circle opacity="0.2" fill="#28CB75" cx="99" cy="54.4" r="3.8"/>
			<circle opacity="0.2" fill="#28CB75" cx="132.2" cy="56.6" r="1.7"/>
			<circle opacity="0.2" fill="#28CB75" cx="163.5" cy="43.8" r="1.7"/>
			<circle opacity="0.2" fill="#28CB75" cx="146.5" cy="57.7" r="1.7"/>
			<circle opacity="0.2" fill="#28CB75" cx="111.5" cy="45.6" r="1.7"/>
			<circle opacity="0.2" fill="#28CB75" cx="98.2" cy="74.5" r="1.7"/>
			<circle opacity="0.2" fill="#28CB75" cx="99.5" cy="65.5" r="1"/>
			<circle opacity="0.2" fill="#28CB75" cx="66" cy="71.7" r="2"/>
			<circle opacity="0.2" fill="#28CB75" cx="112" cy="71" r="1.7"/>
			<circle opacity="0.2" fill="#28CB75" cx="108.1" cy="60.3" r="1.7"/>
			<circle opacity="0.2" fill="#28CB75" cx="111.5" cy="56.9" r="1.4"/>
			<circle opacity="0.2" fill="#28CB75" cx="92.5" cy="82.9" r="1.4"/>
			<circle opacity="0.2" fill="#28CB75" cx="22.6" cy="43.8" r="1.7"/>
			<circle opacity="0.2" fill="#28CB75" cx="51.7" cy="60.3" r="1.7"/>
			<circle opacity="0.2" fill="#28CB75" cx="63.1" cy="65.4" r="1.4"/>
			<circle opacity="0.2" fill="#28CB75" cx="121.5" cy="62.1" r="1.4"/>
			<circle opacity="0.2" fill="#28CB75" cx="118.6" cy="78.3" r="1.4"/>
			<circle opacity="0.2" fill="#28CB75" cx="141.1" cy="50" r="1.4"/>
			<circle opacity="0.2" fill="#28CB75" cx="133.5" cy="46.8" r="1.3"/>
			<circle opacity="0.2" fill="#28CB75" cx="68.9" cy="50" r="1.4"/>
			<circle opacity="0.2" fill="#28CB75" cx="89.5" cy="66.3" r="1.4"/>
			<circle opacity="0.2" fill="#28CB75" cx="32.6" cy="48" r="2.5"/>
			<circle opacity="0.2" fill="#28CB75" cx="123.8" cy="47" r="2.5"/>
			<circle opacity="0.2" fill="#28CB75" cx="77.4" cy="79.8" r="3.8"/>
			<circle opacity="0.2" fill="#28CB75" cx="85.4" cy="54.4" r="1.4"/>
			<circle opacity="0.2" fill="#28CB75" cx="82.2" cy="69.2" r="1.4"/>
			<circle opacity="0.2" fill="#28CB75" cx="42.5" cy="54" r="1.4"/>
			<circle opacity="0.2" fill="#28CB75" cx="51.7" cy="47" r="1.4"/>
			<circle opacity="0.2" fill="#28CB75" cx="91.7" cy="46.7" r="1.4"/>
		</g>
		<circle fill="#28CB75" cx="144.9" cy="34.7" r="1.8"/>
		<circle fill="#28CB75" cx="90.5" cy="6.6" r="2"/>
		<circle fill="#28CB75" cx="125.5" cy="10.3" r="2.4"/>
		<circle fill="#28CB75" cx="144.7" cy="20.1" r="3.1"/>
		<circle fill="#28CB75" cx="26.2" cy="30.9" r="3.1"/>
		<circle fill="#28CB75" cx="100.7" cy="35.5" r="3.1"/>
		<circle fill="#28CB75" cx="68.3" cy="11.6" r="1.5"/>
		<circle fill="#28CB75" cx="46.7" cy="34.6" r="2"/>
		<circle fill="#28CB75" cx="65" cy="23.6" r="2.6"/>
		<circle fill="#28CB75" cx="87.2" cy="21.3" r="2"/>
		<circle fill="#28CB75" cx="76.4" cy="35.5" r="2"/>
		<circle fill="#28CB75" cx="126" cy="29.7" r="2.5"/>
		<circle fill="#28CB75" cx="166.2" cy="30.9" r="2.7"/>
		<circle fill="#28CB75" cx="111.5" cy="19.2" r="2"/>
		<circle fill="#28CB75" cx="108.6" cy="1.6" r="1.6"/>
		<circle fill="#28CB75" cx="45.8" cy="22.7" r="2"/>
	</g>
</g>
<g id="Layer_3">
</g>
</svg>
