<?xml version="1.0" encoding="utf-8"?>
<!-- Generator: Adobe Illustrator 17.1.0, SVG Export Plug-In . SVG Version: 6.00 Build 0)  -->
<!DOCTYPE svg PUBLIC "-//W3C//DTD SVG 1.1//EN" "http://www.w3.org/Graphics/SVG/1.1/DTD/svg11.dtd">
<svg version="1.1" id="Layer_1" xmlns="http://www.w3.org/2000/svg" xmlns:xlink="http://www.w3.org/1999/xlink" x="0px" y="0px"
	 viewBox="0 0 279.5 216" enable-background="new 0 0 279.5 216" xml:space="preserve">
<polygon fill="#F3F5F7" points="1.2,166.2 139.4,214.5 277.7,166.2 277.7,155.1 139.4,108.1 1.2,155.1 "/>
<linearGradient id="SVGID_1_" gradientUnits="userSpaceOnUse" x1="1.1598" y1="161.304" x2="277.6735" y2="161.304">
	<stop  offset="0" style="stop-color:#FFFFFF"/>
	<stop  offset="1" style="stop-color:#FFFFFF;stop-opacity:0.2"/>
</linearGradient>
<polygon fill="url(#SVGID_1_)" points="1.2,166.2 139.4,214.5 277.7,166.2 277.7,155.1 139.4,108.1 1.2,155.1 "/>
<linearGradient id="SVGID_2_" gradientUnits="userSpaceOnUse" x1="95.225" y1="152.4588" x2="234.4818" y2="152.4588">
	<stop  offset="0" style="stop-color:#28CB75"/>
	<stop  offset="0.4138" style="stop-color:#28B3A3"/>
	<stop  offset="1" style="stop-color:#288FEB"/>
</linearGradient>
<polyline opacity="0.27" fill="none" stroke="url(#SVGID_2_)" stroke-linecap="round" stroke-miterlimit="10" points="95.7,123.4 
	234,170.4 234,181.5 "/>
<linearGradient id="SVGID_3_" gradientUnits="userSpaceOnUse" x1="47.228" y1="168.7413" x2="186.4848" y2="168.7413">
	<stop  offset="0" style="stop-color:#28CB75"/>
	<stop  offset="0.4138" style="stop-color:#28B3A3"/>
	<stop  offset="1" style="stop-color:#288FEB"/>
</linearGradient>
<polyline opacity="0.27" fill="none" stroke="url(#SVGID_3_)" stroke-linecap="round" stroke-miterlimit="10" points="47.7,139.7 
	186,186.7 186,197.8 "/>
<linearGradient id="SVGID_4_" gradientUnits="userSpaceOnUse" x1="1386.7098" y1="152.7558" x2="1525.9666" y2="152.7558" gradientTransform="matrix(-1 0 0 1 1570.7756 0)">
	<stop  offset="0" style="stop-color:#28CB75"/>
	<stop  offset="0.4138" style="stop-color:#28B3A3"/>
	<stop  offset="1" style="stop-color:#288FEB"/>
</linearGradient>
<polyline opacity="0.27" fill="none" stroke="url(#SVGID_4_)" stroke-linecap="round" stroke-miterlimit="10" points="183.6,123.7 
	45.3,170.7 45.3,181.8 "/>
<linearGradient id="SVGID_5_" gradientUnits="userSpaceOnUse" x1="1338.7128" y1="169.0383" x2="1477.9696" y2="169.0383" gradientTransform="matrix(-1 0 0 1 1570.7756 0)">
	<stop  offset="0" style="stop-color:#28CB75"/>
	<stop  offset="0.4138" style="stop-color:#28B3A3"/>
	<stop  offset="1" style="stop-color:#288FEB"/>
</linearGradient>
<polyline opacity="0.27" fill="none" stroke="url(#SVGID_5_)" stroke-linecap="round" stroke-miterlimit="10" points="231.6,140 
	93.3,187 93.3,198.1 "/>
<polyline opacity="0.27" fill="none" stroke="#83C7FF" stroke-miterlimit="10" points="277.7,155.1 139.4,203.4 1.2,155.1 "/>
<line opacity="0.27" fill="none" stroke="#288FEB" stroke-linecap="round" stroke-miterlimit="10" x1="139.5" y1="203.3" x2="139.5" y2="214.4"/>
<linearGradient id="SVGID_6_" gradientUnits="userSpaceOnUse" x1="159.7743" y1="124.5405" x2="207.3488" y2="141.6376">
	<stop  offset="0" style="stop-color:#288FEB"/>
	<stop  offset="1" style="stop-color:#288FEB;stop-opacity:0.1"/>
</linearGradient>
<polygon opacity="0.5" fill-rule="evenodd" clip-rule="evenodd" fill="url(#SVGID_6_)" points="204.8,151 150.3,132.6 185.2,123.4 
	234.5,140 "/>
<linearGradient id="SVGID_7_" gradientUnits="userSpaceOnUse" x1="137.971" y1="117.3904" x2="169.4362" y2="128.6982">
	<stop  offset="0" style="stop-color:#28CB75"/>
	<stop  offset="1" style="stop-color:#28CB75;stop-opacity:0.1"/>
</linearGradient>
<polygon opacity="0.5" fill-rule="evenodd" clip-rule="evenodd" fill="url(#SVGID_7_)" points="154.5,133.6 126.1,124.5 161,115.3 
	184.2,122.7 "/>
<linearGradient id="SVGID_8_" gradientUnits="userSpaceOnUse" x1="63.4438" y1="137.1983" x2="107.5042" y2="153.607">
	<stop  offset="0" style="stop-color:#28CB75"/>
	<stop  offset="1" style="stop-color:#28CB75;stop-opacity:0.1"/>
</linearGradient>
<polygon opacity="0.5" fill-rule="evenodd" clip-rule="evenodd" fill="url(#SVGID_8_)" points="103.7,161.1 53.6,144 82.7,134.9 
	130.7,151.7 "/>
<linearGradient id="SVGID_9_" gradientUnits="userSpaceOnUse" x1="27.9429" y1="147.5533" x2="82.5721" y2="168.4117">
	<stop  offset="0" style="stop-color:#288FEB"/>
	<stop  offset="1" style="stop-color:#288FEB;stop-opacity:0.1"/>
</linearGradient>
<polygon opacity="0.5" fill-rule="evenodd" clip-rule="evenodd" fill="url(#SVGID_9_)" points="76.5,174.4 15.6,153.4 42.8,145 
	103,165.7 "/>
<linearGradient id="SVGID_10_" gradientUnits="userSpaceOnUse" x1="241.6427" y1="145.3725" x2="257.8062" y2="171.0717">
	<stop  offset="0" style="stop-color:#28CB75"/>
	<stop  offset="1" style="stop-color:#28CB75;stop-opacity:0.1"/>
</linearGradient>
<polygon opacity="0.5" fill-rule="evenodd" clip-rule="evenodd" fill="url(#SVGID_10_)" points="246.3,177.3 246.5,166.1 
	218.7,155.9 249.5,146.2 277.5,155.4 277.2,166 "/>
<linearGradient id="SVGID_11_" gradientUnits="userSpaceOnUse" x1="140.8486" y1="181.2848" x2="156.8616" y2="206.7447">
	<stop  offset="0" style="stop-color:#288FEB"/>
	<stop  offset="1" style="stop-color:#288FEB;stop-opacity:0.1"/>
</linearGradient>
<polygon opacity="0.5" fill-rule="evenodd" clip-rule="evenodd" fill="url(#SVGID_11_)" points="145.7,212.8 145.8,201.3 119,191.1 
	147.9,181.2 175.1,191.3 174.8,202.3 "/>
<linearGradient id="SVGID_12_" gradientUnits="userSpaceOnUse" x1="174.9214" y1="169.805" x2="190.5591" y2="194.6682">
	<stop  offset="0" style="stop-color:#28CB75"/>
	<stop  offset="1" style="stop-color:#28CB75;stop-opacity:0.1"/>
</linearGradient>
<polygon opacity="0.5" fill-rule="evenodd" clip-rule="evenodd" fill="url(#SVGID_12_)" points="180.8,200.8 180.9,189.3 
	154.1,179.1 180.6,169.6 207.8,179.7 207.4,190.7 "/>
<g>
	<g>
		<polygon fill="#FFFFFF" points="158.2,9.5 138.4,3.2 119.2,9.5 119.2,121.5 138.8,128.4 158.2,121.5 		"/>
		<path fill="#28CB75" d="M139.2,128.9l-0.2-0.1l-19.8-7V9.2l19.6-6.4l20.4,6.4v112.7L139.2,128.9z M120.2,121.2l19,6.7l19-6.7V9.9
			l-19.4-6.1l-18.6,6.1V121.2z"/>
	</g>
	<g opacity="0.52">
		<g opacity="0.4">
			<polygon fill="#28CB75" points="160.3,122.1 139.9,116 119.9,122.1 119.6,121.2 139.9,115 160.6,121.2 			"/>
		</g>
		<g opacity="0.4">
			<rect x="138.2" y="3.2" fill="#28CB75" width="1" height="113"/>
		</g>
	</g>
	<g>
		<g>
			<path fill="#28CB75" d="M138.7,17.9c-0.4-0.1-0.6-0.6-0.4-1l0,0c0.1-0.4,0.6-0.6,1-0.4l0,0c0.4,0.1,0.6,0.6,0.4,1l0,0
				c-0.1,0.3-0.4,0.5-0.7,0.5l0,0C138.9,17.9,138.8,17.9,138.7,17.9z M141.1,16.6c-0.1-0.4,0.1-0.8,0.5-1l0,0c0.4-0.1,0.8,0.1,1,0.5
				l0,0c0.1,0.4,0,0.8-0.4,1l0,0c-0.1,0-0.2,0-0.3,0l0,0C141.5,17.1,141.2,16.9,141.1,16.6z M135.9,16.8c-0.4-0.1-0.6-0.6-0.4-1l0,0
				c0.1-0.4,0.6-0.6,1-0.4l0,0c0.4,0.1,0.6,0.6,0.4,1l0,0c-0.1,0.3-0.4,0.5-0.7,0.5l0,0C136.1,16.9,136,16.9,135.9,16.8z
				 M143.9,15.6c-0.1-0.4,0.1-0.8,0.4-1l0,0c0.4-0.1,0.8,0.1,1,0.5l0,0c0.1,0.4-0.1,0.8-0.5,1l0,0c-0.1,0-0.2,0-0.3,0l0,0
				C144.3,16.1,144,15.9,143.9,15.6z M133.1,15.8c-0.4-0.1-0.6-0.6-0.4-1l0,0c0.1-0.4,0.6-0.6,1-0.4l0,0c0.4,0.2,0.6,0.6,0.4,1l0,0
				c-0.1,0.3-0.4,0.5-0.7,0.5l0,0C133.3,15.8,133.2,15.8,133.1,15.8z M146.7,14.5c-0.1-0.4,0.1-0.8,0.5-1l0,0c0.4-0.1,0.8,0.1,1,0.5
				l0,0c0.1,0.4,0,0.8-0.4,1l0,0c-0.1,0-0.2,0.1-0.3,0.1l0,0C147.1,15,146.8,14.8,146.7,14.5z M130.3,14.7c-0.4-0.1-0.6-0.6-0.5-1
				l0,0c0.1-0.4,0.6-0.6,1-0.4l0,0c0.4,0.1,0.6,0.6,0.4,1l0,0c-0.1,0.3-0.4,0.5-0.7,0.5l0,0C130.5,14.8,130.4,14.8,130.3,14.7z
				 M149.5,13.5c-0.2-0.4,0-0.8,0.4-1l0,0c0.4-0.1,0.8,0,1,0.4l0,0c0.1,0.4-0.1,0.8-0.5,1l0,0c-0.1,0-0.2,0.1-0.3,0.1l0,0
				C150,14,149.7,13.8,149.5,13.5z M127.5,13.7c-0.4-0.1-0.6-0.6-0.4-1l0,0c0.1-0.4,0.6-0.6,1-0.4l0,0c0.4,0.1,0.6,0.6,0.4,1l0,0
				c-0.1,0.3-0.4,0.5-0.7,0.5l0,0C127.7,13.7,127.6,13.7,127.5,13.7z M152.4,12.5c-0.1-0.4,0.1-0.8,0.5-1l0,0c0.4-0.1,0.8,0.1,1,0.4
				l0,0c0.1,0.4-0.1,0.8-0.5,1l0,0c-0.1,0-0.2,0.1-0.2,0.1l0,0C152.8,13,152.5,12.8,152.4,12.5z M124.7,12.6c-0.4-0.1-0.6-0.6-0.4-1
				l0,0c0.1-0.4,0.6-0.6,1-0.4l0,0c0.4,0.1,0.6,0.6,0.4,1l0,0c-0.1,0.3-0.4,0.5-0.7,0.5l0,0C124.9,12.7,124.8,12.6,124.7,12.6z
				 M155.2,11.4c-0.1-0.4,0-0.8,0.4-1l0,0c0.4-0.1,0.8,0.1,1,0.4l0,0c0.1,0.4,0,0.8-0.4,1l0,0c-0.1,0-0.2,0.1-0.3,0.1l0,0
				C155.6,11.9,155.3,11.7,155.2,11.4z M121.9,11.6c-0.4-0.1-0.6-0.6-0.4-1l0,0c0.1-0.4,0.6-0.6,1-0.4l0,0c0.4,0.1,0.6,0.6,0.4,1
				l0,0c-0.1,0.3-0.4,0.5-0.7,0.5l0,0C122,11.6,122,11.6,121.9,11.6z"/>
		</g>
	</g>
	<g>
		<g>
			<path fill="#28CB75" d="M138.7,30.3c-0.4-0.1-0.6-0.6-0.4-1l0,0c0.1-0.4,0.6-0.6,1-0.4l0,0c0.4,0.1,0.6,0.6,0.4,1l0,0
				c-0.1,0.3-0.4,0.5-0.7,0.5l0,0C138.9,30.3,138.8,30.3,138.7,30.3z M141.1,29c-0.1-0.4,0.1-0.8,0.5-1l0,0c0.4-0.1,0.8,0.1,1,0.5
				l0,0c0.1,0.4,0,0.8-0.4,1l0,0c-0.1,0-0.2,0-0.3,0l0,0C141.5,29.5,141.2,29.3,141.1,29z M135.9,29.2c-0.4-0.1-0.6-0.6-0.4-1l0,0
				c0.1-0.4,0.6-0.6,1-0.4l0,0c0.4,0.1,0.6,0.6,0.4,1l0,0c-0.1,0.3-0.4,0.5-0.7,0.5l0,0C136.1,29.3,136,29.2,135.9,29.2z M143.9,28
				c-0.1-0.4,0.1-0.8,0.4-1l0,0c0.4-0.1,0.8,0.1,1,0.5l0,0c0.1,0.4-0.1,0.8-0.5,1l0,0c-0.1,0-0.2,0-0.3,0l0,0
				C144.3,28.5,144,28.3,143.9,28z M133.1,28.2c-0.4-0.1-0.6-0.6-0.4-1l0,0c0.1-0.4,0.6-0.6,1-0.4l0,0c0.4,0.1,0.6,0.6,0.4,1l0,0
				c-0.1,0.3-0.4,0.5-0.7,0.5l0,0C133.3,28.2,133.2,28.2,133.1,28.2z M146.7,26.9c-0.1-0.4,0.1-0.8,0.5-1l0,0c0.4-0.2,0.8,0,1,0.4
				l0,0c0.1,0.4,0,0.8-0.4,1l0,0c-0.1,0-0.2,0-0.3,0l0,0C147.1,27.4,146.8,27.2,146.7,26.9z M130.3,27.1c-0.4-0.1-0.6-0.6-0.5-1l0,0
				c0.1-0.4,0.6-0.6,1-0.4l0,0c0.4,0.1,0.6,0.6,0.4,1l0,0c-0.1,0.3-0.4,0.5-0.7,0.5l0,0C130.5,27.2,130.4,27.1,130.3,27.1z
				 M149.5,25.9c-0.2-0.4,0-0.8,0.4-1l0,0c0.4-0.1,0.8,0,1,0.4l0,0c0.1,0.4-0.1,0.8-0.5,1l0,0c-0.1,0-0.2,0-0.3,0l0,0
				C149.9,26.4,149.7,26.2,149.5,25.9z M127.5,26.1c-0.4-0.2-0.6-0.6-0.4-1l0,0c0.1-0.4,0.6-0.6,1-0.4l0,0c0.4,0.1,0.6,0.6,0.4,1
				l0,0c-0.1,0.3-0.4,0.5-0.7,0.5l0,0C127.7,26.1,127.6,26.1,127.5,26.1z M152.4,24.9c-0.1-0.4,0.1-0.8,0.5-1l0,0
				c0.4-0.1,0.8,0,1,0.4l0,0c0.1,0.4-0.1,0.8-0.5,1l0,0c-0.1,0-0.2,0-0.3,0l0,0C152.8,25.3,152.5,25.2,152.4,24.9z M124.7,25
				c-0.4-0.1-0.6-0.6-0.4-1l0,0c0.1-0.4,0.6-0.6,1-0.4l0,0c0.4,0.2,0.6,0.6,0.4,1l0,0c-0.1,0.3-0.4,0.5-0.7,0.5l0,0
				C124.9,25,124.8,25,124.7,25z M155.2,23.8c-0.1-0.4,0-0.8,0.4-1l0,0c0.4-0.1,0.8,0,1,0.4l0,0c0.1,0.4,0,0.8-0.4,1l0,0
				c-0.1,0-0.2,0-0.3,0l0,0C155.6,24.3,155.3,24.1,155.2,23.8z M121.9,23.9c-0.4-0.1-0.6-0.6-0.4-1l0,0c0.1-0.4,0.6-0.6,1-0.4l0,0
				c0.4,0.1,0.6,0.6,0.4,1l0,0c-0.1,0.3-0.4,0.5-0.7,0.5l0,0C122,24,122,24,121.9,23.9z"/>
		</g>
	</g>
	<g>
		<g>
			<path fill="#28CB75" d="M138.7,42.7c-0.4-0.1-0.6-0.6-0.4-1l0,0c0.1-0.4,0.6-0.6,1-0.4l0,0c0.4,0.1,0.6,0.6,0.4,1l0,0
				c-0.1,0.3-0.4,0.5-0.7,0.5l0,0C138.9,42.7,138.8,42.7,138.7,42.7z M141.1,41.4c-0.1-0.4,0.1-0.8,0.5-1l0,0c0.4-0.1,0.8,0.1,1,0.4
				l0,0c0.2,0.4,0,0.8-0.4,1l0,0c-0.1,0-0.2,0.1-0.3,0.1l0,0C141.5,41.9,141.2,41.7,141.1,41.4z M135.9,41.6c-0.4-0.1-0.6-0.6-0.4-1
				l0,0c0.1-0.4,0.6-0.6,1-0.4l0,0c0.4,0.1,0.6,0.6,0.4,1l0,0c-0.1,0.3-0.4,0.5-0.7,0.5l0,0C136.1,41.7,136,41.6,135.9,41.6z
				 M143.9,40.4c-0.2-0.4,0-0.8,0.4-1l0,0c0.4-0.1,0.8,0.1,1,0.4l0,0c0.1,0.4-0.1,0.8-0.5,1l0,0c-0.1,0-0.2,0-0.3,0l0,0
				C144.3,40.9,144,40.7,143.9,40.4z M133.1,40.6c-0.4-0.2-0.6-0.6-0.4-1l0,0c0.1-0.4,0.6-0.6,1-0.4l0,0c0.4,0.1,0.6,0.6,0.4,1l0,0
				c-0.1,0.3-0.4,0.5-0.7,0.5l0,0C133.3,40.6,133.2,40.6,133.1,40.6z M146.7,39.3c-0.1-0.4,0.1-0.8,0.5-1l0,0c0.4-0.1,0.8,0.1,1,0.4
				l0,0c0.1,0.4-0.1,0.8-0.4,1l0,0c-0.1,0-0.2,0-0.3,0l0,0C147.1,39.8,146.8,39.6,146.7,39.3z M130.3,39.5c-0.4-0.1-0.6-0.6-0.4-1
				l0,0c0.1-0.4,0.6-0.6,1-0.4l0,0c0.4,0.1,0.6,0.6,0.4,1l0,0c-0.1,0.3-0.4,0.5-0.7,0.5l0,0C130.5,39.5,130.4,39.5,130.3,39.5z
				 M149.5,38.3c-0.2-0.4,0-0.8,0.4-1l0,0c0.4-0.1,0.8,0.1,1,0.4l0,0c0.1,0.4-0.1,0.8-0.4,1l0,0c-0.1,0-0.2,0-0.3,0l0,0
				C150,38.8,149.7,38.6,149.5,38.3z M127.5,38.4c-0.4-0.1-0.6-0.6-0.4-1l0,0c0.1-0.4,0.6-0.6,1-0.4l0,0c0.4,0.1,0.6,0.6,0.4,1l0,0
				c-0.1,0.3-0.4,0.5-0.7,0.5l0,0C127.7,38.5,127.6,38.5,127.5,38.4z M152.4,37.2c-0.1-0.4,0.1-0.8,0.5-1l0,0c0.4-0.1,0.8,0,1,0.4
				l0,0c0.1,0.4-0.1,0.8-0.5,1l0,0c-0.1,0-0.2,0-0.2,0l0,0C152.8,37.7,152.5,37.5,152.4,37.2z M124.7,37.4c-0.4-0.1-0.6-0.6-0.4-1
				l0,0c0.1-0.4,0.6-0.6,1-0.4l0,0c0.4,0.1,0.6,0.6,0.4,1l0,0c-0.1,0.3-0.4,0.5-0.7,0.5l0,0C124.9,37.4,124.8,37.4,124.7,37.4z
				 M155.2,36.2c-0.1-0.4,0-0.8,0.4-1l0,0c0.4-0.2,0.8,0,1,0.4l0,0c0.1,0.4,0,0.8-0.4,1l0,0c-0.1,0-0.2,0-0.3,0l0,0
				C155.6,36.7,155.3,36.5,155.2,36.2z M121.9,36.3c-0.4-0.1-0.6-0.6-0.4-1l0,0c0.1-0.4,0.6-0.6,1-0.4l0,0c0.4,0.1,0.6,0.6,0.4,1
				l0,0c-0.1,0.3-0.4,0.5-0.7,0.5l0,0C122,36.4,122,36.4,121.9,36.3z"/>
		</g>
	</g>
	<g>
		<g>
			<path fill="#28CB75" d="M138.7,55c-0.4-0.1-0.6-0.6-0.4-1l0,0c0.1-0.4,0.6-0.6,1-0.4l0,0c0.4,0.1,0.6,0.6,0.4,1l0,0
				c-0.1,0.3-0.4,0.5-0.7,0.5l0,0C138.9,55.1,138.8,55.1,138.7,55z M141.1,53.8c-0.1-0.4,0.1-0.8,0.5-1l0,0c0.4-0.1,0.8,0.1,1,0.5
				l0,0c0.1,0.4,0,0.8-0.4,1l0,0c-0.1,0-0.2,0.1-0.3,0.1l0,0C141.5,54.3,141.2,54.1,141.1,53.8z M135.9,54c-0.4-0.2-0.6-0.6-0.4-1
				l0,0c0.1-0.4,0.6-0.6,1-0.4l0,0c0.4,0.1,0.6,0.6,0.4,1l0,0c-0.1,0.3-0.4,0.5-0.7,0.5l0,0C136.1,54,136,54,135.9,54z M143.9,52.8
				c-0.1-0.4,0.1-0.8,0.4-1l0,0c0.4-0.1,0.8,0.1,1,0.4l0,0c0.1,0.4-0.1,0.8-0.5,1l0,0c-0.1,0-0.2,0.1-0.3,0.1l0,0
				C144.3,53.2,144,53.1,143.9,52.8z M133.1,52.9c-0.4-0.1-0.6-0.6-0.4-1l0,0c0.1-0.4,0.6-0.6,1-0.4l0,0c0.4,0.1,0.6,0.6,0.4,1l0,0
				c-0.1,0.3-0.4,0.5-0.7,0.5l0,0C133.3,53,133.2,53,133.1,52.9z M146.7,51.7c-0.1-0.4,0.1-0.8,0.5-1l0,0c0.4-0.1,0.8,0.1,1,0.4l0,0
				c0.1,0.4,0,0.8-0.4,1l0,0c-0.1,0-0.2,0.1-0.3,0.1l0,0C147.1,52.2,146.8,52,146.7,51.7z M130.3,51.9c-0.4-0.1-0.6-0.6-0.5-1l0,0
				c0.1-0.4,0.6-0.6,1-0.4l0,0c0.4,0.1,0.6,0.6,0.4,1l0,0c-0.1,0.3-0.4,0.5-0.7,0.5l0,0C130.5,51.9,130.4,51.9,130.3,51.9z
				 M149.5,50.7c-0.2-0.4,0-0.8,0.4-1l0,0c0.4-0.1,0.8,0.1,1,0.4l0,0c0.1,0.4-0.1,0.8-0.5,1l0,0c-0.1,0-0.2,0.1-0.3,0.1l0,0
				C150,51.2,149.7,51,149.5,50.7z M127.5,50.8c-0.4-0.1-0.6-0.6-0.4-1l0,0c0.1-0.4,0.6-0.6,1-0.4l0,0c0.4,0.1,0.6,0.6,0.4,1l0,0
				c-0.1,0.3-0.4,0.5-0.7,0.5l0,0C127.7,50.9,127.6,50.9,127.5,50.8z M152.4,49.6c-0.1-0.4,0.1-0.8,0.5-1l0,0c0.4-0.1,0.8,0.1,1,0.4
				l0,0c0.1,0.4-0.1,0.8-0.5,1l0,0c-0.1,0-0.2,0.1-0.3,0.1l0,0C152.8,50.1,152.5,49.9,152.4,49.6z M124.7,49.8
				c-0.4-0.2-0.6-0.6-0.4-1l0,0c0.1-0.4,0.6-0.6,1-0.4l0,0c0.4,0.1,0.6,0.6,0.4,1l0,0c-0.1,0.3-0.4,0.5-0.7,0.5l0,0
				C124.9,49.8,124.8,49.8,124.7,49.8z M155.2,48.6c-0.1-0.4,0-0.8,0.4-1l0,0c0.4-0.1,0.8,0.1,1,0.4l0,0c0.1,0.4,0,0.8-0.4,1l0,0
				c-0.1,0-0.2,0-0.3,0l0,0C155.6,49.1,155.3,48.9,155.2,48.6z M121.9,48.7c-0.4-0.1-0.6-0.6-0.4-1l0,0c0.1-0.4,0.6-0.6,1-0.4l0,0
				c0.4,0.1,0.6,0.6,0.4,1l0,0c-0.1,0.3-0.4,0.5-0.7,0.5l0,0C122,48.8,122,48.8,121.9,48.7z"/>
		</g>
	</g>
	<g>
		<g>
			<path fill="#28CB75" d="M138.7,67.4c-0.4-0.1-0.6-0.6-0.4-1l0,0c0.1-0.4,0.6-0.6,1-0.4l0,0c0.4,0.1,0.6,0.6,0.4,1l0,0
				c-0.1,0.3-0.4,0.5-0.7,0.5l0,0C138.9,67.5,138.8,67.5,138.7,67.4z M141.1,66.2c-0.1-0.4,0.1-0.8,0.5-1l0,0c0.4-0.1,0.8,0.1,1,0.5
				l0,0c0.1,0.4,0,0.8-0.4,1l0,0c-0.1,0-0.2,0-0.3,0l0,0C141.5,66.7,141.2,66.5,141.1,66.2z M135.9,66.4c-0.4-0.1-0.6-0.6-0.4-1l0,0
				c0.1-0.4,0.6-0.6,1-0.4l0,0c0.4,0.1,0.6,0.6,0.4,1l0,0c-0.1,0.3-0.4,0.5-0.7,0.5l0,0C136.1,66.4,136,66.4,135.9,66.4z
				 M143.9,65.1c-0.1-0.4,0.1-0.8,0.4-1l0,0c0.4-0.1,0.8,0,1,0.4l0,0c0.1,0.4-0.1,0.8-0.5,1l0,0c-0.1,0-0.2,0-0.3,0l0,0
				C144.3,65.6,144,65.4,143.9,65.1z M133.1,65.3c-0.4-0.1-0.6-0.6-0.4-1l0,0c0.1-0.4,0.6-0.6,1-0.4l0,0c0.4,0.1,0.6,0.6,0.4,1l0,0
				c-0.1,0.3-0.4,0.5-0.7,0.5l0,0C133.3,65.4,133.2,65.4,133.1,65.3z M146.7,64.1c-0.1-0.4,0.1-0.8,0.5-1l0,0c0.4-0.1,0.8,0,1,0.4
				l0,0c0.1,0.4,0,0.8-0.4,1l0,0c-0.1,0-0.2,0-0.3,0l0,0C147.1,64.6,146.8,64.4,146.7,64.1z M130.3,64.3c-0.4-0.1-0.6-0.6-0.5-1l0,0
				c0.1-0.4,0.6-0.6,1-0.4l0,0c0.4,0.1,0.6,0.6,0.4,1l0,0c-0.1,0.3-0.4,0.5-0.7,0.5l0,0C130.5,64.3,130.4,64.3,130.3,64.3z
				 M149.5,63.1c-0.2-0.4,0-0.8,0.4-1l0,0c0.4-0.1,0.8,0,1,0.4l0,0c0.1,0.4-0.1,0.8-0.5,1l0,0c-0.1,0-0.2,0.1-0.3,0.1l0,0
				C150,63.6,149.7,63.4,149.5,63.1z M127.5,63.2c-0.4-0.1-0.6-0.6-0.4-1l0,0c0.1-0.4,0.6-0.6,1-0.4l0,0c0.4,0.1,0.6,0.6,0.4,1l0,0
				c-0.1,0.3-0.4,0.5-0.7,0.5l0,0C127.7,63.3,127.6,63.3,127.5,63.2z M152.4,62c-0.1-0.4,0.1-0.8,0.5-1l0,0c0.4-0.1,0.8,0,1,0.4l0,0
				c0.1,0.4-0.1,0.8-0.5,1l0,0c-0.1,0-0.2,0-0.3,0l0,0C152.8,62.5,152.5,62.3,152.4,62z M124.7,62.2c-0.4-0.1-0.6-0.6-0.4-1l0,0
				c0.1-0.4,0.6-0.6,1-0.4l0,0c0.4,0.1,0.6,0.6,0.4,1l0,0c-0.1,0.3-0.4,0.5-0.7,0.5l0,0C124.9,62.2,124.8,62.2,124.7,62.2z
				 M155.2,61c-0.1-0.4,0-0.8,0.4-1l0,0c0.4-0.1,0.8,0,1,0.4l0,0c0.1,0.4,0,0.8-0.4,1l0,0c-0.1,0-0.2,0-0.3,0l0,0
				C155.6,61.5,155.3,61.3,155.2,61z M121.9,61.1c-0.4-0.1-0.6-0.6-0.4-1l0,0c0.1-0.4,0.6-0.6,1-0.4l0,0c0.4,0.1,0.6,0.6,0.4,1l0,0
				c-0.1,0.3-0.4,0.5-0.7,0.5l0,0C122,61.2,122,61.2,121.9,61.1z"/>
		</g>
	</g>
	<g>
		<g>
			<path fill="#28CB75" d="M138.7,79.8c-0.4-0.1-0.6-0.6-0.4-1l0,0c0.1-0.4,0.6-0.6,1-0.4l0,0c0.4,0.1,0.6,0.6,0.4,1l0,0
				c-0.1,0.3-0.4,0.5-0.7,0.5l0,0C138.9,79.9,138.8,79.9,138.7,79.8z M141.1,78.6c-0.1-0.4,0.1-0.8,0.5-1l0,0c0.4-0.1,0.8,0.1,1,0.5
				l0,0c0.2,0.4,0,0.8-0.4,1l0,0c-0.1,0-0.2,0-0.3,0l0,0C141.5,79.1,141.2,78.9,141.1,78.6z M135.9,78.8c-0.4-0.1-0.6-0.6-0.4-1l0,0
				c0.1-0.4,0.6-0.6,1-0.4l0,0c0.4,0.1,0.6,0.6,0.4,1l0,0c-0.1,0.3-0.4,0.5-0.7,0.5l0,0C136.1,78.8,136,78.8,135.9,78.8z
				 M143.9,77.5c-0.2-0.4,0-0.8,0.4-1l0,0c0.4-0.1,0.8,0.1,1,0.4l0,0c0.1,0.4-0.1,0.8-0.5,1l0,0c-0.1,0-0.2,0-0.3,0l0,0
				C144.3,78,144,77.8,143.9,77.5z M133.1,77.7c-0.4-0.2-0.6-0.6-0.4-1l0,0c0.1-0.4,0.6-0.6,1-0.4l0,0c0.4,0.1,0.6,0.6,0.4,1l0,0
				c-0.1,0.3-0.4,0.5-0.7,0.5l0,0C133.3,77.8,133.2,77.8,133.1,77.7z M146.7,76.5c-0.1-0.4,0.1-0.8,0.5-1l0,0c0.4-0.2,0.8,0,1,0.4
				l0,0c0.1,0.4-0.1,0.8-0.4,1l0,0c-0.1,0-0.2,0-0.3,0l0,0C147.1,77,146.8,76.8,146.7,76.5z M130.3,76.7c-0.4-0.1-0.6-0.6-0.4-1l0,0
				c0.1-0.4,0.6-0.6,1-0.4l0,0c0.4,0.1,0.6,0.6,0.4,1l0,0c-0.1,0.3-0.4,0.5-0.7,0.5l0,0C130.5,76.7,130.4,76.7,130.3,76.7z
				 M149.5,75.5c-0.2-0.4,0-0.8,0.4-1l0,0c0.4-0.2,0.8,0,1,0.4l0,0c0.1,0.4-0.1,0.8-0.4,1l0,0c-0.1,0-0.2,0-0.3,0l0,0
				C150,75.9,149.7,75.8,149.5,75.5z M127.5,75.6c-0.4-0.1-0.6-0.6-0.4-1l0,0c0.1-0.4,0.6-0.6,1-0.4l0,0c0.4,0.1,0.6,0.6,0.4,1l0,0
				c-0.1,0.3-0.4,0.5-0.7,0.5l0,0C127.7,75.7,127.6,75.6,127.5,75.6z M152.4,74.4c-0.1-0.4,0.1-0.8,0.5-1l0,0c0.4-0.1,0.8,0,1,0.4
				l0,0c0.1,0.4-0.1,0.8-0.5,1l0,0c-0.1,0-0.2,0-0.2,0l0,0C152.8,74.9,152.5,74.7,152.4,74.4z M124.7,74.6c-0.4-0.1-0.6-0.6-0.4-1
				l0,0c0.1-0.4,0.6-0.6,1-0.4l0,0c0.4,0.2,0.6,0.6,0.4,1l0,0c-0.1,0.3-0.4,0.5-0.7,0.5l0,0C124.9,74.6,124.8,74.6,124.7,74.6z
				 M155.2,73.4c-0.1-0.4,0-0.8,0.4-1l0,0c0.4-0.1,0.8,0.1,1,0.4l0,0c0.1,0.4,0,0.8-0.4,1l0,0c-0.1,0-0.2,0-0.3,0l0,0
				C155.6,73.9,155.3,73.7,155.2,73.4z M121.9,73.5c-0.4-0.1-0.6-0.6-0.4-1l0,0c0.1-0.4,0.6-0.6,1-0.4l0,0c0.4,0.1,0.6,0.6,0.4,1
				l0,0c-0.1,0.3-0.4,0.5-0.7,0.5l0,0C122,73.6,122,73.5,121.9,73.5z"/>
		</g>
	</g>
	<g>
		<g>
			<path fill="#28CB75" d="M138.7,92.2c-0.4-0.2-0.6-0.6-0.4-1l0,0c0.1-0.4,0.6-0.6,1-0.4l0,0c0.4,0.1,0.6,0.6,0.4,1l0,0
				c-0.1,0.3-0.4,0.5-0.7,0.5l0,0C138.9,92.3,138.8,92.3,138.7,92.2z M141.1,91c-0.1-0.4,0.1-0.8,0.5-1l0,0c0.4-0.1,0.8,0.1,1,0.4
				l0,0c0.1,0.4,0,0.8-0.4,1l0,0c-0.1,0-0.2,0.1-0.3,0.1l0,0C141.5,91.5,141.2,91.3,141.1,91z M135.9,91.2c-0.4-0.1-0.6-0.6-0.4-1
				l0,0c0.1-0.4,0.6-0.6,1-0.4l0,0c0.4,0.1,0.6,0.6,0.4,1l0,0c-0.1,0.3-0.4,0.5-0.7,0.5l0,0C136.1,91.2,136,91.2,135.9,91.2z
				 M143.9,89.9c-0.1-0.4,0.1-0.8,0.4-1l0,0c0.4-0.1,0.8,0.1,1,0.4l0,0c0.1,0.4-0.1,0.8-0.5,1l0,0c-0.1,0-0.2,0.1-0.3,0.1l0,0
				C144.3,90.4,144,90.2,143.9,89.9z M133.1,90.1c-0.4-0.1-0.6-0.6-0.4-1l0,0c0.1-0.4,0.6-0.6,1-0.4l0,0c0.4,0.1,0.6,0.6,0.4,1l0,0
				c-0.1,0.3-0.4,0.5-0.7,0.5l0,0C133.3,90.2,133.2,90.1,133.1,90.1z M146.7,88.9c-0.1-0.4,0.1-0.8,0.5-1l0,0c0.4-0.1,0.8,0.1,1,0.4
				l0,0c0.1,0.4,0,0.8-0.4,1l0,0c-0.1,0-0.2,0.1-0.3,0.1l0,0C147.1,89.4,146.8,89.2,146.7,88.9z M130.3,89.1c-0.4-0.1-0.6-0.6-0.5-1
				l0,0c0.1-0.4,0.6-0.6,1-0.4l0,0c0.4,0.2,0.6,0.6,0.4,1l0,0c-0.1,0.3-0.4,0.5-0.7,0.5l0,0C130.5,89.1,130.4,89.1,130.3,89.1z
				 M149.5,87.8c-0.2-0.4,0-0.8,0.4-1l0,0c0.4-0.1,0.8,0.1,1,0.4l0,0c0.1,0.4-0.1,0.8-0.5,1l0,0c-0.1,0-0.2,0-0.3,0l0,0
				C150,88.3,149.7,88.1,149.5,87.8z M127.5,88c-0.4-0.1-0.6-0.6-0.4-1l0,0c0.1-0.4,0.6-0.6,1-0.4l0,0c0.4,0.1,0.6,0.6,0.4,1l0,0
				c-0.1,0.3-0.4,0.5-0.7,0.5l0,0C127.7,88.1,127.6,88,127.5,88z M152.4,86.8c-0.1-0.4,0.1-0.8,0.5-1l0,0c0.4-0.1,0.8,0.1,1,0.4l0,0
				c0.1,0.4-0.1,0.8-0.5,1l0,0c-0.1,0-0.2,0-0.3,0l0,0C152.8,87.3,152.5,87.1,152.4,86.8z M124.7,87c-0.4-0.1-0.6-0.6-0.4-1l0,0
				c0.1-0.4,0.6-0.6,1-0.4l0,0c0.4,0.1,0.6,0.6,0.4,1l0,0c-0.1,0.3-0.4,0.5-0.7,0.5l0,0C124.9,87,124.8,87,124.7,87z M155.2,85.8
				c-0.1-0.4,0-0.8,0.4-1l0,0c0.4-0.1,0.8,0.1,1,0.4l0,0c0.1,0.4,0,0.8-0.4,1l0,0c-0.1,0-0.2,0-0.3,0l0,0
				C155.6,86.3,155.3,86.1,155.2,85.8z M121.9,85.9c-0.4-0.1-0.6-0.6-0.4-1l0,0c0.1-0.4,0.6-0.6,1-0.4l0,0c0.4,0.1,0.6,0.6,0.4,1
				l0,0c-0.1,0.3-0.4,0.5-0.7,0.5l0,0C122,85.9,122,85.9,121.9,85.9z"/>
		</g>
	</g>
	<g>
		<g>
			<path fill="#28CB75" d="M138.7,104.6c-0.4-0.1-0.6-0.6-0.4-1l0,0c0.1-0.4,0.6-0.6,1-0.4l0,0c0.4,0.1,0.6,0.6,0.4,1l0,0
				c-0.1,0.3-0.4,0.5-0.7,0.5l0,0C138.9,104.7,138.8,104.6,138.7,104.6z M141.1,103.4c-0.1-0.4,0.1-0.8,0.5-1l0,0
				c0.4-0.1,0.8,0,1,0.4l0,0c0.1,0.4,0,0.8-0.4,1l0,0c-0.1,0-0.2,0-0.3,0l0,0C141.5,103.8,141.2,103.7,141.1,103.4z M135.9,103.6
				c-0.4-0.1-0.6-0.6-0.4-1l0,0c0.1-0.4,0.6-0.6,1-0.4l0,0c0.4,0.1,0.6,0.6,0.4,1l0,0c-0.1,0.3-0.4,0.5-0.7,0.5l0,0
				C136.1,103.6,136,103.6,135.9,103.6z M143.9,102.3c-0.1-0.4,0.1-0.8,0.4-1l0,0c0.4-0.1,0.8,0,1,0.4l0,0c0.1,0.4-0.1,0.8-0.5,1
				l0,0c-0.1,0-0.2,0.1-0.3,0.1l0,0C144.3,102.8,144,102.6,143.9,102.3z M133.1,102.5c-0.4-0.1-0.6-0.6-0.4-1l0,0
				c0.1-0.4,0.6-0.6,1-0.4l0,0c0.4,0.2,0.6,0.6,0.4,1l0,0c-0.1,0.3-0.4,0.5-0.7,0.5l0,0C133.3,102.6,133.2,102.5,133.1,102.5z
				 M146.7,101.3c-0.1-0.4,0.1-0.8,0.5-1l0,0c0.4-0.1,0.8,0,1,0.4l0,0c0.1,0.4,0,0.8-0.4,1l0,0c-0.1,0-0.2,0.1-0.3,0.1l0,0
				C147.1,101.8,146.8,101.6,146.7,101.3z M130.3,101.5c-0.4-0.1-0.6-0.6-0.5-1l0,0c0.1-0.4,0.6-0.6,1-0.4l0,0
				c0.4,0.1,0.6,0.6,0.4,1l0,0c-0.1,0.3-0.4,0.5-0.7,0.5l0,0C130.5,101.5,130.4,101.5,130.3,101.5z M149.5,100.2
				c-0.2-0.4,0-0.8,0.4-1l0,0c0.4-0.1,0.8,0,1,0.4l0,0c0.1,0.4-0.1,0.8-0.5,1l0,0c-0.1,0-0.2,0-0.3,0l0,0
				C150,100.7,149.7,100.5,149.5,100.2z M127.5,100.4c-0.4-0.1-0.6-0.6-0.4-1l0,0c0.1-0.4,0.6-0.6,1-0.4l0,0c0.4,0.1,0.6,0.6,0.4,1
				l0,0c-0.1,0.3-0.4,0.5-0.7,0.5l0,0C127.7,100.4,127.6,100.4,127.5,100.4z M152.4,99.2c-0.1-0.4,0.1-0.8,0.5-1l0,0
				c0.4-0.1,0.8,0.1,1,0.5l0,0c0.1,0.4-0.1,0.8-0.5,1l0,0c-0.1,0-0.2,0-0.3,0l0,0C152.8,99.7,152.5,99.5,152.4,99.2z M124.7,99.3
				c-0.4-0.1-0.6-0.6-0.4-1l0,0c0.1-0.4,0.6-0.6,1-0.4l0,0c0.4,0.1,0.6,0.6,0.4,1l0,0c-0.1,0.3-0.4,0.5-0.7,0.5l0,0
				C124.9,99.4,124.8,99.4,124.7,99.3z M155.2,98.2c-0.1-0.4,0-0.8,0.4-1l0,0c0.4-0.1,0.8,0.1,1,0.5l0,0c0.1,0.4,0,0.8-0.4,1l0,0
				c-0.1,0-0.2,0-0.3,0l0,0C155.6,98.7,155.3,98.5,155.2,98.2z M121.9,98.3c-0.4-0.1-0.6-0.6-0.4-1l0,0c0.1-0.4,0.6-0.6,1-0.4l0,0
				c0.4,0.2,0.6,0.6,0.4,1l0,0c-0.1,0.3-0.4,0.5-0.7,0.5l0,0C122,98.3,122,98.3,121.9,98.3z"/>
		</g>
	</g>
	<g>
		<g>
			<path fill="#28CB75" d="M138.7,117c-0.4-0.2-0.6-0.6-0.4-1l0,0c0.1-0.4,0.6-0.6,1-0.4l0,0c0.4,0.2,0.6,0.6,0.4,1l0,0
				c-0.1,0.3-0.4,0.5-0.7,0.5l0,0C138.9,117,138.8,117,138.7,117z M141.1,115.8c-0.1-0.4,0.1-0.8,0.5-1l0,0c0.4-0.1,0.8,0.1,1,0.4
				l0,0c0.1,0.4,0,0.8-0.4,1l0,0c-0.1,0-0.2,0.1-0.3,0.1l0,0C141.5,116.2,141.2,116,141.1,115.8z M135.9,116c-0.4-0.1-0.6-0.6-0.4-1
				l0,0c0.1-0.4,0.6-0.6,1-0.4l0,0c0.4,0.1,0.6,0.6,0.4,1l0,0c-0.1,0.3-0.4,0.5-0.7,0.5l0,0C136.1,116,136,116,135.9,116z
				 M143.9,114.7c-0.1-0.4,0.1-0.8,0.4-1l0,0c0.4-0.2,0.8,0,1,0.4l0,0c0.1,0.4-0.1,0.8-0.5,1l0,0c-0.1,0-0.2,0.1-0.3,0.1l0,0
				C144.3,115.2,144,115,143.9,114.7z M133.1,114.9c-0.4-0.1-0.6-0.6-0.4-1l0,0c0.1-0.4,0.6-0.6,1-0.4l0,0c0.4,0.1,0.6,0.6,0.4,1
				l0,0c-0.1,0.3-0.4,0.5-0.7,0.5l0,0C133.3,115,133.2,114.9,133.1,114.9z M146.7,113.7c-0.1-0.4,0.1-0.8,0.5-1l0,0
				c0.4-0.2,0.8,0,1,0.4l0,0c0.1,0.4,0,0.8-0.4,1l0,0c-0.1,0-0.2,0.1-0.3,0.1l0,0C147.1,114.2,146.8,114,146.7,113.7z M130.3,113.8
				c-0.4-0.1-0.6-0.6-0.5-1l0,0c0.1-0.4,0.6-0.6,1-0.4l0,0c0.4,0.2,0.6,0.6,0.4,1l0,0c-0.1,0.3-0.4,0.5-0.7,0.5l0,0
				C130.5,113.9,130.4,113.9,130.3,113.8z M149.5,112.6c-0.2-0.4,0-0.8,0.4-1l0,0c0.4-0.2,0.8,0.1,1,0.4l0,0c0.1,0.4-0.1,0.8-0.5,1
				l0,0c-0.1,0-0.2,0-0.3,0l0,0C150,113.1,149.7,112.9,149.5,112.6z M127.5,112.8c-0.4-0.1-0.6-0.6-0.4-1l0,0c0.1-0.4,0.6-0.6,1-0.4
				l0,0c0.4,0.1,0.6,0.6,0.4,1l0,0c-0.1,0.3-0.4,0.5-0.7,0.5l0,0C127.7,112.8,127.6,112.8,127.5,112.8z M152.4,111.6
				c-0.1-0.4,0.1-0.8,0.5-1l0,0c0.4-0.1,0.8,0.1,1,0.4l0,0c0.1,0.4-0.1,0.8-0.5,1l0,0c-0.1,0-0.2,0-0.3,0l0,0
				C152.8,112.1,152.5,111.9,152.4,111.6z M124.7,111.7c-0.4-0.2-0.6-0.6-0.4-1l0,0c0.1-0.4,0.6-0.6,1-0.4l0,0
				c0.4,0.1,0.6,0.6,0.4,1l0,0c-0.1,0.3-0.4,0.5-0.7,0.5l0,0C124.9,111.8,124.8,111.8,124.7,111.7z M155.2,110.5
				c-0.1-0.4,0-0.8,0.4-1l0,0c0.4-0.1,0.8,0.1,1,0.5l0,0c0.1,0.4,0,0.8-0.4,1l0,0c-0.1,0-0.2,0-0.3,0l0,0
				C155.6,111,155.3,110.9,155.2,110.5z M121.9,110.7c-0.4-0.1-0.6-0.6-0.4-1l0,0c0.1-0.4,0.6-0.6,1-0.4l0,0c0.4,0.1,0.6,0.6,0.4,1
				l0,0c-0.1,0.3-0.4,0.5-0.7,0.5l0,0C122,110.7,122,110.7,121.9,110.7z"/>
		</g>
	</g>
</g>
<g>
	<g>
		<polygon fill="#FFFFFF" points="257.2,79.2 237.9,72.9 219.2,79.2 219.2,155 238.2,161.9 257.2,155 		"/>
		<path fill="#28CB75" d="M238.8,162.4l-19.5-7.1V78.9l19.1-6.4l19.9,6.4v76.5L238.8,162.4z M220.2,154.6l18.5,6.7l18.5-6.7V79.6
			l-18.9-6.1l-18.1,6.1V154.6z"/>
	</g>
	<g opacity="0.52">
		<g opacity="0.4">
			<polygon fill="#28CB75" points="219.2,155.6 218.9,154.6 239.2,148.5 258.3,154.5 258,155.5 239.2,149.5 			"/>
		</g>
		<g opacity="0.4">
			<rect x="238.2" y="73.2" fill="#28CB75" width="1" height="76"/>
		</g>
	</g>
	<g>
		<g>
			<path fill="#28CB75" d="M238,88.5c-0.4-0.1-0.6-0.6-0.4-1l0,0c0.2-0.4,0.6-0.6,1-0.4l0,0c0.4,0.1,0.6,0.6,0.4,1l0,0
				c-0.1,0.3-0.4,0.5-0.7,0.5l0,0C238.2,88.6,238.1,88.6,238,88.5z M240.4,87.3c-0.1-0.4,0.1-0.8,0.5-1l0,0c0.4-0.1,0.8,0.1,1,0.4
				l0,0c0.2,0.4,0,0.8-0.4,1l0,0c-0.1,0-0.2,0.1-0.3,0.1l0,0C240.8,87.8,240.5,87.6,240.4,87.3z M235.2,87.5c-0.4-0.2-0.6-0.6-0.4-1
				l0,0c0.1-0.4,0.6-0.6,1-0.4l0,0c0.4,0.1,0.6,0.6,0.4,1l0,0c-0.1,0.3-0.4,0.5-0.7,0.5l0,0C235.4,87.5,235.3,87.5,235.2,87.5z
				 M243.2,86.2c-0.1-0.4,0.1-0.8,0.4-1l0,0c0.4-0.1,0.8,0,1,0.4l0,0c0.1,0.4-0.1,0.8-0.5,1l0,0c-0.1,0-0.2,0.1-0.3,0.1l0,0
				C243.6,86.7,243.3,86.5,243.2,86.2z M232.4,86.4c-0.4-0.1-0.6-0.6-0.4-1l0,0c0.1-0.4,0.6-0.6,1-0.4l0,0c0.4,0.1,0.6,0.6,0.4,1
				l0,0c-0.1,0.3-0.4,0.5-0.7,0.5l0,0C232.6,86.5,232.5,86.5,232.4,86.4z M246,85.2c-0.1-0.4,0.1-0.8,0.4-1l0,0
				c0.4-0.1,0.8,0.1,1,0.4l0,0c0.2,0.4,0,0.8-0.4,1l0,0c-0.1,0-0.2,0.1-0.3,0.1l0,0C246.4,85.7,246.1,85.5,246,85.2z M229.6,85.4
				c-0.4-0.1-0.6-0.6-0.4-1l0,0c0.1-0.4,0.6-0.6,1-0.4l0,0c0.4,0.1,0.6,0.6,0.4,1l0,0c-0.1,0.3-0.4,0.5-0.7,0.5l0,0
				C229.8,85.4,229.7,85.4,229.6,85.4z M248.8,84.2c-0.1-0.4,0-0.8,0.4-1l0,0c0.4-0.1,0.8,0.1,1,0.4l0,0c0.1,0.4-0.1,0.8-0.5,1l0,0
				c-0.1,0-0.2,0.1-0.3,0.1l0,0C249.2,84.6,249,84.5,248.8,84.2z M226.8,84.3c-0.4-0.1-0.6-0.6-0.4-1l0,0c0.1-0.4,0.6-0.6,1-0.4l0,0
				c0.4,0.1,0.6,0.6,0.4,1l0,0c-0.1,0.3-0.4,0.5-0.7,0.5l0,0C227,84.4,226.9,84.3,226.8,84.3z M251.7,83.1c-0.1-0.4,0.1-0.8,0.4-1
				l0,0c0.4-0.1,0.8,0.1,1,0.4l0,0c0.1,0.4-0.1,0.8-0.4,1l0,0c-0.1,0-0.2,0-0.3,0l0,0C252.1,83.6,251.8,83.4,251.7,83.1z M224,83.3
				c-0.4-0.2-0.6-0.6-0.4-1l0,0c0.1-0.4,0.6-0.6,1-0.4l0,0c0.4,0.1,0.6,0.6,0.4,1l0,0c-0.1,0.3-0.4,0.5-0.7,0.5l0,0
				C224.2,83.3,224.1,83.3,224,83.3z M254.5,82.1c-0.1-0.4,0.1-0.8,0.4-1l0,0c0.4-0.1,0.8,0.1,1,0.4l0,0c0.1,0.4-0.1,0.8-0.5,1l0,0
				c-0.1,0-0.2,0-0.3,0l0,0C254.9,82.6,254.6,82.4,254.5,82.1z M221.2,82.2c-0.4-0.1-0.6-0.6-0.4-1l0,0c0.1-0.4,0.6-0.6,1-0.4l0,0
				c0.4,0.1,0.6,0.6,0.4,1l0,0c-0.1,0.3-0.4,0.5-0.7,0.5l0,0C221.3,82.3,221.3,82.2,221.2,82.2z"/>
		</g>
	</g>
	<g>
		<g>
			<path fill="#28CB75" d="M238,100.9c-0.4-0.1-0.6-0.6-0.4-1l0,0c0.2-0.4,0.6-0.6,1-0.4l0,0c0.4,0.1,0.6,0.6,0.4,1l0,0
				c-0.1,0.3-0.4,0.5-0.7,0.5l0,0C238.2,101,238.1,101,238,100.9z M240.4,99.7c-0.1-0.4,0.1-0.8,0.5-1l0,0c0.4-0.1,0.8,0,1,0.4l0,0
				c0.2,0.4,0,0.8-0.4,1l0,0c-0.1,0-0.2,0-0.3,0l0,0C240.8,100.2,240.5,100,240.4,99.7z M235.2,99.9c-0.4-0.1-0.6-0.6-0.4-1l0,0
				c0.1-0.4,0.6-0.6,1-0.4l0,0c0.4,0.1,0.6,0.6,0.4,1l0,0c-0.1,0.3-0.4,0.5-0.7,0.5l0,0C235.4,99.9,235.3,99.9,235.2,99.9z
				 M243.2,98.6c-0.1-0.4,0.1-0.8,0.4-1l0,0c0.4-0.1,0.8,0.1,1,0.5l0,0c0.1,0.4-0.1,0.8-0.5,1l0,0c-0.1,0-0.2,0-0.3,0l0,0
				C243.6,99.1,243.3,98.9,243.2,98.6z M232.4,98.8c-0.4-0.1-0.6-0.6-0.4-1l0,0c0.1-0.4,0.6-0.6,1-0.4l0,0c0.4,0.2,0.6,0.6,0.4,1
				l0,0c-0.1,0.3-0.4,0.5-0.7,0.5l0,0C232.6,98.9,232.5,98.8,232.4,98.8z M246,97.6c-0.1-0.4,0.1-0.8,0.4-1l0,0c0.4-0.1,0.8,0,1,0.4
				l0,0c0.2,0.4,0,0.8-0.4,1l0,0c-0.1,0-0.2,0-0.3,0l0,0C246.4,98.1,246.1,97.9,246,97.6z M229.6,97.8c-0.4-0.1-0.6-0.6-0.4-1l0,0
				c0.1-0.4,0.6-0.6,1-0.4l0,0c0.4,0.1,0.6,0.6,0.4,1l0,0c-0.1,0.3-0.4,0.5-0.7,0.5l0,0C229.8,97.8,229.7,97.8,229.6,97.8z
				 M248.8,96.5c-0.1-0.4,0-0.8,0.4-1l0,0c0.4-0.1,0.8,0,1,0.4l0,0c0.1,0.4-0.1,0.8-0.5,1l0,0c-0.1,0-0.2,0-0.3,0l0,0
				C249.2,97,249,96.8,248.8,96.5z M226.8,96.7c-0.4-0.1-0.6-0.6-0.4-1l0,0c0.1-0.4,0.6-0.6,1-0.4l0,0c0.4,0.1,0.6,0.6,0.4,1l0,0
				c-0.1,0.3-0.4,0.5-0.7,0.5l0,0C227,96.8,226.9,96.7,226.8,96.7z M251.7,95.5c-0.1-0.4,0.1-0.8,0.4-1l0,0c0.4-0.1,0.8,0,1,0.4l0,0
				c0.1,0.4-0.1,0.8-0.4,1l0,0c-0.1,0-0.2,0-0.3,0l0,0C252.1,96,251.8,95.8,251.7,95.5z M224,95.7c-0.4-0.1-0.6-0.6-0.4-1l0,0
				c0.1-0.4,0.6-0.6,1-0.4l0,0c0.4,0.1,0.6,0.6,0.4,1l0,0c-0.1,0.3-0.4,0.5-0.7,0.5l0,0C224.2,95.7,224.1,95.7,224,95.7z
				 M254.5,94.5c-0.1-0.4,0.1-0.8,0.4-1l0,0c0.4-0.1,0.8,0.1,1,0.4l0,0c0.1,0.4-0.1,0.8-0.5,1l0,0c-0.1,0-0.2,0-0.3,0l0,0
				C254.9,95,254.6,94.8,254.5,94.5z M221.2,94.6c-0.4-0.1-0.6-0.6-0.4-1l0,0c0.1-0.4,0.6-0.6,1-0.4l0,0c0.4,0.1,0.6,0.6,0.4,1l0,0
				c-0.1,0.3-0.4,0.5-0.7,0.5l0,0C221.3,94.6,221.3,94.6,221.2,94.6z"/>
		</g>
	</g>
	<g>
		<g>
			<path fill="#28CB75" d="M238,113.3c-0.4-0.1-0.6-0.6-0.4-1l0,0c0.2-0.4,0.6-0.6,1-0.4l0,0c0.4,0.1,0.6,0.6,0.4,1l0,0
				c-0.1,0.3-0.4,0.5-0.7,0.5l0,0C238.2,113.4,238.1,113.3,238,113.3z M240.4,112.1c-0.1-0.4,0.1-0.8,0.5-1l0,0
				c0.4-0.1,0.8,0.1,1,0.5l0,0c0.2,0.4,0,0.8-0.4,1l0,0c-0.1,0-0.2,0-0.3,0l0,0C240.8,112.5,240.5,112.4,240.4,112.1z M235.2,112.3
				c-0.4-0.1-0.6-0.6-0.4-1l0,0c0.1-0.4,0.6-0.6,1-0.4l0,0c0.4,0.1,0.6,0.6,0.4,1l0,0c-0.1,0.3-0.4,0.5-0.7,0.5l0,0
				C235.4,112.3,235.3,112.3,235.2,112.3z M243.2,111c-0.1-0.4,0.1-0.8,0.4-1l0,0c0.4-0.1,0.8,0,1,0.4l0,0c0.1,0.4-0.1,0.8-0.5,1
				l0,0c-0.1,0-0.2,0-0.3,0l0,0C243.6,111.5,243.3,111.3,243.2,111z M232.4,111.2c-0.4-0.2-0.6-0.6-0.4-1l0,0c0.1-0.4,0.6-0.6,1-0.4
				l0,0c0.4,0.2,0.6,0.6,0.4,1l0,0c-0.1,0.3-0.4,0.5-0.7,0.5l0,0C232.6,111.2,232.5,111.2,232.4,111.2z M246,110
				c-0.1-0.4,0.1-0.8,0.4-1l0,0c0.4-0.2,0.8,0,1,0.4l0,0c0.2,0.4,0,0.8-0.4,1l0,0c-0.1,0-0.2,0-0.3,0l0,0
				C246.4,110.5,246.1,110.3,246,110z M229.6,110.1c-0.4-0.1-0.6-0.6-0.4-1l0,0c0.1-0.4,0.6-0.6,1-0.4l0,0c0.4,0.1,0.6,0.6,0.4,1
				l0,0c-0.1,0.3-0.4,0.5-0.7,0.5l0,0C229.8,110.2,229.7,110.2,229.6,110.1z M248.8,108.9c-0.1-0.4,0-0.8,0.4-1l0,0
				c0.4-0.2,0.8,0,1,0.4l0,0c0.1,0.4-0.1,0.8-0.5,1l0,0c-0.1,0-0.2,0-0.3,0l0,0C249.2,109.4,249,109.2,248.8,108.9z M226.8,109.1
				c-0.4-0.1-0.6-0.6-0.4-1l0,0c0.1-0.4,0.6-0.6,1-0.4l0,0c0.4,0.1,0.6,0.6,0.4,1l0,0c-0.1,0.3-0.4,0.5-0.7,0.5l0,0
				C227,109.1,226.9,109.1,226.8,109.1z M251.7,107.9c-0.1-0.4,0.1-0.8,0.4-1l0,0c0.4-0.1,0.8,0,1,0.4l0,0c0.1,0.4-0.1,0.8-0.4,1
				l0,0c-0.1,0-0.2,0-0.3,0l0,0C252.1,108.4,251.8,108.2,251.7,107.9z M224,108c-0.4-0.1-0.6-0.6-0.4-1l0,0c0.1-0.4,0.6-0.6,1-0.4
				l0,0c0.4,0.2,0.6,0.6,0.4,1l0,0c-0.1,0.3-0.4,0.5-0.7,0.5l0,0C224.2,108.1,224.1,108.1,224,108z M254.5,106.9
				c-0.1-0.4,0.1-0.8,0.4-1l0,0c0.4-0.1,0.8,0.1,1,0.4l0,0c0.1,0.4-0.1,0.8-0.5,1l0,0c-0.1,0-0.2,0-0.3,0l0,0
				C254.9,107.3,254.6,107.2,254.5,106.9z M221.2,107c-0.4-0.1-0.6-0.6-0.4-1l0,0c0.1-0.4,0.6-0.6,1-0.4l0,0c0.4,0.1,0.6,0.6,0.4,1
				l0,0c-0.1,0.3-0.4,0.5-0.7,0.5l0,0C221.3,107,221.3,107,221.2,107z"/>
		</g>
	</g>
	<g>
		<g>
			<path fill="#28CB75" d="M238,125.7c-0.4-0.1-0.6-0.6-0.4-1l0,0c0.2-0.4,0.6-0.6,1-0.4l0,0c0.4,0.1,0.6,0.6,0.4,1l0,0
				c-0.1,0.3-0.4,0.5-0.7,0.5l0,0C238.2,125.8,238.1,125.7,238,125.7z M240.4,124.5c-0.1-0.4,0.1-0.8,0.5-1l0,0
				c0.4-0.1,0.8,0.1,1,0.5l0,0c0.2,0.4,0,0.8-0.4,1l0,0c-0.1,0-0.2,0-0.3,0l0,0C240.8,124.9,240.5,124.8,240.4,124.5z M235.2,124.6
				c-0.4-0.1-0.6-0.6-0.4-1l0,0c0.1-0.4,0.6-0.6,1-0.4l0,0c0.4,0.1,0.6,0.6,0.4,1l0,0c-0.1,0.3-0.4,0.5-0.7,0.5l0,0
				C235.4,124.7,235.3,124.7,235.2,124.6z M243.2,123.4c-0.1-0.4,0.1-0.8,0.4-1l0,0c0.4-0.2,0.8,0,1,0.4l0,0c0.1,0.4-0.1,0.8-0.5,1
				l0,0c-0.1,0-0.2,0-0.3,0l0,0C243.6,123.9,243.3,123.7,243.2,123.4z M232.4,123.6c-0.4-0.1-0.6-0.6-0.4-1l0,0
				c0.1-0.4,0.6-0.6,1-0.4l0,0c0.4,0.2,0.6,0.6,0.4,1l0,0c-0.1,0.3-0.4,0.5-0.7,0.5l0,0C232.6,123.6,232.5,123.6,232.4,123.6z
				 M246,122.4c-0.1-0.4,0.1-0.8,0.4-1l0,0c0.4-0.2,0.8,0,1,0.4l0,0c0.2,0.4,0,0.8-0.4,1l0,0c-0.1,0-0.2,0-0.3,0l0,0
				C246.4,122.9,246.1,122.7,246,122.4z M229.6,122.5c-0.4-0.1-0.6-0.6-0.4-1l0,0c0.1-0.4,0.6-0.6,1-0.4l0,0c0.4,0.1,0.6,0.6,0.4,1
				l0,0c-0.1,0.3-0.4,0.5-0.7,0.5l0,0C229.8,122.6,229.7,122.6,229.6,122.5z M248.8,121.3c-0.1-0.4,0-0.8,0.4-1l0,0
				c0.4-0.2,0.8,0,1,0.4l0,0c0.1,0.4-0.1,0.8-0.5,1l0,0c-0.1,0-0.2,0-0.3,0l0,0C249.2,121.8,249,121.6,248.8,121.3z M226.8,121.5
				c-0.4-0.1-0.6-0.6-0.4-1l0,0c0.1-0.4,0.6-0.6,1-0.4l0,0c0.4,0.1,0.6,0.6,0.4,1l0,0c-0.1,0.3-0.4,0.5-0.7,0.5l0,0
				C227,121.5,226.9,121.5,226.8,121.5z M251.7,120.3c-0.1-0.4,0.1-0.8,0.4-1l0,0c0.4-0.1,0.8,0.1,1,0.4l0,0c0.1,0.4-0.1,0.8-0.4,1
				l0,0c-0.1,0-0.2,0-0.3,0l0,0C252.1,120.8,251.8,120.6,251.7,120.3z M224,120.4c-0.4-0.1-0.6-0.6-0.4-1l0,0c0.1-0.4,0.6-0.6,1-0.4
				l0,0c0.4,0.1,0.6,0.6,0.4,1l0,0c-0.1,0.3-0.4,0.5-0.7,0.5l0,0C224.2,120.5,224.1,120.5,224,120.4z M254.5,119.2
				c-0.1-0.4,0.1-0.8,0.4-1l0,0c0.4-0.1,0.8,0.1,1,0.4l0,0c0.1,0.4-0.1,0.8-0.5,1l0,0c-0.1,0-0.2,0-0.3,0l0,0
				C254.9,119.7,254.6,119.6,254.5,119.2z M221.2,119.4c-0.4-0.1-0.6-0.6-0.4-1l0,0c0.1-0.4,0.6-0.6,1-0.4l0,0
				c0.4,0.1,0.6,0.6,0.4,1l0,0c-0.1,0.3-0.4,0.5-0.7,0.5l0,0C221.3,119.4,221.3,119.4,221.2,119.4z"/>
		</g>
	</g>
	<g>
		<g>
			<path fill="#28CB75" d="M238,138.1c-0.4-0.1-0.6-0.6-0.4-1l0,0c0.2-0.4,0.6-0.6,1-0.4l0,0c0.4,0.1,0.6,0.6,0.4,1l0,0
				c-0.1,0.3-0.4,0.5-0.7,0.5l0,0C238.2,138.1,238.1,138.1,238,138.1z M240.4,136.8c-0.1-0.4,0.1-0.8,0.5-1l0,0c0.4-0.2,0.8,0,1,0.4
				l0,0c0.2,0.4,0,0.8-0.4,1l0,0c-0.1,0-0.2,0-0.3,0l0,0C240.8,137.3,240.5,137.1,240.4,136.8z M235.2,137c-0.4-0.1-0.6-0.6-0.4-1
				l0,0c0.1-0.4,0.6-0.6,1-0.4l0,0c0.4,0.1,0.6,0.6,0.4,1l0,0c-0.1,0.3-0.4,0.5-0.7,0.5l0,0C235.4,137.1,235.3,137.1,235.2,137z
				 M243.2,135.8c-0.1-0.4,0.1-0.8,0.4-1l0,0c0.4-0.2,0.8,0,1,0.4l0,0c0.1,0.4-0.1,0.8-0.5,1l0,0c-0.1,0-0.2,0-0.3,0l0,0
				C243.6,136.3,243.3,136.1,243.2,135.8z M232.4,136c-0.4-0.2-0.6-0.6-0.4-1l0,0c0.1-0.4,0.6-0.6,1-0.4l0,0c0.4,0.1,0.6,0.6,0.4,1
				l0,0c-0.1,0.3-0.4,0.5-0.7,0.5l0,0C232.6,136,232.5,136,232.4,136z M246,134.8c-0.1-0.4,0.1-0.8,0.4-1l0,0c0.4-0.2,0.8,0,1,0.4
				l0,0c0.2,0.4,0,0.8-0.4,1l0,0c-0.1,0-0.2,0-0.3,0l0,0C246.4,135.2,246.1,135.1,246,134.8z M229.6,134.9c-0.4-0.1-0.6-0.6-0.4-1
				l0,0c0.1-0.4,0.6-0.6,1-0.4l0,0c0.4,0.1,0.6,0.6,0.4,1l0,0c-0.1,0.3-0.4,0.5-0.7,0.5l0,0C229.8,135,229.7,135,229.6,134.9z
				 M248.8,133.7c-0.1-0.4,0-0.8,0.4-1l0,0c0.4-0.2,0.8,0,1,0.4l0,0c0.1,0.4-0.1,0.8-0.5,1l0,0c-0.1,0-0.2,0-0.3,0l0,0
				C249.2,134.2,249,134,248.8,133.7z M226.8,133.9c-0.4-0.1-0.6-0.6-0.4-1l0,0c0.1-0.4,0.6-0.6,1-0.4l0,0c0.4,0.1,0.6,0.6,0.4,1
				l0,0c-0.1,0.3-0.4,0.5-0.7,0.5l0,0C227,133.9,226.9,133.9,226.8,133.9z M251.7,132.7c-0.1-0.4,0.1-0.8,0.4-1l0,0
				c0.4-0.1,0.8,0,1,0.4l0,0c0.1,0.4-0.1,0.8-0.4,1l0,0c-0.1,0-0.2,0-0.3,0l0,0C252.1,133.2,251.8,133,251.7,132.7z M224,132.8
				c-0.4-0.2-0.6-0.6-0.4-1l0,0c0.1-0.4,0.6-0.6,1-0.4l0,0c0.4,0.1,0.6,0.6,0.4,1l0,0c-0.1,0.3-0.4,0.5-0.7,0.5l0,0
				C224.2,132.9,224.1,132.9,224,132.8z M254.5,131.6c-0.1-0.4,0.1-0.8,0.4-1l0,0c0.4-0.1,0.8,0.1,1,0.4l0,0c0.1,0.4-0.1,0.8-0.5,1
				l0,0c-0.1,0-0.2,0-0.3,0l0,0C254.9,132.1,254.6,132,254.5,131.6z M221.2,131.8c-0.4-0.1-0.6-0.6-0.4-1l0,0c0.1-0.4,0.6-0.6,1-0.4
				l0,0c0.4,0.1,0.6,0.6,0.4,1l0,0c-0.1,0.3-0.4,0.5-0.7,0.5l0,0C221.3,131.8,221.3,131.8,221.2,131.8z"/>
		</g>
	</g>
	<g>
		<g>
			<path fill="#28CB75" d="M238,150.5c-0.4-0.1-0.6-0.6-0.4-1l0,0c0.2-0.4,0.6-0.6,1-0.4l0,0c0.4,0.1,0.6,0.6,0.4,1l0,0
				c-0.1,0.3-0.4,0.5-0.7,0.5l0,0C238.2,150.5,238.1,150.5,238,150.5z M240.4,149.2c-0.2-0.4,0-0.8,0.4-1l0,0c0.4-0.1,0.8,0.1,1,0.5
				l0,0c0.2,0.4,0,0.8-0.4,1l0,0c-0.1,0-0.2,0-0.3,0l0,0C240.8,149.7,240.5,149.5,240.4,149.2z M235.2,149.4c-0.4-0.1-0.6-0.6-0.4-1
				l0,0c0.1-0.4,0.6-0.6,1-0.4l0,0c0.4,0.1,0.6,0.6,0.4,1l0,0c-0.1,0.3-0.4,0.5-0.7,0.5l0,0C235.4,149.5,235.3,149.5,235.2,149.4z
				 M243.2,148.2c-0.1-0.4,0.1-0.8,0.5-1l0,0c0.4-0.1,0.8,0.1,1,0.4l0,0c0.1,0.4-0.1,0.8-0.4,1l0,0c-0.1,0-0.2,0-0.3,0l0,0
				C243.6,148.7,243.3,148.5,243.2,148.2z M232.4,148.4c-0.4-0.2-0.6-0.6-0.4-1l0,0c0.1-0.4,0.6-0.6,1-0.4l0,0
				c0.4,0.2,0.6,0.6,0.4,1l0,0c-0.1,0.3-0.4,0.5-0.7,0.5l0,0C232.6,148.4,232.5,148.4,232.4,148.4z M246,147.1
				c-0.1-0.4,0.1-0.8,0.4-1l0,0c0.4-0.1,0.8,0.1,1,0.4l0,0c0.2,0.4,0,0.8-0.4,1l0,0c-0.1,0-0.2,0-0.3,0l0,0
				C246.4,147.6,246.1,147.5,246,147.1z M229.6,147.3c-0.4-0.1-0.6-0.6-0.4-1l0,0c0.1-0.4,0.6-0.6,1-0.4l0,0c0.4,0.1,0.6,0.6,0.4,1
				l0,0c-0.1,0.3-0.4,0.5-0.7,0.5l0,0C229.8,147.4,229.7,147.4,229.6,147.3z M248.8,146.1c-0.1-0.4,0-0.8,0.4-1l0,0
				c0.4-0.1,0.8,0.1,1,0.4l0,0c0.1,0.4-0.1,0.8-0.5,1l0,0c-0.1,0-0.2,0-0.3,0l0,0C249.2,146.6,249,146.4,248.8,146.1z M226.8,146.3
				c-0.4-0.1-0.6-0.6-0.4-1l0,0c0.1-0.4,0.6-0.6,1-0.4l0,0c0.4,0.1,0.6,0.6,0.4,1l0,0c-0.1,0.3-0.4,0.5-0.7,0.5l0,0
				C227,146.3,226.9,146.3,226.8,146.3z M251.7,145.1c-0.1-0.4,0.1-0.8,0.4-1l0,0c0.4-0.1,0.8,0.1,1,0.4l0,0c0.1,0.4-0.1,0.8-0.4,1
				l0,0c-0.1,0-0.2,0-0.3,0l0,0C252.1,145.6,251.8,145.4,251.7,145.1z M224,145.2c-0.4-0.2-0.6-0.6-0.4-1l0,0c0.1-0.4,0.6-0.6,1-0.4
				l0,0c0.4,0.2,0.6,0.6,0.4,1l0,0c-0.1,0.3-0.4,0.5-0.7,0.5l0,0C224.2,145.3,224.1,145.2,224,145.2z M254.5,144
				c-0.1-0.4,0.1-0.8,0.4-1l0,0c0.4-0.1,0.8,0.1,1,0.5l0,0c0.1,0.4-0.1,0.8-0.5,1l0,0c-0.1,0-0.2,0-0.3,0l0,0
				C254.9,144.5,254.6,144.3,254.5,144z M221.2,144.2c-0.4-0.2-0.6-0.6-0.4-1l0,0c0.1-0.4,0.6-0.6,1-0.4l0,0c0.4,0.2,0.6,0.6,0.4,1
				l0,0c-0.1,0.3-0.4,0.5-0.7,0.5l0,0C221.3,144.2,221.3,144.2,221.2,144.2z"/>
		</g>
	</g>
</g>
<g>
	<g>
		<polygon fill="#FFFFFF" points="87.2,65.8 66.9,59.6 47.2,65.8 47.2,141.6 67.2,148.5 87.2,141.6 		"/>
		<path fill="#28CB75" d="M67.8,149L47.2,142V65.5L67.4,59l20.9,6.4V142L67.8,149z M48.2,141.3l19.5,6.7l19.5-6.7v-75l-19.9-6.1
			l-19.1,6.1V141.3z"/>
	</g>
	<g opacity="0.52">
		<g opacity="0.4">
			<polygon fill="#28CB75" points="87.8,141.3 67.4,135.2 47.3,141.3 47,140.3 67.4,134.1 88.1,140.3 			"/>
		</g>
		<g opacity="0.4">
			<rect x="67.2" y="60.2" fill="#28CB75" width="1" height="75"/>
		</g>
	</g>
	<g>
		<g>
			<path fill="#28CB75" d="M66.2,74.2c-0.4-0.1-0.6-0.6-0.4-1l0,0c0.1-0.4,0.6-0.6,1-0.4l0,0c0.4,0.1,0.6,0.6,0.4,1l0,0
				c-0.1,0.3-0.4,0.5-0.7,0.5l0,0C66.4,74.2,66.3,74.2,66.2,74.2z M68.6,72.9c-0.1-0.4,0-0.8,0.4-1l0,0c0.4-0.1,0.8,0,1,0.4l0,0
				c0.1,0.4,0,0.8-0.4,1l0,0c-0.1,0-0.2,0-0.3,0l0,0C69,73.4,68.7,73.2,68.6,72.9z M63.4,73.1c-0.4-0.1-0.6-0.6-0.4-1l0,0
				c0.1-0.4,0.6-0.6,1-0.4l0,0c0.4,0.1,0.6,0.6,0.4,1l0,0c-0.1,0.3-0.4,0.5-0.7,0.5l0,0C63.6,73.2,63.5,73.2,63.4,73.1z M71.4,71.9
				c-0.1-0.4,0-0.8,0.4-1l0,0c0.4-0.1,0.8,0.1,1,0.4l0,0c0.1,0.4-0.1,0.8-0.4,1l0,0c-0.1,0-0.2,0-0.3,0l0,0
				C71.8,72.3,71.5,72.2,71.4,71.9z M60.6,72.1c-0.4-0.1-0.6-0.6-0.4-1l0,0c0.2-0.4,0.6-0.6,1-0.4l0,0c0.4,0.1,0.6,0.6,0.4,1l0,0
				c-0.1,0.3-0.4,0.5-0.7,0.5l0,0C60.8,72.1,60.7,72.1,60.6,72.1z M74.2,70.8c-0.1-0.4,0-0.8,0.4-1l0,0c0.4-0.1,0.8,0,1,0.4l0,0
				c0.1,0.4,0,0.8-0.4,1l0,0c-0.1,0-0.2,0.1-0.3,0.1l0,0C74.6,71.3,74.3,71.1,74.2,70.8z M57.8,71c-0.4-0.1-0.6-0.6-0.4-1l0,0
				c0.2-0.4,0.6-0.6,1-0.4l0,0c0.4,0.1,0.6,0.6,0.4,1l0,0c-0.1,0.3-0.4,0.5-0.7,0.5l0,0C57.9,71.1,57.9,71.1,57.8,71z M77,69.7
				c-0.1-0.4,0.1-0.8,0.4-1l0,0c0.4-0.1,0.8,0,1,0.4l0,0c0.1,0.4-0.1,0.8-0.4,1l0,0c-0.1,0-0.2,0.1-0.3,0.1l0,0
				C77.4,70.2,77.1,70,77,69.7z M55,70c-0.4-0.1-0.6-0.6-0.4-1l0,0c0.1-0.4,0.6-0.6,1-0.4l0,0c0.4,0.2,0.6,0.6,0.4,1l0,0
				c-0.1,0.3-0.4,0.5-0.7,0.5l0,0C55.1,70,55,70,55,70z M79.8,68.6c-0.1-0.4,0-0.8,0.4-1l0,0c0.4-0.1,0.8,0,1,0.4l0,0
				c0.1,0.4,0,0.8-0.4,1l0,0c-0.1,0-0.2,0-0.3,0l0,0C80.2,69.1,79.9,68.9,79.8,68.6z M52.1,68.9c-0.4-0.1-0.6-0.6-0.4-1l0,0
				c0.1-0.4,0.6-0.6,1-0.4l0,0c0.4,0.1,0.6,0.6,0.4,1l0,0C53,68.8,52.7,69,52.4,69l0,0C52.3,69,52.2,69,52.1,68.9z M82.6,67.6
				c-0.1-0.4,0.1-0.8,0.4-1l0,0c0.4-0.1,0.8,0.1,1,0.4l0,0c0.1,0.4,0,0.8-0.4,1l0,0c-0.1,0-0.2,0-0.3,0l0,0
				C83,68.1,82.7,67.9,82.6,67.6z M49.3,67.9c-0.4-0.1-0.6-0.6-0.4-1l0,0c0.1-0.4,0.6-0.6,1-0.4l0,0c0.4,0.1,0.6,0.6,0.4,1l0,0
				c-0.1,0.3-0.4,0.5-0.7,0.5l0,0C49.5,67.9,49.4,67.9,49.3,67.9z M85.4,66.5c-0.1-0.4,0-0.8,0.4-1l0,0c0.4-0.1,0.8,0,1,0.4l0,0
				c0.1,0.4-0.1,0.8-0.4,1l0,0c-0.1,0-0.2,0.1-0.3,0.1l0,0C85.8,67,85.5,66.8,85.4,66.5z"/>
		</g>
	</g>
	<g>
		<g>
			<path fill="#28CB75" d="M66.2,86.6c-0.4-0.1-0.6-0.6-0.4-1l0,0c0.1-0.4,0.6-0.6,1-0.4l0,0c0.4,0.1,0.6,0.6,0.4,1l0,0
				c-0.1,0.3-0.4,0.5-0.7,0.5l0,0C66.4,86.6,66.3,86.6,66.2,86.6z M68.6,85.3c-0.1-0.4,0-0.8,0.4-1l0,0c0.4-0.1,0.8,0.1,1,0.4l0,0
				c0.1,0.4,0,0.8-0.4,1l0,0c-0.1,0-0.2,0-0.3,0l0,0C69,85.8,68.7,85.6,68.6,85.3z M63.4,85.5c-0.4-0.2-0.6-0.6-0.4-1l0,0
				c0.1-0.4,0.6-0.6,1-0.4l0,0c0.4,0.1,0.6,0.6,0.4,1l0,0c-0.1,0.3-0.4,0.5-0.7,0.5l0,0C63.6,85.6,63.5,85.6,63.4,85.5z M71.4,84.2
				c-0.1-0.4,0.1-0.8,0.4-1l0,0c0.4-0.1,0.8,0,1,0.4l0,0c0.1,0.4-0.1,0.8-0.4,1l0,0c-0.1,0-0.2,0.1-0.3,0.1l0,0
				C71.8,84.7,71.5,84.5,71.4,84.2z M60.6,84.5c-0.4-0.1-0.6-0.6-0.4-1l0,0c0.2-0.4,0.6-0.6,1-0.4l0,0c0.4,0.2,0.6,0.6,0.4,1l0,0
				c-0.1,0.3-0.4,0.5-0.7,0.5l0,0C60.8,84.5,60.7,84.5,60.6,84.5z M74.2,83.2c-0.1-0.4,0-0.8,0.4-1l0,0c0.4-0.1,0.8,0,1,0.4l0,0
				c0.1,0.4,0,0.8-0.4,1l0,0c-0.1,0-0.2,0-0.3,0l0,0C74.6,83.7,74.3,83.5,74.2,83.2z M57.8,83.4c-0.4-0.1-0.6-0.6-0.4-1l0,0
				c0.2-0.4,0.6-0.6,1-0.4l0,0c0.4,0.1,0.6,0.6,0.4,1l0,0c-0.1,0.3-0.4,0.5-0.7,0.5l0,0C57.9,83.5,57.9,83.5,57.8,83.4z M77,82.1
				c-0.2-0.4,0-0.8,0.4-1l0,0c0.4-0.1,0.8,0,1,0.4l0,0c0.1,0.4-0.1,0.8-0.4,1l0,0c-0.1,0-0.2,0-0.3,0l0,0
				C77.4,82.6,77.1,82.4,77,82.1z M55,82.4c-0.4-0.1-0.6-0.6-0.4-1l0,0c0.1-0.4,0.6-0.6,1-0.4l0,0c0.4,0.1,0.6,0.6,0.4,1l0,0
				c-0.1,0.3-0.4,0.5-0.7,0.5l0,0C55.1,82.4,55,82.4,55,82.4z M79.8,81c-0.1-0.4,0-0.8,0.4-1l0,0c0.4-0.1,0.8,0,1,0.4l0,0
				c0.1,0.4,0,0.8-0.4,1l0,0c-0.1,0-0.2,0-0.3,0l0,0C80.2,81.5,79.9,81.3,79.8,81z M52.1,81.3c-0.4-0.1-0.6-0.6-0.4-1l0,0
				c0.1-0.4,0.6-0.6,1-0.4l0,0c0.4,0.1,0.6,0.6,0.4,1l0,0c-0.1,0.3-0.4,0.5-0.7,0.5l0,0C52.3,81.4,52.2,81.4,52.1,81.3z M82.6,80
				c-0.1-0.4,0.1-0.8,0.4-1l0,0c0.4-0.1,0.8,0.1,1,0.4l0,0c0.1,0.4,0,0.8-0.4,1l0,0c-0.1,0-0.2,0.1-0.3,0.1l0,0
				C83,80.5,82.7,80.3,82.6,80z M49.3,80.3c-0.4-0.1-0.6-0.6-0.4-1l0,0c0.1-0.4,0.6-0.6,1-0.4l0,0c0.4,0.1,0.6,0.6,0.4,1l0,0
				c-0.1,0.3-0.4,0.5-0.7,0.5l0,0C49.5,80.3,49.4,80.3,49.3,80.3z M85.4,78.9c-0.1-0.4,0-0.8,0.4-1l0,0c0.4-0.1,0.8,0,1,0.4l0,0
				c0.1,0.4-0.1,0.8-0.4,1l0,0c-0.1,0-0.2,0-0.3,0l0,0C85.8,79.4,85.5,79.2,85.4,78.9z"/>
		</g>
	</g>
	<g>
		<g>
			<path fill="#28CB75" d="M66.2,99c-0.4-0.1-0.6-0.6-0.4-1l0,0c0.1-0.4,0.6-0.6,1-0.4l0,0c0.4,0.1,0.6,0.6,0.4,1l0,0
				C67,98.8,66.8,99,66.5,99l0,0C66.4,99,66.3,99,66.2,99z M68.6,97.7c-0.1-0.4,0-0.8,0.4-1l0,0c0.4-0.1,0.8,0.1,1,0.4l0,0
				c0.1,0.4,0,0.8-0.4,1l0,0c-0.1,0-0.2,0.1-0.3,0.1l0,0C69,98.2,68.7,98,68.6,97.7z M63.4,97.9c-0.4-0.1-0.6-0.6-0.4-1l0,0
				c0.1-0.4,0.6-0.6,1-0.4l0,0c0.4,0.1,0.6,0.6,0.4,1l0,0C64.2,97.8,64,98,63.6,98l0,0C63.6,98,63.5,98,63.4,97.9z M71.4,96.6
				c-0.1-0.4,0-0.8,0.4-1l0,0c0.4-0.1,0.8,0,1,0.4l0,0c0.1,0.4-0.1,0.8-0.4,1l0,0c-0.1,0-0.2,0-0.3,0l0,0
				C71.8,97.1,71.5,96.9,71.4,96.6z M60.6,96.9c-0.4-0.1-0.6-0.6-0.4-1l0,0c0.2-0.4,0.6-0.6,1-0.4l0,0c0.4,0.1,0.6,0.6,0.4,1l0,0
				c-0.1,0.3-0.4,0.5-0.7,0.5l0,0C60.8,96.9,60.7,96.9,60.6,96.9z M74.2,95.6c-0.1-0.4,0-0.8,0.4-1l0,0c0.4-0.1,0.8,0.1,1,0.4l0,0
				c0.1,0.4,0,0.8-0.4,1l0,0c-0.1,0-0.2,0-0.3,0l0,0C74.6,96,74.3,95.9,74.2,95.6z M57.8,95.8c-0.4-0.1-0.6-0.6-0.4-1l0,0
				c0.2-0.4,0.6-0.6,1-0.4l0,0c0.4,0.1,0.6,0.6,0.4,1l0,0c-0.1,0.3-0.4,0.5-0.7,0.5l0,0C57.9,95.9,57.9,95.9,57.8,95.8z M77,94.5
				c-0.1-0.4,0.1-0.8,0.4-1l0,0c0.4-0.2,0.8,0,1,0.4l0,0c0.1,0.4-0.1,0.8-0.4,1l0,0c-0.1,0-0.2,0-0.3,0l0,0
				C77.4,95,77.1,94.8,77,94.5z M55,94.8c-0.4-0.2-0.6-0.6-0.4-1l0,0c0.1-0.4,0.6-0.6,1-0.4l0,0c0.4,0.1,0.6,0.6,0.4,1l0,0
				c-0.1,0.3-0.4,0.5-0.7,0.5l0,0C55.1,94.8,55,94.8,55,94.8z M79.8,93.4c-0.1-0.4,0-0.8,0.4-1l0,0c0.4-0.1,0.8,0,1,0.4l0,0
				c0.1,0.4,0,0.8-0.4,1l0,0c-0.1,0-0.2,0.1-0.3,0.1l0,0C80.2,93.9,79.9,93.7,79.8,93.4z M52.1,93.7c-0.4-0.1-0.6-0.6-0.4-1l0,0
				c0.1-0.4,0.6-0.6,1-0.4l0,0c0.4,0.1,0.6,0.6,0.4,1l0,0c-0.1,0.3-0.4,0.5-0.7,0.5l0,0C52.3,93.8,52.2,93.8,52.1,93.7z M82.6,92.4
				c-0.1-0.4,0.1-0.8,0.4-1l0,0c0.4-0.1,0.8,0,1,0.4l0,0c0.1,0.4,0,0.8-0.4,1l0,0c-0.1,0-0.2,0-0.3,0l0,0
				C83,92.8,82.7,92.7,82.6,92.4z M49.3,92.7c-0.4-0.1-0.6-0.6-0.4-1l0,0c0.1-0.4,0.6-0.6,1-0.4l0,0c0.4,0.1,0.6,0.6,0.4,1l0,0
				c-0.1,0.3-0.4,0.5-0.7,0.5l0,0C49.5,92.7,49.4,92.7,49.3,92.7z M85.4,91.3c-0.1-0.4,0-0.8,0.4-1l0,0c0.4-0.1,0.8,0.1,1,0.4l0,0
				c0.1,0.4-0.1,0.8-0.4,1l0,0c-0.1,0-0.2,0-0.3,0l0,0C85.8,91.8,85.5,91.6,85.4,91.3z"/>
		</g>
	</g>
	<g>
		<g>
			<path fill="#28CB75" d="M66.2,111.4c-0.4-0.1-0.6-0.6-0.4-1l0,0c0.1-0.4,0.6-0.6,1-0.4l0,0c0.4,0.1,0.6,0.6,0.4,1l0,0
				c-0.1,0.3-0.4,0.5-0.7,0.5l0,0C66.4,111.4,66.3,111.4,66.2,111.4z M68.6,110.1c-0.1-0.4,0-0.8,0.4-1l0,0c0.4-0.1,0.8,0,1,0.4l0,0
				c0.1,0.4,0,0.8-0.4,1l0,0c-0.1,0-0.2,0-0.3,0l0,0C69,110.6,68.7,110.4,68.6,110.1z M63.4,110.3c-0.4-0.1-0.6-0.6-0.4-1l0,0
				c0.1-0.4,0.6-0.6,1-0.4l0,0c0.4,0.1,0.6,0.6,0.4,1l0,0c-0.1,0.3-0.4,0.5-0.7,0.5l0,0C63.6,110.4,63.5,110.3,63.4,110.3z
				 M71.4,109c-0.1-0.4,0-0.8,0.4-1l0,0c0.4-0.2,0.8,0,1,0.4l0,0c0.1,0.4-0.1,0.8-0.4,1l0,0c-0.1,0-0.2,0-0.3,0l0,0
				C71.8,109.5,71.5,109.3,71.4,109z M60.6,109.3c-0.4-0.1-0.6-0.6-0.4-1l0,0c0.2-0.4,0.6-0.6,1-0.4l0,0c0.4,0.1,0.6,0.6,0.4,1l0,0
				c-0.1,0.3-0.4,0.5-0.7,0.5l0,0C60.8,109.3,60.7,109.3,60.6,109.3z M74.2,108c-0.1-0.4,0-0.8,0.4-1l0,0c0.4-0.1,0.8,0.1,1,0.4l0,0
				c0.1,0.4,0,0.8-0.4,1l0,0c-0.1,0-0.2,0.1-0.3,0.1l0,0C74.6,108.4,74.3,108.3,74.2,108z M57.8,108.2c-0.4-0.1-0.6-0.6-0.4-1l0,0
				c0.2-0.4,0.6-0.6,1-0.4l0,0c0.4,0.1,0.6,0.6,0.4,1l0,0c-0.1,0.3-0.4,0.5-0.7,0.5l0,0C57.9,108.3,57.9,108.2,57.8,108.2z
				 M77,106.9c-0.1-0.4,0.1-0.8,0.4-1l0,0c0.4-0.1,0.8,0,1,0.4l0,0c0.1,0.4-0.1,0.8-0.4,1l0,0c-0.1,0-0.2,0.1-0.3,0.1l0,0
				C77.4,107.4,77.1,107.2,77,106.9z M55,107.2c-0.4-0.1-0.6-0.6-0.4-1l0,0c0.1-0.4,0.6-0.6,1-0.4l0,0c0.4,0.1,0.6,0.6,0.4,1l0,0
				c-0.1,0.3-0.4,0.5-0.7,0.5l0,0C55.1,107.2,55,107.2,55,107.2z M79.8,105.8c-0.1-0.4,0-0.8,0.4-1l0,0c0.4-0.1,0.8,0,1,0.4l0,0
				c0.1,0.4,0,0.8-0.4,1l0,0c-0.1,0-0.2,0.1-0.3,0.1l0,0C80.2,106.3,79.9,106.1,79.8,105.8z M52.1,106.1c-0.4-0.1-0.6-0.6-0.4-1l0,0
				c0.1-0.4,0.6-0.6,1-0.4l0,0c0.4,0.1,0.6,0.6,0.4,1l0,0c-0.1,0.3-0.4,0.5-0.7,0.5l0,0C52.3,106.1,52.2,106.1,52.1,106.1z
				 M82.6,104.8c-0.1-0.4,0.1-0.8,0.4-1l0,0c0.4-0.2,0.8,0,1,0.4l0,0c0.1,0.4,0,0.8-0.4,1l0,0c-0.1,0-0.2,0-0.3,0l0,0
				C83,105.2,82.7,105.1,82.6,104.8z M49.3,105c-0.4-0.1-0.6-0.6-0.4-1l0,0c0.1-0.4,0.6-0.6,1-0.4l0,0c0.4,0.1,0.6,0.6,0.4,1l0,0
				c-0.1,0.3-0.4,0.5-0.7,0.5l0,0C49.5,105.1,49.4,105.1,49.3,105z M85.4,103.7c-0.1-0.4,0-0.8,0.4-1l0,0c0.4-0.1,0.8,0.1,1,0.4l0,0
				c0.1,0.4-0.1,0.8-0.4,1l0,0c-0.1,0-0.2,0.1-0.3,0.1l0,0C85.8,104.2,85.5,104,85.4,103.7z"/>
		</g>
	</g>
	<g>
		<g>
			<path fill="#28CB75" d="M66.2,123.8c-0.4-0.1-0.6-0.6-0.4-1l0,0c0.1-0.4,0.6-0.6,1-0.4l0,0c0.4,0.1,0.6,0.6,0.4,1l0,0
				c-0.1,0.3-0.4,0.5-0.7,0.5l0,0C66.4,123.8,66.3,123.8,66.2,123.8z M68.6,122.5c-0.1-0.4,0-0.8,0.4-1l0,0c0.4-0.1,0.8,0,1,0.4l0,0
				c0.1,0.4,0,0.8-0.4,1l0,0c-0.1,0-0.2,0-0.3,0l0,0C69,123,68.7,122.8,68.6,122.5z M63.4,122.7c-0.4-0.2-0.6-0.6-0.4-1l0,0
				c0.1-0.4,0.6-0.6,1-0.4l0,0c0.4,0.2,0.6,0.6,0.4,1l0,0c-0.1,0.3-0.4,0.5-0.7,0.5l0,0C63.6,122.8,63.5,122.7,63.4,122.7z
				 M71.4,121.4c-0.1-0.4,0.1-0.8,0.4-1l0,0c0.4-0.1,0.8,0,1,0.4l0,0c0.1,0.4-0.1,0.8-0.4,1l0,0c-0.1,0-0.2,0-0.3,0l0,0
				C71.8,121.9,71.5,121.7,71.4,121.4z M60.6,121.7c-0.4-0.2-0.6-0.6-0.4-1l0,0c0.2-0.4,0.6-0.6,1-0.4l0,0c0.4,0.1,0.6,0.6,0.4,1
				l0,0c-0.1,0.3-0.4,0.5-0.7,0.5l0,0C60.8,121.7,60.7,121.7,60.6,121.7z M74.2,120.3c-0.1-0.4,0-0.8,0.4-1l0,0c0.4-0.1,0.8,0,1,0.4
				l0,0c0.1,0.4,0,0.8-0.4,1l0,0c-0.1,0-0.2,0-0.3,0l0,0C74.6,120.8,74.3,120.6,74.2,120.3z M57.8,120.6c-0.4-0.1-0.6-0.6-0.4-1l0,0
				c0.2-0.4,0.6-0.6,1-0.4l0,0c0.4,0.1,0.6,0.6,0.4,1l0,0c-0.1,0.3-0.4,0.5-0.7,0.5l0,0C57.9,120.6,57.9,120.6,57.8,120.6z
				 M77,119.3c-0.1-0.4,0.1-0.8,0.4-1l0,0c0.4-0.1,0.8,0,1,0.4l0,0c0.1,0.4-0.1,0.8-0.4,1l0,0c-0.1,0-0.2,0-0.3,0l0,0
				C77.4,119.8,77.1,119.6,77,119.3z M55,119.5c-0.4-0.2-0.6-0.6-0.4-1l0,0c0.1-0.4,0.6-0.6,1-0.4l0,0c0.4,0.2,0.6,0.6,0.4,1l0,0
				c-0.1,0.3-0.4,0.5-0.7,0.5l0,0C55.1,119.6,55,119.6,55,119.5z M79.8,118.2c-0.1-0.4,0-0.8,0.4-1l0,0c0.4-0.2,0.8,0,1,0.4l0,0
				c0.1,0.4,0,0.8-0.4,1l0,0c-0.1,0-0.2,0.1-0.3,0.1l0,0C80.2,118.7,79.9,118.5,79.8,118.2z M52.1,118.5c-0.4-0.2-0.6-0.6-0.4-1l0,0
				c0.1-0.4,0.6-0.6,1-0.4l0,0c0.4,0.2,0.6,0.6,0.4,1l0,0c-0.1,0.3-0.4,0.5-0.7,0.5l0,0C52.3,118.5,52.2,118.5,52.1,118.5z
				 M82.6,117.1c-0.1-0.4,0.1-0.8,0.4-1l0,0c0.4-0.1,0.8,0,1,0.4l0,0c0.1,0.4,0,0.8-0.4,1l0,0c-0.1,0-0.2,0-0.3,0l0,0
				C83,117.6,82.7,117.5,82.6,117.1z M49.3,117.4c-0.4-0.1-0.6-0.6-0.4-1l0,0c0.1-0.4,0.6-0.6,1-0.4l0,0c0.4,0.1,0.6,0.6,0.4,1l0,0
				c-0.1,0.3-0.4,0.5-0.7,0.5l0,0C49.5,117.5,49.4,117.5,49.3,117.4z M85.4,116.1c-0.1-0.4,0-0.8,0.4-1l0,0c0.4-0.1,0.8,0.1,1,0.4
				l0,0c0.1,0.4-0.1,0.8-0.4,1l0,0c-0.1,0-0.2,0-0.3,0l0,0C85.8,116.6,85.5,116.4,85.4,116.1z"/>
		</g>
	</g>
	<g>
		<g>
			<path fill="#28CB75" d="M66.2,136.1c-0.4-0.1-0.6-0.6-0.4-1l0,0c0.1-0.4,0.6-0.6,1-0.4l0,0c0.4,0.1,0.6,0.6,0.4,1l0,0
				c-0.1,0.3-0.4,0.5-0.7,0.5l0,0C66.4,136.2,66.3,136.2,66.2,136.1z M68.6,134.9c-0.1-0.4,0-0.8,0.4-1l0,0c0.4-0.2,0.8,0,1,0.4l0,0
				c0.1,0.4,0,0.8-0.4,1l0,0c-0.1,0-0.2,0-0.3,0l0,0C69,135.4,68.7,135.2,68.6,134.9z M63.4,135.1c-0.4-0.1-0.6-0.6-0.4-1l0,0
				c0.1-0.4,0.6-0.6,1-0.4l0,0c0.4,0.1,0.6,0.6,0.4,1l0,0c-0.1,0.3-0.4,0.5-0.7,0.5l0,0C63.6,135.1,63.5,135.1,63.4,135.1z
				 M71.4,133.8c-0.1-0.4,0-0.8,0.4-1l0,0c0.4-0.1,0.8,0,1,0.4l0,0c0.1,0.4-0.1,0.8-0.4,1l0,0c-0.1,0-0.2,0-0.3,0l0,0
				C71.8,134.3,71.5,134.1,71.4,133.8z M60.6,134c-0.4-0.2-0.6-0.6-0.4-1l0,0c0.2-0.4,0.6-0.6,1-0.4l0,0c0.4,0.2,0.6,0.6,0.4,1l0,0
				c-0.1,0.3-0.4,0.5-0.7,0.5l0,0C60.8,134.1,60.7,134.1,60.6,134z M74.2,132.7c-0.1-0.4,0-0.8,0.4-1l0,0c0.4-0.1,0.8,0,1,0.4l0,0
				c0.1,0.4,0,0.8-0.4,1l0,0c-0.1,0-0.2,0-0.3,0l0,0C74.6,133.2,74.3,133,74.2,132.7z M57.8,133c-0.4-0.1-0.6-0.6-0.4-1l0,0
				c0.2-0.4,0.6-0.6,1-0.4l0,0c0.4,0.1,0.6,0.6,0.4,1l0,0c-0.1,0.3-0.4,0.5-0.7,0.5l0,0C57.9,133,57.9,133,57.8,133z M77,131.7
				c-0.1-0.4,0.1-0.8,0.4-1l0,0c0.4-0.2,0.8,0,1,0.4l0,0c0.1,0.4-0.1,0.8-0.4,1l0,0c-0.1,0-0.2,0.1-0.3,0.1l0,0
				C77.4,132.2,77.1,132,77,131.7z M55,131.9c-0.4-0.1-0.6-0.6-0.4-1l0,0c0.1-0.4,0.6-0.6,1-0.4l0,0c0.4,0.1,0.6,0.6,0.4,1l0,0
				c-0.1,0.3-0.4,0.5-0.7,0.5l0,0C55.1,132,55,132,55,131.9z M79.8,130.6c-0.1-0.4,0-0.8,0.4-1l0,0c0.4-0.1,0.8,0,1,0.4l0,0
				c0.1,0.4,0,0.8-0.4,1l0,0c-0.1,0-0.2,0-0.3,0l0,0C80.2,131.1,79.9,130.9,79.8,130.6z M52.1,130.9c-0.4-0.1-0.6-0.6-0.4-1l0,0
				c0.1-0.4,0.6-0.6,1-0.4l0,0c0.4,0.2,0.6,0.6,0.4,1l0,0c-0.1,0.3-0.4,0.5-0.7,0.5l0,0C52.3,130.9,52.2,130.9,52.1,130.9z
				 M82.6,129.5c-0.1-0.4,0.1-0.8,0.4-1l0,0c0.4-0.1,0.8,0.1,1,0.4l0,0c0.1,0.4,0,0.8-0.4,1l0,0c-0.1,0-0.2,0-0.3,0l0,0
				C83,130,82.7,129.8,82.6,129.5z M49.3,129.8c-0.4-0.1-0.6-0.6-0.4-1l0,0c0.1-0.4,0.6-0.6,1-0.4l0,0c0.4,0.1,0.6,0.6,0.4,1l0,0
				c-0.1,0.3-0.4,0.5-0.7,0.5l0,0C49.5,129.9,49.4,129.9,49.3,129.8z M85.4,128.5c-0.1-0.4,0-0.8,0.4-1l0,0c0.4-0.2,0.8,0,1,0.4l0,0
				c0.1,0.4-0.1,0.8-0.4,1l0,0c-0.1,0-0.2,0.1-0.3,0.1l0,0C85.8,129,85.5,128.8,85.4,128.5z"/>
		</g>
	</g>
</g>
<g>
	<g>
		<polygon fill="#FFFFFF" points="186.2,68.6 166.9,62.3 148.2,68.6 148.2,131 167.2,138 186.2,131 		"/>
		<path fill="#288FEB" d="M167.8,138.5l-19.5-7.1V68.3l19.1-6.4l19.9,6.4v63.1L167.8,138.5z M149.2,130.7l18.5,6.7l18.5-6.7V69
			l-18.9-6.1L149.2,69V130.7z"/>
	</g>
	<g opacity="0.52">
		<g opacity="0.4">
			<polygon fill="#288FEB" points="147.5,131.7 147.2,130.7 167.6,124.5 167.7,124.6 186.5,130.6 186.2,131.5 167.6,125.6 			"/>
		</g>
		<g opacity="0.4">
			<rect x="167.2" y="63.2" fill="#288FEB" width="1" height="61"/>
		</g>
	</g>
	<g>
		<g>
			<path fill="#288FEB" d="M166.4,77c-0.4-0.1-0.6-0.6-0.4-1l0,0c0.2-0.4,0.6-0.6,1-0.4l0,0c0.4,0.1,0.6,0.6,0.4,1l0,0
				c-0.1,0.3-0.4,0.5-0.7,0.5l0,0C166.5,77,166.5,77,166.4,77z M168.7,75.7c-0.1-0.4,0.1-0.8,0.4-1l0,0c0.4-0.1,0.8,0.1,1,0.4l0,0
				c0.1,0.4,0,0.8-0.4,1l0,0c-0.1,0-0.2,0.1-0.3,0.1l0,0C169.1,76.2,168.9,76,168.7,75.7z M163.6,75.9c-0.4-0.1-0.6-0.6-0.4-1l0,0
				c0.1-0.4,0.6-0.6,1-0.4l0,0c0.4,0.1,0.6,0.6,0.4,1l0,0c-0.1,0.3-0.4,0.5-0.7,0.5l0,0C163.7,76,163.6,75.9,163.6,75.9z
				 M171.6,74.7c-0.1-0.4,0-0.8,0.4-1l0,0c0.4-0.1,0.8,0.1,1,0.4l0,0c0.1,0.4,0,0.8-0.4,1l0,0c-0.1,0-0.2,0.1-0.3,0.1l0,0
				C172,75.2,171.7,75,171.6,74.7z M160.8,74.9c-0.4-0.1-0.6-0.6-0.4-1l0,0c0.2-0.4,0.6-0.6,1-0.4l0,0c0.4,0.1,0.6,0.6,0.4,1l0,0
				c-0.1,0.3-0.4,0.5-0.7,0.5l0,0C160.9,74.9,160.8,74.9,160.8,74.9z M174.4,73.6c-0.1-0.4,0.1-0.8,0.4-1l0,0c0.4-0.1,0.8,0.1,1,0.4
				l0,0c0.1,0.4-0.1,0.8-0.4,1l0,0c-0.1,0-0.2,0.1-0.3,0.1l0,0C174.8,74.1,174.5,73.9,174.4,73.6z M157.9,73.8
				c-0.4-0.1-0.6-0.6-0.4-1l0,0c0.1-0.4,0.6-0.6,1-0.4l0,0c0.4,0.2,0.6,0.6,0.4,1l0,0c-0.1,0.3-0.4,0.5-0.7,0.5l0,0
				C158.1,73.9,158,73.8,157.9,73.8z M177.2,72.6c-0.1-0.4,0.1-0.8,0.4-1l0,0c0.4-0.1,0.8,0.1,1,0.4l0,0c0.1,0.4-0.1,0.8-0.5,1l0,0
				c-0.1,0-0.2,0-0.3,0l0,0C177.6,73.1,177.3,72.9,177.2,72.6z M155.1,72.8c-0.4-0.1-0.6-0.6-0.5-1l0,0c0.2-0.4,0.6-0.6,1-0.4l0,0
				c0.4,0.1,0.6,0.6,0.4,1l0,0c-0.1,0.3-0.4,0.5-0.7,0.5l0,0C155.3,72.8,155.2,72.8,155.1,72.8z M180,71.6c-0.1-0.4,0.1-0.8,0.4-1
				l0,0c0.4-0.1,0.8,0.1,1,0.4l0,0c0.1,0.4-0.1,0.8-0.5,1l0,0c-0.1,0-0.2,0-0.3,0l0,0C180.4,72,180.1,71.9,180,71.6z M152.3,71.7
				c-0.4-0.1-0.6-0.6-0.4-1l0,0c0.1-0.4,0.6-0.6,1-0.4l0,0c0.4,0.1,0.6,0.6,0.4,1l0,0c-0.1,0.3-0.4,0.5-0.7,0.5l0,0
				C152.5,71.8,152.4,71.7,152.3,71.7z M182.8,70.5c-0.1-0.4,0.1-0.8,0.4-1l0,0c0.4-0.1,0.8,0.1,1,0.4l0,0c0.2,0.4,0,0.8-0.4,1l0,0
				c-0.1,0-0.2,0-0.3,0l0,0C183.2,71,182.9,70.8,182.8,70.5z M149.5,70.7c-0.4-0.1-0.6-0.6-0.4-1l0,0c0.1-0.4,0.6-0.6,1-0.4l0,0
				c0.4,0.1,0.6,0.6,0.4,1l0,0c-0.1,0.3-0.4,0.5-0.7,0.5l0,0C149.7,70.7,149.6,70.7,149.5,70.7z"/>
		</g>
	</g>
	<g>
		<g>
			<path fill="#288FEB" d="M166.4,89.4c-0.4-0.1-0.6-0.6-0.4-1l0,0c0.2-0.4,0.6-0.6,1-0.4l0,0c0.4,0.1,0.6,0.6,0.4,1l0,0
				c-0.1,0.3-0.4,0.5-0.7,0.5l0,0C166.5,89.4,166.5,89.4,166.4,89.4z M168.7,88.1c-0.1-0.4,0.1-0.8,0.4-1l0,0c0.4-0.1,0.8,0,1,0.4
				l0,0c0.1,0.4,0,0.8-0.4,1l0,0c-0.1,0-0.2,0-0.3,0l0,0C169.1,88.6,168.9,88.4,168.7,88.1z M163.6,88.3c-0.4-0.1-0.6-0.6-0.4-1l0,0
				c0.1-0.4,0.6-0.6,1-0.4l0,0c0.4,0.1,0.6,0.6,0.4,1l0,0c-0.1,0.3-0.4,0.5-0.7,0.5l0,0C163.7,88.4,163.6,88.3,163.6,88.3z
				 M171.6,87.1c-0.1-0.4,0-0.8,0.4-1l0,0c0.4-0.1,0.8,0,1,0.4l0,0c0.1,0.4,0,0.8-0.4,1l0,0c-0.1,0-0.2,0.1-0.3,0.1l0,0
				C172,87.6,171.7,87.4,171.6,87.1z M160.8,87.3c-0.4-0.1-0.6-0.6-0.4-1l0,0c0.2-0.4,0.6-0.6,1-0.4l0,0c0.4,0.2,0.6,0.6,0.4,1l0,0
				c-0.1,0.3-0.4,0.5-0.7,0.5l0,0C160.9,87.3,160.8,87.3,160.8,87.3z M174.4,86c-0.1-0.4,0.1-0.8,0.4-1l0,0c0.4-0.1,0.8,0,1,0.4l0,0
				c0.1,0.4-0.1,0.8-0.4,1l0,0c-0.1,0-0.2,0.1-0.3,0.1l0,0C174.8,86.5,174.5,86.3,174.4,86z M157.9,86.2c-0.4-0.1-0.6-0.6-0.4-1l0,0
				c0.1-0.4,0.6-0.6,1-0.4l0,0c0.4,0.1,0.6,0.6,0.4,1l0,0c-0.1,0.3-0.4,0.5-0.7,0.5l0,0C158.1,86.2,158,86.2,157.9,86.2z M177.2,85
				c-0.1-0.4,0.1-0.8,0.4-1l0,0c0.4-0.1,0.8,0,1,0.4l0,0c0.1,0.4-0.1,0.8-0.5,1l0,0c-0.1,0-0.2,0-0.3,0l0,0
				C177.6,85.5,177.3,85.3,177.2,85z M155.1,85.1c-0.4-0.1-0.6-0.6-0.5-1l0,0c0.2-0.4,0.6-0.6,1-0.4l0,0c0.4,0.1,0.6,0.6,0.4,1l0,0
				c-0.1,0.3-0.4,0.5-0.7,0.5l0,0C155.3,85.2,155.2,85.2,155.1,85.1z M180,83.9c-0.1-0.4,0.1-0.8,0.4-1l0,0c0.4-0.1,0.8,0.1,1,0.4
				l0,0c0.1,0.4-0.1,0.8-0.5,1l0,0c-0.1,0-0.2,0-0.2,0l0,0C180.4,84.4,180.1,84.3,180,83.9z M152.3,84.1c-0.4-0.1-0.6-0.6-0.4-1l0,0
				c0.1-0.4,0.6-0.6,1-0.4l0,0c0.4,0.1,0.6,0.6,0.4,1l0,0c-0.1,0.3-0.4,0.5-0.7,0.5l0,0C152.5,84.1,152.4,84.1,152.3,84.1z
				 M182.8,82.9c-0.1-0.4,0.1-0.8,0.4-1l0,0c0.4-0.1,0.8,0.1,1,0.4l0,0c0.2,0.4,0,0.8-0.4,1l0,0c-0.1,0-0.2,0-0.3,0l0,0
				C183.2,83.4,182.9,83.2,182.8,82.9z M149.5,83c-0.4-0.1-0.6-0.6-0.4-1l0,0c0.1-0.4,0.6-0.6,1-0.4l0,0c0.4,0.2,0.6,0.6,0.4,1l0,0
				c-0.1,0.3-0.4,0.5-0.7,0.5l0,0C149.7,83.1,149.6,83.1,149.5,83z"/>
		</g>
	</g>
	<g>
		<g>
			<path fill="#288FEB" d="M166.4,101.8c-0.4-0.1-0.6-0.6-0.4-1l0,0c0.2-0.4,0.6-0.6,1-0.4l0,0c0.4,0.2,0.6,0.6,0.4,1l0,0
				c-0.1,0.3-0.4,0.5-0.7,0.5l0,0C166.5,101.8,166.5,101.8,166.4,101.8z M168.7,100.5c-0.1-0.4,0.1-0.8,0.4-1l0,0
				c0.4-0.2,0.8,0,1,0.4l0,0c0.1,0.4,0,0.8-0.4,1l0,0c-0.1,0-0.2,0-0.3,0l0,0C169.1,101,168.9,100.8,168.7,100.5z M163.6,100.7
				c-0.4-0.1-0.6-0.6-0.4-1l0,0c0.1-0.4,0.6-0.6,1-0.4l0,0c0.4,0.1,0.6,0.6,0.4,1l0,0c-0.1,0.3-0.4,0.5-0.7,0.5l0,0
				C163.7,100.8,163.6,100.7,163.6,100.7z M171.6,99.5c-0.1-0.4,0-0.8,0.4-1l0,0c0.4-0.2,0.8,0,1,0.4l0,0c0.1,0.4,0,0.8-0.4,1l0,0
				c-0.1,0-0.2,0-0.3,0l0,0C172,99.9,171.7,99.8,171.6,99.5z M160.8,99.6c-0.4-0.1-0.6-0.6-0.4-1l0,0c0.2-0.4,0.6-0.6,1-0.4l0,0
				c0.4,0.1,0.6,0.6,0.4,1l0,0c-0.1,0.3-0.4,0.5-0.7,0.5l0,0C160.9,99.7,160.8,99.7,160.8,99.6z M174.4,98.4c-0.1-0.4,0.1-0.8,0.4-1
				l0,0c0.4-0.1,0.8,0,1,0.4l0,0c0.1,0.4-0.1,0.8-0.4,1l0,0c-0.1,0-0.2,0-0.3,0l0,0C174.8,98.9,174.5,98.7,174.4,98.4z M157.9,98.6
				c-0.4-0.1-0.6-0.6-0.4-1l0,0c0.1-0.4,0.6-0.6,1-0.4l0,0c0.4,0.1,0.6,0.6,0.4,1l0,0c-0.1,0.3-0.4,0.5-0.7,0.5l0,0
				C158.1,98.6,158,98.6,157.9,98.6z M177.2,97.4c-0.1-0.4,0.1-0.8,0.4-1l0,0c0.4-0.1,0.8,0,1,0.4l0,0c0.1,0.4-0.1,0.8-0.5,1l0,0
				c-0.1,0-0.2,0-0.3,0l0,0C177.6,97.9,177.3,97.7,177.2,97.4z M155.1,97.5c-0.4-0.1-0.6-0.6-0.5-1l0,0c0.2-0.4,0.6-0.6,1-0.4l0,0
				c0.4,0.1,0.6,0.6,0.4,1l0,0c-0.1,0.3-0.4,0.5-0.7,0.5l0,0C155.3,97.6,155.2,97.6,155.1,97.5z M180,96.3c-0.1-0.4,0.1-0.8,0.4-1
				l0,0c0.4-0.1,0.8,0.1,1,0.4l0,0c0.1,0.4-0.1,0.8-0.5,1l0,0c-0.1,0-0.2,0-0.2,0l0,0C180.4,96.8,180.1,96.6,180,96.3z M152.3,96.5
				c-0.4-0.1-0.6-0.6-0.4-1l0,0c0.1-0.4,0.6-0.6,1-0.4l0,0c0.4,0.2,0.6,0.6,0.4,1l0,0c-0.1,0.3-0.4,0.5-0.7,0.5l0,0
				C152.5,96.5,152.4,96.5,152.3,96.5z M182.8,95.3c-0.1-0.4,0.1-0.8,0.4-1l0,0c0.4-0.1,0.8,0.1,1,0.5l0,0c0.2,0.4,0,0.8-0.4,1l0,0
				c-0.1,0-0.2,0-0.3,0l0,0C183.2,95.8,182.9,95.6,182.8,95.3z M149.5,95.4c-0.4-0.1-0.6-0.6-0.4-1l0,0c0.1-0.4,0.6-0.6,1-0.4l0,0
				c0.4,0.1,0.6,0.6,0.4,1l0,0c-0.1,0.3-0.4,0.5-0.7,0.5l0,0C149.7,95.5,149.6,95.5,149.5,95.4z"/>
		</g>
	</g>
	<g>
		<g>
			<path fill="#288FEB" d="M166.4,114.1c-0.4-0.1-0.6-0.6-0.4-1l0,0c0.2-0.4,0.6-0.6,1-0.4l0,0c0.4,0.1,0.6,0.6,0.4,1l0,0
				c-0.1,0.3-0.4,0.5-0.7,0.5l0,0C166.5,114.2,166.5,114.2,166.4,114.1z M168.7,112.9c-0.1-0.4,0.1-0.8,0.4-1l0,0
				c0.4-0.1,0.8,0,1,0.4l0,0c0.1,0.4,0,0.8-0.4,1l0,0c-0.1,0-0.2,0-0.3,0l0,0C169.1,113.4,168.9,113.2,168.7,112.9z M163.6,113.1
				c-0.4-0.1-0.6-0.6-0.4-1l0,0c0.1-0.4,0.6-0.6,1-0.4l0,0c0.4,0.1,0.6,0.6,0.4,1l0,0c-0.1,0.3-0.4,0.5-0.7,0.5l0,0
				C163.7,113.1,163.6,113.1,163.6,113.1z M171.6,111.8c-0.1-0.4,0-0.8,0.4-1l0,0c0.4-0.1,0.8,0,1,0.4l0,0c0.1,0.4,0,0.8-0.4,1l0,0
				c-0.1,0-0.2,0-0.3,0l0,0C172,112.3,171.7,112.1,171.6,111.8z M160.8,112c-0.4-0.2-0.6-0.6-0.4-1l0,0c0.2-0.4,0.6-0.6,1-0.4l0,0
				c0.4,0.2,0.6,0.6,0.4,1l0,0c-0.1,0.3-0.4,0.5-0.7,0.5l0,0C160.9,112.1,160.8,112.1,160.8,112z M174.4,110.8
				c-0.1-0.4,0.1-0.8,0.4-1l0,0c0.4-0.1,0.8,0,1,0.4l0,0c0.1,0.4-0.1,0.8-0.4,1l0,0c-0.1,0-0.2,0-0.3,0l0,0
				C174.8,111.3,174.5,111.1,174.4,110.8z M157.9,111c-0.4-0.1-0.6-0.6-0.4-1l0,0c0.1-0.4,0.6-0.6,1-0.4l0,0c0.4,0.1,0.6,0.6,0.4,1
				l0,0c-0.1,0.3-0.4,0.5-0.7,0.5l0,0C158.1,111,158,111,157.9,111z M177.2,109.8c-0.1-0.4,0.1-0.8,0.4-1l0,0c0.4-0.1,0.8,0.1,1,0.4
				l0,0c0.1,0.4-0.1,0.8-0.5,1l0,0c-0.1,0-0.2,0-0.3,0l0,0C177.6,110.3,177.3,110.1,177.2,109.8z M155.1,109.9
				c-0.4-0.1-0.6-0.6-0.5-1l0,0c0.2-0.4,0.6-0.6,1-0.4l0,0c0.4,0.1,0.6,0.6,0.4,1l0,0c-0.1,0.3-0.4,0.5-0.7,0.5l0,0
				C155.3,110,155.2,110,155.1,109.9z M180,108.7c-0.1-0.4,0.1-0.8,0.4-1l0,0c0.4-0.1,0.8,0.1,1,0.4l0,0c0.1,0.4-0.1,0.8-0.5,1l0,0
				c-0.1,0-0.2,0-0.2,0l0,0C180.4,109.2,180.1,109,180,108.7z M152.3,108.9c-0.4-0.1-0.6-0.6-0.4-1l0,0c0.1-0.4,0.6-0.6,1-0.4l0,0
				c0.4,0.1,0.6,0.6,0.4,1l0,0c-0.1,0.3-0.4,0.5-0.7,0.5l0,0C152.5,108.9,152.4,108.9,152.3,108.9z M182.8,107.7
				c-0.1-0.4,0.1-0.8,0.4-1l0,0c0.4-0.1,0.8,0.1,1,0.4l0,0c0.2,0.4,0,0.8-0.4,1l0,0c-0.1,0-0.2,0.1-0.3,0.1l0,0
				C183.2,108.2,182.9,108,182.8,107.7z M149.5,107.8c-0.4-0.1-0.6-0.6-0.4-1l0,0c0.1-0.4,0.6-0.6,1-0.4l0,0c0.4,0.1,0.6,0.6,0.4,1
				l0,0c-0.1,0.3-0.4,0.5-0.7,0.5l0,0C149.7,107.9,149.6,107.9,149.5,107.8z"/>
		</g>
	</g>
	<g>
		<g>
			<path fill="#288FEB" d="M166.4,126.5c-0.4-0.2-0.6-0.6-0.4-1l0,0c0.2-0.4,0.6-0.6,1-0.4l0,0c0.4,0.2,0.6,0.6,0.4,1l0,0
				c-0.1,0.3-0.4,0.5-0.7,0.5l0,0C166.5,126.6,166.5,126.6,166.4,126.5z M168.7,125.3c-0.1-0.4,0.1-0.8,0.4-1l0,0
				c0.4-0.1,0.8,0.1,1,0.4l0,0c0.1,0.4,0,0.8-0.4,1l0,0c-0.1,0-0.2,0-0.3,0l0,0C169.1,125.8,168.9,125.6,168.7,125.3z M163.6,125.5
				c-0.4-0.1-0.6-0.6-0.4-1l0,0c0.1-0.4,0.6-0.6,1-0.4l0,0c0.4,0.1,0.6,0.6,0.4,1l0,0c-0.1,0.3-0.4,0.5-0.7,0.5l0,0
				C163.7,125.5,163.6,125.5,163.6,125.5z M171.6,124.2c-0.1-0.4,0-0.8,0.4-1l0,0c0.4-0.2,0.8,0,1,0.4l0,0c0.1,0.4,0,0.8-0.4,1l0,0
				c-0.1,0-0.2,0-0.3,0l0,0C172,124.7,171.7,124.5,171.6,124.2z M160.8,124.4c-0.4-0.1-0.6-0.6-0.4-1l0,0c0.2-0.4,0.6-0.6,1-0.4l0,0
				c0.4,0.2,0.6,0.6,0.4,1l0,0c-0.1,0.3-0.4,0.5-0.7,0.5l0,0C160.9,124.5,160.8,124.5,160.8,124.4z M174.4,123.2
				c-0.1-0.4,0.1-0.8,0.4-1l0,0c0.4-0.1,0.8,0.1,1,0.4l0,0c0.1,0.4-0.1,0.8-0.4,1l0,0c-0.1,0-0.2,0-0.3,0l0,0
				C174.8,123.7,174.5,123.5,174.4,123.2z M157.9,123.4c-0.4-0.2-0.6-0.6-0.4-1l0,0c0.1-0.4,0.6-0.6,1-0.4l0,0
				c0.4,0.2,0.6,0.6,0.4,1l0,0c-0.1,0.3-0.4,0.5-0.7,0.5l0,0C158.1,123.4,158,123.4,157.9,123.4z M177.2,122.2
				c-0.1-0.4,0.1-0.8,0.4-1l0,0c0.4-0.1,0.8,0.1,1,0.4l0,0c0.1,0.4-0.1,0.8-0.5,1l0,0c-0.1,0-0.2,0-0.3,0l0,0
				C177.6,122.6,177.3,122.5,177.2,122.2z M155.1,122.3c-0.4-0.1-0.6-0.6-0.5-1l0,0c0.2-0.4,0.6-0.6,1-0.4l0,0
				c0.4,0.1,0.6,0.6,0.4,1l0,0c-0.1,0.3-0.4,0.5-0.7,0.5l0,0C155.3,122.4,155.2,122.4,155.1,122.3z M180,121.1
				c-0.1-0.4,0.1-0.8,0.4-1l0,0c0.4-0.1,0.8,0.1,1,0.4l0,0c0.1,0.4-0.1,0.8-0.5,1l0,0c-0.1,0-0.2,0-0.2,0l0,0
				C180.4,121.6,180.1,121.4,180,121.1z M152.3,121.3c-0.4-0.1-0.6-0.6-0.4-1l0,0c0.1-0.4,0.6-0.6,1-0.4l0,0c0.4,0.2,0.6,0.6,0.4,1
				l0,0c-0.1,0.3-0.4,0.5-0.7,0.5l0,0C152.5,121.3,152.4,121.3,152.3,121.3z M182.8,120.1c-0.1-0.4,0.1-0.8,0.4-1l0,0
				c0.4-0.1,0.8,0.1,1,0.4l0,0c0.2,0.4,0,0.8-0.4,1l0,0c-0.1,0-0.2,0-0.3,0l0,0C183.2,120.6,182.9,120.4,182.8,120.1z M149.5,120.2
				c-0.4-0.2-0.6-0.6-0.4-1l0,0c0.1-0.4,0.6-0.6,1-0.4l0,0c0.4,0.2,0.6,0.6,0.4,1l0,0c-0.1,0.3-0.4,0.5-0.7,0.5l0,0
				C149.7,120.3,149.6,120.2,149.5,120.2z"/>
		</g>
	</g>
</g>
<g>
	<g>
		<polygon fill="#FFFFFF" points="52.2,114.5 33.4,108.2 15.2,114.5 15.2,153.1 33.8,160 52.2,153.1 		"/>
		<path fill="#288FEB" d="M34.2,160.5l-19-7.1v-39.3l18.6-6.5l19.4,6.4v39.3L34.2,160.5z M16.2,152.7l18,6.7l18-6.7v-37.9l-18.4-6.1
			l-17.6,6.1V152.7z"/>
	</g>
	<g opacity="0.52">
		<g opacity="0.4">
			<polygon fill="#288FEB" points="16.2,154.1 15.9,153.2 34.2,146.5 52.9,152.6 52.5,153.5 34.2,147.6 			"/>
		</g>
		<g opacity="0.4">
			<rect x="33.2" y="108.2" fill="#288FEB" width="1" height="39"/>
		</g>
	</g>
	<g>
		<g>
			<path fill="#288FEB" d="M33,123.8c-0.4-0.1-0.6-0.6-0.4-1l0,0c0.1-0.4,0.6-0.6,1-0.4l0,0c0.4,0.1,0.6,0.6,0.4,1l0,0
				c-0.1,0.3-0.4,0.5-0.7,0.5l0,0C33.2,123.8,33.1,123.8,33,123.8z M35.4,122.5c-0.1-0.4,0.1-0.8,0.4-1l0,0c0.4-0.1,0.8,0.1,1,0.5
				l0,0c0.1,0.4-0.1,0.8-0.5,1l0,0c-0.1,0-0.2,0-0.3,0l0,0C35.8,123,35.5,122.8,35.4,122.5z M30.2,122.7c-0.4-0.2-0.6-0.6-0.4-1l0,0
				c0.1-0.4,0.6-0.6,1-0.4l0,0c0.4,0.2,0.6,0.6,0.4,1l0,0c-0.1,0.3-0.4,0.5-0.7,0.5l0,0C30.4,122.8,30.3,122.7,30.2,122.7z
				 M38.2,121.5c-0.1-0.4,0.1-0.8,0.4-1l0,0c0.4-0.1,0.8,0.1,1,0.5l0,0c0.1,0.4,0,0.8-0.4,1l0,0c-0.1,0-0.2,0-0.3,0l0,0
				C38.6,122,38.3,121.8,38.2,121.5z M27.4,121.7c-0.4-0.2-0.6-0.6-0.4-1l0,0c0.1-0.4,0.6-0.6,1-0.4l0,0c0.4,0.1,0.6,0.6,0.4,1l0,0
				c-0.1,0.3-0.4,0.5-0.7,0.5l0,0C27.6,121.7,27.5,121.7,27.4,121.7z M41,120.4c-0.1-0.4,0.1-0.8,0.4-1l0,0c0.4-0.2,0.8,0,1,0.4l0,0
				c0.1,0.4-0.1,0.8-0.5,1l0,0c-0.1,0-0.2,0-0.3,0l0,0C41.4,120.9,41.1,120.7,41,120.4z M24.6,120.6c-0.4-0.1-0.6-0.6-0.4-1l0,0
				c0.2-0.4,0.6-0.6,1-0.4l0,0c0.4,0.1,0.6,0.6,0.4,1l0,0c-0.1,0.3-0.4,0.5-0.7,0.5l0,0C24.8,120.6,24.7,120.6,24.6,120.6z
				 M43.8,119.4c-0.1-0.4,0.1-0.8,0.5-1l0,0c0.4-0.1,0.8,0,1,0.4l0,0c0.1,0.4-0.1,0.8-0.4,1l0,0c-0.1,0-0.2,0-0.3,0l0,0
				C44.2,119.9,43.9,119.7,43.8,119.4z M21.8,119.5c-0.4-0.2-0.6-0.6-0.4-1l0,0c0.2-0.4,0.6-0.6,1-0.4l0,0c0.4,0.2,0.6,0.6,0.4,1
				l0,0c-0.1,0.3-0.4,0.5-0.7,0.5l0,0C21.9,119.6,21.9,119.6,21.8,119.5z M46.6,118.3c-0.1-0.4,0.1-0.8,0.4-1l0,0
				c0.4-0.1,0.8,0,1,0.4l0,0c0.1,0.4-0.1,0.8-0.4,1l0,0c-0.1,0-0.2,0-0.3,0l0,0C47,118.8,46.8,118.6,46.6,118.3z M19,118.5
				c-0.4-0.2-0.6-0.6-0.4-1l0,0c0.1-0.4,0.6-0.6,1-0.4l0,0c0.4,0.2,0.6,0.6,0.4,1l0,0c-0.1,0.3-0.4,0.5-0.7,0.5l0,0
				C19.1,118.5,19,118.5,19,118.5z M49.4,117.3c-0.1-0.4,0.1-0.8,0.5-1l0,0c0.4-0.1,0.8,0,1,0.4l0,0c0.1,0.4-0.1,0.8-0.4,1l0,0
				c-0.1,0-0.2,0-0.3,0l0,0C49.8,117.8,49.6,117.6,49.4,117.3z M16.1,117.4c-0.4-0.1-0.6-0.6-0.4-1l0,0c0.1-0.4,0.6-0.6,1-0.4l0,0
				c0.4,0.1,0.6,0.6,0.4,1l0,0c-0.1,0.3-0.4,0.5-0.7,0.5l0,0C16.3,117.5,16.2,117.5,16.1,117.4z"/>
		</g>
	</g>
	<g>
		<g>
			<path fill="#288FEB" d="M33,136.1c-0.4-0.1-0.6-0.6-0.4-1l0,0c0.1-0.4,0.6-0.6,1-0.4l0,0c0.4,0.1,0.6,0.6,0.4,1l0,0
				c-0.1,0.3-0.4,0.5-0.7,0.5l0,0C33.2,136.2,33.1,136.2,33,136.1z M35.4,134.9c-0.1-0.4,0.1-0.8,0.4-1l0,0c0.4-0.1,0.8,0.1,1,0.5
				l0,0c0.1,0.4-0.1,0.8-0.5,1l0,0c-0.1,0-0.2,0-0.3,0l0,0C35.8,135.4,35.5,135.2,35.4,134.9z M30.2,135.1c-0.4-0.1-0.6-0.6-0.4-1
				l0,0c0.1-0.4,0.6-0.6,1-0.4l0,0c0.4,0.1,0.6,0.6,0.4,1l0,0c-0.1,0.3-0.4,0.5-0.7,0.5l0,0C30.4,135.1,30.3,135.1,30.2,135.1z
				 M38.2,133.9c-0.1-0.4,0.1-0.8,0.4-1l0,0c0.4-0.1,0.8,0.1,1,0.5l0,0c0.2,0.4,0,0.8-0.4,1l0,0c-0.1,0-0.2,0-0.3,0l0,0
				C38.6,134.3,38.3,134.2,38.2,133.9z M27.4,134c-0.4-0.2-0.6-0.6-0.4-1l0,0c0.1-0.4,0.6-0.6,1-0.4l0,0c0.4,0.2,0.6,0.6,0.4,1l0,0
				c-0.1,0.3-0.4,0.5-0.7,0.5l0,0C27.6,134.1,27.5,134.1,27.4,134z M41,132.8c-0.1-0.4,0.1-0.8,0.4-1l0,0c0.4-0.1,0.8,0.1,1,0.4l0,0
				c0.1,0.4-0.1,0.8-0.5,1l0,0c-0.1,0-0.2,0-0.3,0l0,0C41.4,133.3,41.1,133.1,41,132.8z M24.6,133c-0.4-0.1-0.6-0.6-0.4-1l0,0
				c0.2-0.4,0.6-0.6,1-0.4l0,0c0.4,0.1,0.6,0.6,0.4,1l0,0c-0.1,0.3-0.4,0.5-0.7,0.5l0,0C24.8,133,24.7,133,24.6,133z M43.8,131.8
				c-0.1-0.4,0.1-0.8,0.5-1l0,0c0.4-0.1,0.8,0.1,1,0.4l0,0c0.1,0.4-0.1,0.8-0.4,1l0,0c-0.1,0-0.2,0-0.3,0l0,0
				C44.2,132.3,43.9,132.1,43.8,131.8z M21.8,131.9c-0.4-0.1-0.6-0.6-0.4-1l0,0c0.2-0.4,0.6-0.6,1-0.4l0,0c0.4,0.1,0.6,0.6,0.4,1
				l0,0c-0.1,0.3-0.4,0.5-0.7,0.5l0,0C21.9,132,21.9,132,21.8,131.9z M46.6,130.7c-0.1-0.4,0.1-0.8,0.4-1l0,0c0.4-0.2,0.8,0,1,0.4
				l0,0c0.1,0.4-0.1,0.8-0.5,1l0,0c-0.1,0-0.2,0-0.3,0l0,0C47,131.2,46.8,131,46.6,130.7z M19,130.9c-0.4-0.1-0.6-0.6-0.4-1l0,0
				c0.1-0.4,0.6-0.6,1-0.4l0,0c0.4,0.2,0.6,0.6,0.4,1l0,0c-0.1,0.3-0.4,0.5-0.7,0.5l0,0C19.1,130.9,19,130.9,19,130.9z M49.4,129.7
				c-0.1-0.4,0.1-0.8,0.5-1l0,0c0.4-0.1,0.8,0.1,1,0.4l0,0c0.1,0.4-0.1,0.8-0.4,1l0,0c-0.1,0-0.2,0-0.3,0l0,0
				C49.8,130.2,49.6,130,49.4,129.7z M16.1,129.8c-0.4-0.1-0.6-0.6-0.4-1l0,0c0.1-0.4,0.6-0.6,1-0.4l0,0c0.4,0.1,0.6,0.6,0.4,1l0,0
				c-0.1,0.3-0.4,0.5-0.7,0.5l0,0C16.3,129.9,16.2,129.9,16.1,129.8z"/>
		</g>
	</g>
	<g>
		<g>
			<path fill="#288FEB" d="M33,148.5c-0.4-0.1-0.6-0.6-0.4-1l0,0c0.1-0.4,0.6-0.6,1-0.4l0,0c0.4,0.1,0.6,0.6,0.4,1l0,0
				c-0.1,0.3-0.4,0.5-0.7,0.5l0,0C33.2,148.6,33.1,148.6,33,148.5z M35.4,147.3c-0.1-0.4,0.1-0.8,0.4-1l0,0c0.4-0.1,0.8,0.1,1,0.5
				l0,0c0.1,0.4-0.1,0.8-0.5,1l0,0c-0.1,0-0.2,0.1-0.3,0.1l0,0C35.8,147.8,35.5,147.6,35.4,147.3z M30.2,147.5
				c-0.4-0.1-0.6-0.6-0.4-1l0,0c0.1-0.4,0.6-0.6,1-0.4l0,0c0.4,0.1,0.6,0.6,0.4,1l0,0c-0.1,0.3-0.4,0.5-0.7,0.5l0,0
				C30.4,147.5,30.3,147.5,30.2,147.5z M38.2,146.2c-0.1-0.4,0.1-0.8,0.4-1l0,0c0.4-0.2,0.8,0,1,0.4l0,0c0.2,0.4,0,0.8-0.4,1l0,0
				c-0.1,0-0.2,0.1-0.3,0.1l0,0C38.6,146.7,38.3,146.5,38.2,146.2z M27.4,146.4c-0.4-0.1-0.6-0.6-0.4-1l0,0c0.1-0.4,0.6-0.6,1-0.4
				l0,0c0.4,0.1,0.6,0.6,0.4,1l0,0c-0.1,0.3-0.4,0.5-0.7,0.5l0,0C27.6,146.5,27.5,146.5,27.4,146.4z M41,145.2
				c-0.1-0.4,0.1-0.8,0.4-1l0,0c0.4-0.2,0.8,0,1,0.4l0,0c0.1,0.4-0.1,0.8-0.5,1l0,0c-0.1,0-0.2,0.1-0.3,0.1l0,0
				C41.4,145.7,41.1,145.5,41,145.2z M24.6,145.4c-0.4-0.1-0.6-0.6-0.4-1l0,0c0.2-0.4,0.6-0.6,1-0.4l0,0c0.4,0.1,0.6,0.6,0.4,1l0,0
				c-0.1,0.3-0.4,0.5-0.7,0.5l0,0C24.8,145.4,24.7,145.4,24.6,145.4z M43.8,144.2c-0.1-0.4,0.1-0.8,0.5-1l0,0c0.4-0.2,0.8,0,1,0.4
				l0,0c0.1,0.4-0.1,0.8-0.4,1l0,0c-0.1,0-0.2,0.1-0.3,0.1l0,0C44.2,144.7,43.9,144.5,43.8,144.2z M21.8,144.3
				c-0.4-0.2-0.6-0.6-0.4-1l0,0c0.2-0.4,0.6-0.6,1-0.4l0,0c0.4,0.1,0.6,0.6,0.4,1l0,0c-0.1,0.3-0.4,0.5-0.7,0.5l0,0
				C21.9,144.4,21.9,144.4,21.8,144.3z M46.6,143.1c-0.1-0.4,0.1-0.8,0.4-1l0,0c0.4-0.1,0.8,0,1,0.4l0,0c0.1,0.4-0.1,0.8-0.4,1l0,0
				c-0.1,0-0.2,0.1-0.3,0.1l0,0C47,143.6,46.8,143.4,46.6,143.1z M19,143.3c-0.4-0.2-0.6-0.6-0.4-1l0,0c0.1-0.4,0.6-0.6,1-0.4l0,0
				c0.4,0.1,0.6,0.6,0.4,1l0,0c-0.1,0.3-0.4,0.5-0.7,0.5l0,0C19.1,143.3,19,143.3,19,143.3z M49.4,142.1c-0.1-0.4,0.1-0.8,0.5-1l0,0
				c0.4-0.1,0.8,0.1,1,0.4l0,0c0.1,0.4-0.1,0.8-0.4,1l0,0c-0.1,0-0.2,0-0.3,0l0,0C49.8,142.6,49.6,142.4,49.4,142.1z M16.1,142.2
				c-0.4-0.1-0.6-0.6-0.4-1l0,0c0.1-0.4,0.6-0.6,1-0.4l0,0c0.4,0.1,0.6,0.6,0.4,1l0,0c-0.1,0.3-0.4,0.5-0.7,0.5l0,0
				C16.3,142.3,16.2,142.3,16.1,142.2z"/>
		</g>
	</g>
</g>
<g>
	<g>
		<polygon fill="#FFFFFF" points="191.2,152.1 171.4,145.8 152.2,152.1 152.2,178.3 171.8,185.2 191.2,178.3 		"/>
		<path fill="#28CB75" d="M172.2,185.7l-0.2-0.1l-19.8-7v-26.9l19.6-6.4l20.4,6.4v26.9L172.2,185.7z M153.2,177.9l19,6.7l19-6.7
			v-25.5l-19.4-6.1l-18.6,6.1V177.9z"/>
	</g>
	<g opacity="0.52">
		<g opacity="0.4">
			<polygon fill="#28CB75" points="152.6,178.9 152.3,177.9 172.7,171.7 191.9,177.8 191.6,178.8 172.7,172.8 			"/>
		</g>
		<g opacity="0.4">
			<rect x="171.2" y="145.2" fill="#28CB75" width="1" height="27"/>
		</g>
	</g>
	<g>
		<g>
			<path fill="#28CB75" d="M171.5,161.4c-0.4-0.1-0.6-0.6-0.4-1l0,0c0.1-0.4,0.6-0.6,1-0.4l0,0c0.4,0.1,0.6,0.6,0.4,1l0,0
				c-0.1,0.3-0.4,0.5-0.7,0.5l0,0C171.7,161.4,171.6,161.4,171.5,161.4z M173.9,160.1c-0.1-0.4,0.1-0.8,0.5-1l0,0
				c0.4-0.1,0.8,0.1,1,0.4l0,0c0.1,0.4-0.1,0.8-0.5,1l0,0c-0.1,0-0.2,0.1-0.3,0.1l0,0C174.3,160.6,174,160.4,173.9,160.1z
				 M168.7,160.3c-0.4-0.1-0.6-0.6-0.4-1l0,0c0.1-0.4,0.6-0.6,1-0.4l0,0c0.4,0.1,0.6,0.6,0.4,1l0,0c-0.1,0.3-0.4,0.5-0.7,0.5l0,0
				C168.8,160.4,168.8,160.4,168.7,160.3z M176.7,159.1c-0.1-0.4,0.1-0.8,0.5-1l0,0c0.4-0.2,0.8,0,1,0.4l0,0c0.1,0.4,0,0.8-0.4,1
				l0,0c-0.1,0-0.2,0-0.3,0l0,0C177.1,159.6,176.8,159.4,176.7,159.1z M165.9,159.3c-0.4-0.2-0.6-0.6-0.4-1l0,0
				c0.2-0.4,0.6-0.6,1-0.4l0,0c0.4,0.1,0.6,0.6,0.4,1l0,0c-0.1,0.3-0.4,0.5-0.7,0.5l0,0C166,159.3,166,159.3,165.9,159.3z
				 M179.5,158c-0.1-0.4,0-0.8,0.4-1l0,0c0.4-0.2,0.8,0,1,0.4l0,0c0.1,0.4-0.1,0.8-0.4,1l0,0c-0.1,0-0.2,0-0.3,0l0,0
				C179.9,158.5,179.6,158.3,179.5,158z M163.1,158.2c-0.4-0.1-0.6-0.6-0.4-1l0,0c0.1-0.4,0.6-0.6,1-0.4l0,0c0.4,0.2,0.6,0.6,0.4,1
				l0,0c-0.1,0.3-0.4,0.5-0.7,0.5l0,0C163.2,158.3,163.1,158.3,163.1,158.2z M182.3,157c-0.1-0.4,0.1-0.8,0.5-1l0,0
				c0.4-0.1,0.8,0,1,0.4l0,0c0.1,0.4,0,0.8-0.4,1l0,0c-0.1,0-0.2,0-0.3,0l0,0C182.7,157.5,182.4,157.3,182.3,157z M160.2,157.2
				c-0.4-0.1-0.6-0.6-0.4-1l0,0c0.2-0.4,0.6-0.6,1-0.4l0,0c0.4,0.1,0.6,0.6,0.4,1l0,0c-0.1,0.3-0.4,0.5-0.7,0.5l0,0
				C160.4,157.2,160.3,157.2,160.2,157.2z M185.1,156c-0.1-0.4,0-0.8,0.4-1l0,0c0.4-0.1,0.8,0.1,1,0.4l0,0c0.2,0.4,0,0.8-0.4,1l0,0
				c-0.1,0-0.2,0-0.3,0l0,0C185.5,156.5,185.2,156.3,185.1,156z M157.4,156.1c-0.4-0.2-0.6-0.6-0.4-1l0,0c0.1-0.4,0.6-0.6,1-0.4l0,0
				c0.4,0.1,0.6,0.6,0.4,1l0,0c-0.1,0.3-0.4,0.5-0.7,0.5l0,0C157.6,156.2,157.5,156.1,157.4,156.1z M187.9,154.9
				c-0.1-0.4,0.1-0.8,0.5-1l0,0c0.4-0.1,0.8,0.1,1,0.4l0,0c0.1,0.4-0.1,0.8-0.4,1l0,0c-0.1,0-0.2,0-0.3,0l0,0
				C188.3,155.4,188,155.2,187.9,154.9z M154.6,155.1c-0.4-0.1-0.6-0.6-0.4-1l0,0c0.2-0.4,0.6-0.6,1-0.4l0,0c0.4,0.1,0.6,0.6,0.4,1
				l0,0c-0.1,0.3-0.4,0.5-0.7,0.5l0,0C154.8,155.1,154.7,155.1,154.6,155.1z"/>
		</g>
	</g>
	<g>
		<g>
			<path fill="#28CB75" d="M171.5,173.8c-0.4-0.1-0.6-0.6-0.4-1l0,0c0.1-0.4,0.6-0.6,1-0.4l0,0c0.4,0.1,0.6,0.6,0.4,1l0,0
				c-0.1,0.3-0.4,0.5-0.7,0.5l0,0C171.7,173.8,171.6,173.8,171.5,173.8z M173.9,172.5c-0.1-0.4,0.1-0.8,0.4-1l0,0
				c0.4-0.1,0.8,0,1,0.4l0,0c0.1,0.4-0.1,0.8-0.5,1l0,0c-0.1,0-0.2,0-0.3,0l0,0C174.3,173,174,172.8,173.9,172.5z M168.7,172.7
				c-0.4-0.1-0.6-0.6-0.4-1l0,0c0.1-0.4,0.6-0.6,1-0.4l0,0c0.4,0.1,0.6,0.6,0.4,1l0,0c-0.1,0.3-0.4,0.5-0.7,0.5l0,0
				C168.8,172.8,168.8,172.8,168.7,172.7z M176.7,171.5c-0.1-0.4,0.1-0.8,0.5-1l0,0c0.4-0.1,0.8,0,1,0.4l0,0c0.1,0.4,0,0.8-0.4,1
				l0,0c-0.1,0-0.2,0-0.3,0l0,0C177.1,172,176.8,171.8,176.7,171.5z M165.9,171.7c-0.4-0.2-0.6-0.6-0.4-1l0,0c0.2-0.4,0.6-0.6,1-0.4
				l0,0c0.4,0.2,0.6,0.6,0.4,1l0,0c-0.1,0.3-0.4,0.5-0.7,0.5l0,0C166,171.7,166,171.7,165.9,171.7z M179.5,170.4
				c-0.1-0.4,0-0.8,0.4-1l0,0c0.4-0.1,0.8,0.1,1,0.4l0,0c0.1,0.4-0.1,0.8-0.4,1l0,0c-0.1,0-0.2,0-0.3,0l0,0
				C179.9,170.9,179.6,170.7,179.5,170.4z M163.1,170.6c-0.4-0.1-0.6-0.6-0.4-1l0,0c0.1-0.4,0.6-0.6,1-0.4l0,0
				c0.4,0.1,0.6,0.6,0.4,1l0,0c-0.1,0.3-0.4,0.5-0.7,0.5l0,0C163.2,170.7,163.1,170.6,163.1,170.6z M182.3,169.4
				c-0.1-0.4,0.1-0.8,0.5-1l0,0c0.4-0.1,0.8,0.1,1,0.4l0,0c0.1,0.4,0,0.8-0.4,1l0,0c-0.1,0-0.2,0-0.3,0l0,0
				C182.7,169.9,182.4,169.7,182.3,169.4z M160.2,169.6c-0.4-0.1-0.6-0.6-0.4-1l0,0c0.2-0.4,0.6-0.6,1-0.4l0,0
				c0.4,0.1,0.6,0.6,0.4,1l0,0c-0.1,0.3-0.4,0.5-0.7,0.5l0,0C160.4,169.6,160.3,169.6,160.2,169.6z M185.1,168.4
				c-0.1-0.4,0-0.8,0.4-1l0,0c0.4-0.1,0.8,0.1,1,0.4l0,0c0.2,0.4,0,0.8-0.4,1l0,0c-0.1,0-0.2,0-0.3,0l0,0
				C185.5,168.8,185.2,168.7,185.1,168.4z M157.4,168.5c-0.4-0.2-0.6-0.6-0.4-1l0,0c0.1-0.4,0.6-0.6,1-0.4l0,0
				c0.4,0.2,0.6,0.6,0.4,1l0,0c-0.1,0.3-0.4,0.5-0.7,0.5l0,0C157.6,168.6,157.5,168.5,157.4,168.5z M187.9,167.3
				c-0.1-0.4,0.1-0.8,0.5-1l0,0c0.4-0.1,0.8,0.1,1,0.5l0,0c0.1,0.4-0.1,0.8-0.4,1l0,0c-0.1,0-0.2,0-0.3,0l0,0
				C188.3,167.8,188,167.6,187.9,167.3z M154.6,167.5c-0.4-0.2-0.6-0.6-0.4-1l0,0c0.2-0.4,0.6-0.6,1-0.4l0,0c0.4,0.2,0.6,0.6,0.4,1
				l0,0c-0.1,0.3-0.4,0.5-0.7,0.5l0,0C154.8,167.5,154.7,167.5,154.6,167.5z"/>
		</g>
	</g>
</g>
<g>
	<g>
		<polygon fill="#FFFFFF" points="157.2,152.1 136.9,145.9 117.2,152.1 117.2,190.7 137.2,197.6 157.2,190.7 		"/>
		<path fill="#288FEB" d="M137.8,198.2l-20.5-7.1v-39.3l20.1-6.4l0.1,0l20.7,6.4v39.3L137.8,198.2z M118.2,190.4l19.5,6.7l19.5-6.7
			v-37.9l-19.9-6.1l-19.1,6.1V190.4z"/>
	</g>
	<g opacity="0.52">
		<g opacity="0.4">
			<polygon fill="#288FEB" points="158.4,191.3 138,185.2 117.9,191.3 117.7,190.4 138,184.2 158.7,190.4 			"/>
		</g>
		<g opacity="0.4">
			<rect x="137.2" y="146.2" fill="#288FEB" width="1" height="39"/>
		</g>
	</g>
	<g>
		<g>
			<path fill="#288FEB" d="M136.8,161.4c-0.4-0.1-0.6-0.6-0.4-1l0,0c0.1-0.4,0.6-0.6,1-0.4l0,0c0.4,0.1,0.6,0.6,0.4,1l0,0
				c-0.1,0.3-0.4,0.5-0.7,0.5l0,0C137,161.5,136.9,161.5,136.8,161.4z M139.2,160.2c-0.1-0.4,0.1-0.8,0.4-1l0,0
				c0.4-0.1,0.8,0.1,1,0.5l0,0c0.1,0.4-0.1,0.8-0.4,1l0,0c-0.1,0-0.2,0-0.2,0l0,0C139.6,160.7,139.3,160.5,139.2,160.2z M134,160.4
				c-0.4-0.1-0.6-0.6-0.4-1l0,0c0.1-0.4,0.6-0.6,1-0.4l0,0c0.4,0.1,0.6,0.6,0.4,1l0,0c-0.1,0.3-0.4,0.5-0.7,0.5l0,0
				C134.2,160.4,134.1,160.4,134,160.4z M142,159.1c-0.2-0.4,0-0.8,0.4-1l0,0c0.4-0.1,0.8,0,1,0.4l0,0c0.1,0.4-0.1,0.8-0.4,1l0,0
				c-0.1,0-0.2,0-0.3,0l0,0C142.4,159.6,142.1,159.4,142,159.1z M131.2,159.3c-0.4-0.2-0.6-0.6-0.4-1l0,0c0.1-0.4,0.6-0.6,1-0.4l0,0
				c0.4,0.1,0.6,0.6,0.4,1l0,0c-0.1,0.3-0.4,0.5-0.7,0.5l0,0C131.4,159.4,131.3,159.4,131.2,159.3z M144.8,158.1
				c-0.1-0.4,0.1-0.8,0.4-1l0,0c0.4-0.1,0.8,0,1,0.4l0,0c0.1,0.4-0.1,0.8-0.4,1l0,0c-0.1,0-0.2,0-0.3,0l0,0
				C145.2,158.6,144.9,158.4,144.8,158.1z M128.4,158.3c-0.4-0.1-0.6-0.6-0.4-1l0,0c0.1-0.4,0.6-0.6,1-0.4l0,0
				c0.4,0.1,0.6,0.6,0.4,1l0,0c-0.1,0.3-0.4,0.5-0.7,0.5l0,0C128.6,158.3,128.5,158.3,128.4,158.3z M147.6,157.1
				c-0.1-0.4,0.1-0.8,0.5-1l0,0c0.4-0.1,0.8,0,1,0.4l0,0c0.1,0.4,0,0.8-0.4,1l0,0c-0.1,0-0.2,0-0.3,0l0,0
				C148,157.5,147.8,157.4,147.6,157.1z M125.6,157.2c-0.4-0.1-0.6-0.6-0.4-1l0,0c0.2-0.4,0.6-0.6,1-0.4l0,0c0.4,0.1,0.6,0.6,0.4,1
				l0,0c-0.1,0.3-0.4,0.5-0.7,0.5l0,0C125.8,157.3,125.7,157.2,125.6,157.2z M150.5,156c-0.2-0.4,0-0.8,0.4-1l0,0
				c0.4-0.1,0.8,0.1,1,0.4l0,0c0.1,0.4-0.1,0.8-0.4,1l0,0c-0.1,0-0.2,0-0.3,0l0,0C150.8,156.5,150.6,156.3,150.5,156z M122.8,156.2
				c-0.4-0.2-0.6-0.6-0.4-1l0,0c0.2-0.4,0.6-0.6,1-0.4l0,0c0.4,0.2,0.6,0.6,0.4,1l0,0c-0.1,0.3-0.4,0.5-0.7,0.5l0,0
				C122.9,156.2,122.9,156.2,122.8,156.2z M153.3,155c-0.1-0.4,0.1-0.8,0.5-1l0,0c0.4-0.1,0.8,0.1,1,0.5l0,0c0.1,0.4-0.1,0.8-0.4,1
				l0,0c-0.1,0-0.2,0-0.3,0l0,0C153.7,155.5,153.4,155.3,153.3,155z M120,155.1c-0.4-0.2-0.6-0.6-0.4-1l0,0c0.1-0.4,0.6-0.6,1-0.4
				l0,0c0.4,0.1,0.6,0.6,0.4,1l0,0c-0.1,0.3-0.4,0.5-0.7,0.5l0,0C120.1,155.2,120,155.1,120,155.1z"/>
		</g>
	</g>
	<g>
		<g>
			<path fill="#288FEB" d="M136.8,173.8c-0.4-0.1-0.6-0.6-0.4-1l0,0c0.1-0.4,0.6-0.6,1-0.4l0,0c0.4,0.1,0.6,0.6,0.4,1l0,0
				c-0.1,0.3-0.4,0.5-0.7,0.5l0,0C137,173.9,136.9,173.9,136.8,173.8z M139.2,172.6c-0.1-0.4,0.1-0.8,0.4-1l0,0
				c0.4-0.1,0.8,0.1,1,0.5l0,0c0.1,0.4-0.1,0.8-0.4,1l0,0c-0.1,0-0.2,0-0.3,0l0,0C139.6,173.1,139.3,172.9,139.2,172.6z M134,172.8
				c-0.4-0.1-0.6-0.6-0.4-1l0,0c0.1-0.4,0.6-0.6,1-0.4l0,0c0.4,0.1,0.6,0.6,0.4,1l0,0c-0.1,0.3-0.4,0.5-0.7,0.5l0,0
				C134.2,172.8,134.1,172.8,134,172.8z M142,171.5c-0.1-0.4,0.1-0.8,0.5-1l0,0c0.4-0.1,0.8,0.1,1,0.4l0,0c0.1,0.4-0.1,0.8-0.4,1
				l0,0c-0.1,0-0.2,0-0.3,0l0,0C142.4,172,142.1,171.8,142,171.5z M131.2,171.7c-0.4-0.2-0.6-0.6-0.4-1l0,0c0.1-0.4,0.6-0.6,1-0.4
				l0,0c0.4,0.2,0.6,0.6,0.4,1l0,0c-0.1,0.3-0.4,0.5-0.7,0.5l0,0C131.4,171.8,131.3,171.8,131.2,171.7z M144.8,170.5
				c-0.1-0.4,0.1-0.8,0.4-1l0,0c0.4-0.1,0.8,0,1,0.4l0,0c0.1,0.4-0.1,0.8-0.4,1l0,0c-0.1,0-0.2,0-0.3,0l0,0
				C145.2,171,144.9,170.8,144.8,170.5z M128.4,170.7c-0.4-0.1-0.6-0.6-0.4-1l0,0c0.1-0.4,0.6-0.6,1-0.4l0,0c0.4,0.1,0.6,0.6,0.4,1
				l0,0c-0.1,0.3-0.4,0.5-0.7,0.5l0,0C128.6,170.7,128.5,170.7,128.4,170.7z M147.6,169.5c-0.1-0.4,0.1-0.8,0.5-1l0,0
				c0.4-0.1,0.8,0,1,0.4l0,0c0.1,0.4,0,0.8-0.4,1l0,0c-0.1,0-0.2,0-0.3,0l0,0C148,169.9,147.8,169.8,147.6,169.5z M125.6,169.6
				c-0.4-0.1-0.6-0.6-0.4-1l0,0c0.2-0.4,0.6-0.6,1-0.4l0,0c0.4,0.1,0.6,0.6,0.4,1l0,0c-0.1,0.3-0.4,0.5-0.7,0.5l0,0
				C125.8,169.7,125.7,169.6,125.6,169.6z M150.5,168.4c-0.1-0.4,0-0.8,0.4-1l0,0c0.4-0.1,0.8,0.1,1,0.4l0,0c0.1,0.4-0.1,0.8-0.4,1
				l0,0c-0.1,0-0.2,0-0.3,0l0,0C150.8,168.9,150.6,168.7,150.5,168.4z M122.8,168.6c-0.4-0.1-0.6-0.6-0.4-1l0,0
				c0.2-0.4,0.6-0.6,1-0.4l0,0c0.4,0.2,0.6,0.6,0.4,1l0,0c-0.1,0.3-0.4,0.5-0.7,0.5l0,0C122.9,168.6,122.9,168.6,122.8,168.6z
				 M153.3,167.4c-0.1-0.4,0.1-0.8,0.5-1l0,0c0.4-0.1,0.8,0.1,1,0.4l0,0c0.1,0.4-0.1,0.8-0.4,1l0,0c-0.1,0-0.2,0.1-0.3,0.1l0,0
				C153.7,167.9,153.4,167.7,153.3,167.4z M120,167.5c-0.4-0.2-0.6-0.6-0.4-1l0,0c0.1-0.4,0.6-0.6,1-0.4l0,0c0.4,0.2,0.6,0.6,0.4,1
				l0,0c-0.1,0.3-0.4,0.5-0.7,0.5l0,0C120.1,167.5,120,167.5,120,167.5z"/>
		</g>
	</g>
	<g>
		<g>
			<path fill="#288FEB" d="M136.8,186.2c-0.4-0.2-0.6-0.6-0.4-1l0,0c0.1-0.4,0.6-0.6,1-0.4l0,0c0.4,0.2,0.6,0.6,0.4,1l0,0
				c-0.1,0.3-0.4,0.5-0.7,0.5l0,0C137,186.3,136.9,186.2,136.8,186.2z M139.2,185c-0.1-0.4,0.1-0.8,0.4-1l0,0c0.4-0.2,0.8,0,1,0.4
				l0,0c0.1,0.4-0.1,0.8-0.4,1l0,0c-0.1,0-0.2,0.1-0.2,0.1l0,0C139.6,185.5,139.3,185.3,139.2,185z M134,185.2
				c-0.4-0.1-0.6-0.6-0.4-1l0,0c0.1-0.4,0.6-0.6,1-0.4l0,0c0.4,0.1,0.6,0.6,0.4,1l0,0c-0.1,0.3-0.4,0.5-0.7,0.5l0,0
				C134.2,185.2,134.1,185.2,134,185.2z M142,183.9c-0.2-0.4,0-0.8,0.4-1l0,0c0.4-0.2,0.8,0,1,0.4l0,0c0.1,0.4-0.1,0.8-0.4,1l0,0
				c-0.1,0-0.2,0-0.3,0l0,0C142.4,184.4,142.1,184.2,142,183.9z M131.2,184.1c-0.4-0.1-0.6-0.6-0.4-1l0,0c0.1-0.4,0.6-0.6,1-0.4l0,0
				c0.4,0.1,0.6,0.6,0.4,1l0,0c-0.1,0.3-0.4,0.5-0.7,0.5l0,0C131.4,184.2,131.3,184.1,131.2,184.1z M144.8,182.9
				c-0.1-0.4,0.1-0.8,0.4-1l0,0c0.4-0.1,0.8,0.1,1,0.4l0,0c0.1,0.4-0.1,0.8-0.4,1l0,0c-0.1,0-0.2,0-0.3,0l0,0
				C145.2,183.4,144.9,183.2,144.8,182.9z M128.4,183.1c-0.4-0.1-0.6-0.6-0.4-1l0,0c0.1-0.4,0.6-0.6,1-0.4l0,0
				c0.4,0.2,0.6,0.6,0.4,1l0,0c-0.1,0.3-0.4,0.5-0.7,0.5l0,0C128.6,183.1,128.5,183.1,128.4,183.1z M147.6,181.8
				c-0.1-0.4,0.1-0.8,0.5-1l0,0c0.4-0.1,0.8,0.1,1,0.4l0,0c0.1,0.4,0,0.8-0.4,1l0,0c-0.1,0-0.2,0-0.3,0l0,0
				C148,182.3,147.7,182.1,147.6,181.8z M125.6,182c-0.4-0.1-0.6-0.6-0.4-1l0,0c0.2-0.4,0.6-0.6,1-0.4l0,0c0.4,0.1,0.6,0.6,0.4,1
				l0,0c-0.1,0.3-0.4,0.5-0.7,0.5l0,0C125.8,182,125.7,182,125.6,182z M150.5,180.8c-0.2-0.4,0-0.8,0.4-1l0,0c0.4-0.1,0.8,0.1,1,0.5
				l0,0c0.1,0.4-0.1,0.8-0.4,1l0,0c-0.1,0-0.2,0-0.3,0l0,0C150.8,181.3,150.6,181.1,150.5,180.8z M122.8,181c-0.4-0.2-0.6-0.6-0.4-1
				l0,0c0.2-0.4,0.6-0.6,1-0.4l0,0c0.4,0.1,0.6,0.6,0.4,1l0,0c-0.1,0.3-0.4,0.5-0.7,0.5l0,0C122.9,181,122.9,181,122.8,181z
				 M153.3,179.8c-0.1-0.4,0.1-0.8,0.5-1l0,0c0.4-0.1,0.8,0.1,1,0.5l0,0c0.1,0.4-0.1,0.8-0.4,1l0,0c-0.1,0-0.2,0-0.3,0l0,0
				C153.7,180.3,153.4,180.1,153.3,179.8z M120,179.9c-0.4-0.1-0.6-0.6-0.4-1l0,0c0.1-0.4,0.6-0.6,1-0.4l0,0c0.4,0.1,0.6,0.6,0.4,1
				l0,0c-0.1,0.3-0.4,0.5-0.7,0.5l0,0C120.1,179.9,120,179.9,120,179.9z"/>
		</g>
	</g>
</g>
</svg>
